<?xml version="1.0" encoding="utf-8"?>
<!-- Generator: Adobe Illustrator 28.1.0, SVG Export Plug-In . SVG Version: 6.00 Build 0)  -->
<svg version="1.1" id="レイヤー_1" xmlns="http://www.w3.org/2000/svg" xmlns:xlink="http://www.w3.org/1999/xlink" x="0px"
	 y="0px" viewBox="0 0 226.2 221.7" style="enable-background:new 0 0 226.2 221.7;" xml:space="preserve">
<style type="text/css">
	.st0{fill:url(#長方形_481_00000099649278588820140470000013729300398533820859_);}
	.st1{enable-background:new    ;}
	.st2{fill:#EF9CBF;}
	.st3{fill:#FFFFFF;}
</style>
<g id="グループ_3308" transform="translate(-522.268 -2424.498)">
	<g id="グループ_564" transform="translate(522.268 2424.498)">
		
			<linearGradient id="長方形_481_00000010279997923004310910000013299732698271645326_" gradientUnits="userSpaceOnUse" x1="-181.8306" y1="529.954" x2="-183.0887" y2="529.8911" gradientTransform="matrix(210.095 0 0 -210.095 38489.5703 111449.0156)">
			<stop  offset="0" style="stop-color:#FDFCDC"/>
			<stop  offset="1" style="stop-color:#FDC0DA"/>
		</linearGradient>
		<path id="長方形_481" style="fill:url(#長方形_481_00000010279997923004310910000013299732698271645326_);" d="M121.1,11.6
			L121.1,11.6c58,0,105,47,105,105l0,0c0,58-47,105-105,105l0,0c-58,0-105-47-105-105l0,0C16.1,58.7,63.1,11.6,121.1,11.6z"/>
		<g class="st1">
			<path class="st2" d="M2.7,34.3c0-10.7,4.6-17.1,12.5-17.1s12.5,6.4,12.5,17.1c0,10.7-4.6,17.1-12.5,17.1S2.7,45.1,2.7,34.3z
				 M19.9,34.3c0-6.4-1.7-10-4.7-10s-4.7,3.6-4.7,10c0,6.5,1.7,10,4.7,10S19.9,40.8,19.9,34.3z"/>
			<path class="st2" d="M37.4,28h-4.7c-0.5,0-0.9-0.4-0.9-0.9V24c0-0.2,0.1-0.6,0.3-0.7l7.2-5.6h4.5c0.5,0,0.9,0.4,0.9,0.9v31.5
				c0,0.5-0.4,0.9-0.9,0.9h-5.4c-0.5,0-0.9-0.4-0.9-0.9V28z"/>
		</g>
		<path id="長方形_543" class="st3" d="M121.1,18.8L121.1,18.8c54.1,0,97.9,43.8,97.9,97.9v0c0,54.1-43.8,97.9-97.9,97.9h0
			c-54.1,0-97.9-43.8-97.9-97.9v0C23.2,62.6,67.1,18.8,121.1,18.8z"/>
	</g>
	<g id="_レイヤー_1-2" transform="translate(602.633 2477.691)">
		<path id="パス_925" class="st3" d="M24.6,100.9c1.1-2.4,2.4-4.8,3.9-7c1.3-1.9,3-3.4,5.1-4.4c5.3-2.6,12-6.7,17.6-16.9L15,54.8
			c0,0-0.1-7.2-0.1-16.6C14.9,30.3,12,28,10,28c-1-0.1-1.9,0.5-2.4,1.4c-0.3,0.5-0.4,1.1-0.3,1.7c0.1,2,0.2,3.7,0.4,6.2
			c0.6,7.3-1.6,17.9-3,23.5c-1.2,5.7-1.4,11.6-0.4,17.4C5.1,84.6,1,91.7,1,91.7"/>
		<path id="パス_926" class="st2" d="M24.6,102c-0.1,0-0.3,0-0.4-0.1c-0.5-0.2-0.8-0.9-0.5-1.4c1.1-2.5,2.5-4.9,4-7.2
			c1.4-2,3.3-3.7,5.5-4.7c3-1.4,5.9-3.3,8.5-5.5c3.3-2.9,6-6.3,8.2-10.1L14.5,55.8c-0.4-0.2-0.6-0.5-0.6-0.9c0-0.1-0.1-7.4-0.1-16.6
			c0-4.2-0.8-6.4-1.5-7.6C11.9,29.8,11,29.2,10,29c-0.6-0.1-1.2,0.3-1.4,0.8c-0.2,0.3-0.2,0.7-0.2,1.1c0,0.6,0.1,1.1,0.1,1.6
			c0.1,1.4,0.1,2.8,0.3,4.6c0.2,4.2-0.1,8.5-0.8,12.6C7.2,54.6,6.2,58.9,5.7,61s-1.6,8-0.4,17C6.2,84.8,2.1,91.9,2,92.3
			c-0.3,0.5-0.9,0.7-1.4,0.4c-0.5-0.3-0.7-0.9-0.4-1.4c0-0.1,3.9-6.9,3-12.9c-0.9-6.6-0.7-13.1,0.5-17.8c0.9-3.4,3.6-15.3,3-23.2
			c-0.1-1.8-0.2-3.2-0.3-4.6c0-0.5-0.1-1-0.1-1.6c0-0.8,0.1-1.5,0.5-2.2c0.6-1.2,1.9-2,3.3-1.9c1.7,0.1,3.3,1.1,4.1,2.7
			c1.2,2,1.8,4.9,1.8,8.7c0,7.6,0,13.9,0.1,15.9l35.6,17.5c0.5,0.3,0.7,0.9,0.5,1.4c0,0,0,0,0,0C46.4,83.3,39.8,87.6,34,90.4
			c-1.9,0.9-3.5,2.3-4.7,4c-1.4,2.2-2.7,4.5-3.8,6.9C25.3,101.7,25,102,24.6,102L24.6,102z"/>
		<path id="パス_927" class="st3" d="M39.6,46.7l17.7-12.8c2.5-1.8,6-4.3,8.3-1.8l0,0c1.8,2.4-0.4,5.2-3.7,7.8L44.4,53.3
			L39.6,46.7z"/>
		<path id="パス_928" class="st2" d="M44.4,54.4c-0.1,0-0.1,0-0.2,0c-0.3,0-0.5-0.2-0.7-0.4l-4.8-6.7c-0.3-0.5-0.2-1.1,0.2-1.5
			L56.7,33c1.4-1.1,2.9-2,4.5-2.7c0.8-0.3,1.7-0.5,2.6-0.4c1,0.1,1.9,0.6,2.5,1.4c0,0,0,0.1,0.1,0.1c1.1,1.5,1.1,3.5,0.1,5
			c-1.1,1.7-2.4,3.1-4,4.3l0,0L45.1,54.2C44.9,54.3,44.6,54.4,44.4,54.4z M41.1,46.9l3.6,4.9l16.7-12.8c5-4.1,4-5.7,3.5-6.3
			c-0.5-0.5-1.3-1-2.9-0.4c-1.4,0.6-2.8,1.4-4,2.4L41.1,46.9L41.1,46.9z"/>
		<path id="パス_929" class="st3" d="M20.5,1.4h30.1c2.9,0,5.3,2.4,5.3,5.3v67.8c0,2.9-2.4,5.3-5.3,5.3H20.5
			c-2.9,0-5.3-2.4-5.3-5.3V6.8C15.2,3.8,17.6,1.4,20.5,1.4L20.5,1.4z"/>
		<path id="パス_930" class="st2" d="M50.6,0H20.5c-3.7,0-6.8,3-6.8,6.8v67.8c0,3.7,3,6.8,6.8,6.8h30.1c3.7,0,6.8-3,6.8-6.8V6.8
			C57.4,3,54.3,0,50.6,0z M55.1,74.6c0,2.5-2,4.5-4.5,4.5H20.5c-2.5,0-4.5-2-4.5-4.5V6.8c0-2.5,2-4.5,4.5-4.5c0,0,0,0,0,0h4
			c0.2,0,0.3,0.2,0.3,0.3c0,0,0,0,0,0V3c0,1.5,1.2,2.6,2.6,2.6h16.1c1.5,0,2.6-1.2,2.6-2.6V2.7c0-0.2,0.2-0.3,0.3-0.3h4
			c2.5,0,4.5,2,4.5,4.5L55.1,74.6L55.1,74.6z"/>
		<path id="パス_931" class="st2" d="M13.4,10.9h0.4v3.7h-0.4c-0.1,0-0.2-0.1-0.2-0.2v-3.3C13.2,11,13.3,10.9,13.4,10.9L13.4,10.9
			z"/>
		<path id="パス_932" class="st2" d="M13.4,18.2h0.4v6.4h-0.4c-0.1,0-0.2-0.1-0.2-0.2v-5.9C13.2,18.3,13.3,18.2,13.4,18.2
			L13.4,18.2z"/>
		<path id="パス_933" class="st2" d="M57.8,30h-0.4v-9.7h0.4c0.1,0,0.2,0.1,0.2,0.2v9.3C58,29.9,57.9,30,57.8,30z"/>
		<path id="パス_934" class="st2" d="M13.4,25.6h0.4v6.4h-0.4c-0.1,0-0.2-0.1-0.2-0.2v-5.9C13.2,25.7,13.3,25.6,13.4,25.6
			L13.4,25.6z"/>
		<path id="パス_941" class="st2" d="M45.2,99.8c-0.4,0-0.8-0.3-1-0.7L39.5,85c-0.2-0.6,0.1-1.1,0.7-1.3c0.5-0.2,1.1,0.1,1.3,0.6
			l4.7,14.1c0.2,0.5-0.1,1.1-0.7,1.3C45.5,99.7,45.4,99.8,45.2,99.8L45.2,99.8z"/>
		<path id="長方形_567" class="st2" d="M21.9,17.5H49c1.7,0,3,1.3,3,3v36c0,1.7-1.3,3-3,3H21.9c-1.7,0-3-1.3-3-3v-36
			C18.9,18.8,20.2,17.5,21.9,17.5z"/>
		<g class="st1">
			<path class="st3" d="M28.2,27.7c-0.3,0.9-0.7,1.7-1.2,2.3c0.6,0.3,1.2,0.6,2,0.7c-0.2,0.2-0.4,0.5-0.5,0.8
				c-0.8-0.2-1.5-0.5-2.1-0.9c-0.5,0.4-1.2,0.7-1.9,0.9c-0.1-0.2-0.3-0.5-0.5-0.7c0.6-0.2,1.2-0.4,1.7-0.7c-0.4-0.4-0.7-0.8-0.9-1.3
				c-0.3,0.9-0.8,1.8-1.6,2.5c-0.2-0.2-0.4-0.4-0.7-0.6c1.2-1,1.7-2.6,1.9-3.9h-1.6v-0.8h1.7c0-0.5,0-0.8,0.1-1h0.9
				c0,0.3,0,0.6-0.1,1h3.5v0.8h-3.6c0,0.2-0.1,0.5-0.1,0.7h2.5l0.2,0L28.2,27.7z M25.4,28.3c0.2,0.4,0.5,0.8,0.9,1.2
				c0.3-0.3,0.6-0.7,0.8-1.2H25.4z"/>
		</g>
		<g class="st1">
			<path class="st3" d="M33,26c0,0.1,0,0.2-0.1,0.3c0.4-0.1,0.8-0.1,1.2-0.2v0.9c-0.4,0.1-0.9,0.2-1.4,0.2c-0.1,0.3-0.1,0.6-0.2,0.9
				c-0.3,1-0.7,2.4-1.1,3.2l-1-0.3c0.4-0.7,1-2.2,1.2-3.2c0-0.2,0.1-0.4,0.1-0.6c-0.2,0-0.3,0-0.5,0c-0.3,0-0.6,0-0.8,0l0-0.9
				c0.4,0,0.6,0.1,0.9,0.1c0.2,0,0.4,0,0.6,0c0-0.2,0-0.3,0.1-0.4c0-0.3,0-0.5,0-0.7l1.1,0.1C33.1,25.5,33,25.8,33,26z M33.8,29.8
				c0,0.3,0.2,0.5,1,0.5c0.5,0,1,0,1.5-0.1l0,0.9c-0.4,0.1-0.9,0.1-1.4,0.1c-1.2,0-1.8-0.4-1.8-1.1c0-0.3,0.1-0.7,0.1-0.9l0.8,0.1
				C33.8,29.4,33.8,29.6,33.8,29.8z M34.9,27.4c0.4,0,0.8,0,1.2,0.1l0,0.8c-0.4,0-0.8-0.1-1.2-0.1c-0.5,0-0.9,0-1.4,0.1v-0.8
				C33.9,27.4,34.4,27.4,34.9,27.4z M35.9,26.5l-0.6,0.2c-0.1-0.3-0.4-0.7-0.5-1l0.6-0.2C35.5,25.8,35.8,26.2,35.9,26.5z M36.7,26.2
				l-0.6,0.2c-0.1-0.3-0.4-0.7-0.6-1l0.6-0.2C36.4,25.5,36.6,25.9,36.7,26.2z"/>
			<path class="st3" d="M40,26c0,0.1,0,0.1,0,0.2c0.8,0,1.7-0.1,2.6-0.3l0,0.8c-0.7,0.1-1.8,0.3-2.8,0.3c-0.1,0.4-0.2,0.9-0.3,1.2
				c0.6-0.3,1.1-0.4,1.7-0.4c1.1,0,1.9,0.6,1.9,1.5c0,1.6-1.5,2.1-3.8,1.9L39,30.3c1.5,0.3,3.1,0.1,3.1-1c0-0.4-0.4-0.8-1-0.8
				c-0.8,0-1.5,0.3-1.9,0.8c-0.1,0.1-0.1,0.2-0.2,0.3l-0.8-0.3c0.3-0.7,0.6-1.6,0.8-2.4c-0.4,0-0.9,0-1.2-0.1v-0.9
				c0.4,0.1,0.9,0.1,1.4,0.1c0-0.1,0-0.2,0-0.3c0-0.3,0-0.5,0-0.7l1,0C40.1,25.5,40,25.7,40,26z"/>
		</g>
		<g class="st1">
			<path class="st3" d="M28,38.8c0.3,0.5,0.8,0.7,1.5,0.7c0.8,0,2.4,0,3.3-0.1c-0.1,0.2-0.2,0.6-0.3,0.8c-0.8,0-2.2,0.1-3.1,0
				c-0.9,0-1.4-0.2-1.9-0.8c-0.3,0.3-0.6,0.5-1,0.8l-0.4-0.9c0.3-0.2,0.7-0.4,1-0.6v-1.5h-0.8v-0.8H28V38.8z M27.6,35.7
				c-0.2-0.3-0.7-0.8-1.1-1.1l0.6-0.5c0.4,0.3,0.9,0.7,1.2,1.1L27.6,35.7z M28.7,34.6h1.2c0.1-0.2,0.1-0.5,0.2-0.7l1,0.1
				c-0.1,0.2-0.2,0.4-0.3,0.6h1.4v2h-2.6V37h2.9v2.1h-3.7V34.6z M29.5,35.3v0.6h1.8v-0.6H29.5z M29.5,37.7v0.7h2.1v-0.7H29.5z"/>
			<path class="st3" d="M37.3,35.2c0,0,0,0.3,0,0.4c-0.1,3-0.1,4.1-0.3,4.4c-0.2,0.2-0.3,0.3-0.5,0.4c-0.2,0-0.5,0-0.8,0
				c0-0.2-0.1-0.6-0.2-0.8c0.3,0,0.5,0,0.7,0c0.1,0,0.2,0,0.2-0.1c0.1-0.2,0.2-1.1,0.2-3.4h-0.7c-0.1,1.9-0.3,3.4-1.2,4.5
				c-0.1-0.2-0.4-0.5-0.6-0.6c0.8-0.9,1-2.2,1-3.9h-0.8v-0.8H35c0-0.4,0-0.8,0-1.2h0.8c0,0.4,0,0.8,0,1.2H37.3z M40.2,34.7v5.5h-0.8
				v-0.4h-0.9v0.5h-0.8v-5.6H40.2z M39.4,39v-3.5h-0.9V39H39.4z"/>
		</g>
		<path id="パス_935" class="st3" d="M59.9,67.6c1.8-1,2.6-3.2,1.9-5.2c-0.2-0.7-0.6-1.3-1.1-1.7c1.9-1.3,2.8-3.7,2-5.9
			c-0.2-0.9-0.9-1.7-1.7-2.1c1.7-1.1,2.2-3.5,1.5-5.7c-0.7-2.2-2.9-3.2-4.8-2.2l-5.4,3.4c-1.9,1.1-2.7,3.5-2,5.6
			c0.3,0.9,1.1,1.6,2,1.8c-1.3,1.2-2.7,2.7-2.1,4.9c0.5,1.2,1.4,2.1,2.5,2.6c-0.8,1.1-1.5,2-1.2,3.6c0.2,1,0.9,1.8,1.9,2.1
			c0.3,0.1,0.6,0.1,0.8,0.1C56.4,69,58.3,68.5,59.9,67.6L59.9,67.6z"/>
		<path id="パス_936" class="st2" d="M54.3,70c-0.3,0-0.7,0-1-0.1c-1.4-0.3-2.4-1.5-2.7-2.9c-0.3-1.2,0-2.5,0.7-3.5
			c-1-0.6-1.7-1.6-2.1-2.7c-0.4-1.8,0.1-3.7,1.4-4.9c-0.6-0.4-1-1-1.3-1.7c-0.5-1.2-0.5-2.6,0-3.8c0.5-1.2,1.3-2.3,2.4-3
			c0,0,0,0,0.1,0l5.4-3.4c0,0,0,0,0.1,0c1.1-0.6,2.4-0.7,3.6-0.2c1.3,0.6,2.3,1.6,2.7,3c0.8,2,0.4,4.2-0.8,5.9
			c0.5,0.5,0.9,1.2,1.1,1.9c0.4,1.3,0.4,2.7,0,4.1c-0.3,0.9-0.8,1.7-1.5,2.3c0.2,0.4,0.4,0.8,0.6,1.3c0.8,2.5-0.2,5.1-2.5,6.4l0,0
			c-1.7,0.9-3.6,1.4-5.5,1.4c-0.2,0-0.3,0-0.4,0C54.4,70,54.4,70,54.3,70L54.3,70z M53,49.1c-1.5,0.9-2.2,2.7-1.6,4.4
			c0.2,0.6,0.6,0.8,1.4,1.2l0.1,0c0.5,0.2,0.7,0.9,0.5,1.4c-0.1,0.1-0.1,0.2-0.2,0.3c-1.5,1.4-2.2,2.4-1.8,3.9c0.3,1,1.4,1.6,2,2
			l0,0c0.5,0.3,0.7,0.9,0.4,1.4c0,0,0,0.1-0.1,0.1c-0.8,1.1-1.2,1.7-1,2.7c0.1,0.6,0.5,1.1,1.2,1.3c0.2,0,0.3,0.1,0.5,0.1
			c0.2,0,0.3,0,0.5,0c1.6,0,3.2-0.4,4.6-1.2c1.3-0.8,1.9-2.4,1.4-3.9c-0.1-0.5-0.4-0.9-0.8-1.2c-0.4-0.4-0.5-1-0.2-1.5
			c0.1-0.1,0.2-0.2,0.3-0.3c1.5-1,2.1-2.9,1.5-4.7c-0.2-0.7-0.6-1.2-1.2-1.5c-0.5-0.3-0.7-0.9-0.5-1.4c0.1-0.2,0.2-0.3,0.4-0.4
			c1.4-0.9,1.6-2.9,1-4.4c-0.2-0.8-0.8-1.4-1.5-1.7c-0.6-0.2-1.2-0.2-1.8,0.1L53,49.1L53,49.1z"/>
		<path id="パス_937" class="st2" d="M52.4,56.5c-0.5,0-0.9-0.4-0.9-0.9c0-0.4,0.2-0.7,0.6-0.8l8.8-3.2c0.5-0.1,0.9,0.1,1.1,0.6
			c0.1,0.4-0.1,0.8-0.5,1l-8.8,3.2C52.6,56.4,52.5,56.5,52.4,56.5L52.4,56.5z"/>
		<path id="パス_938" class="st2" d="M52.8,64c-0.5,0-0.9-0.4-0.9-0.9c0-0.4,0.2-0.7,0.6-0.8l8-2.7c0.4-0.1,0.9,0.1,1.1,0.6
			c0.1,0.4-0.1,0.9-0.5,1.1l-8,2.7C53,64,52.9,64,52.8,64z"/>
		<circle id="楕円形_142" class="st3" cx="35.4" cy="51" r="4"/>
		<path id="多角形_55" class="st2" d="M38,50.9l-3.8,2.2v-4.4L38,50.9z"/>
		<path id="パス_939" class="st3" d="M64.8,130.4c0,0-2.4-5.3-5.5-7.3c-3.6-2.3-6.2-3.9-9-5.7c-3.1-2.1-5.7-4.9-7.5-8.2
			c-1.4-2.6-2.5-12.3-3-15.3C39.6,91.8,42,89,42,89l-8.4-23.8c-1.2-3.5-2.7-8,1.1-9.4c3.7-1.4,5.4,1.9,7.2,6.5L49,81
			c1.8-1.9,4.4-3,7-3c1.8,0.1,3.5,0.9,4.9,2.1c3.6-2,8-1.4,10.9,1.4c0,0,3.2-2,6.3-0.9c2.7,0.9,4.9,2.8,6.2,5.3
			c3.3,6.9,4.9,14.5,4.6,22.2c-0.1,2.3-0.2,4.2-0.3,6.5c-0.1,1.8,1,4.8,1.8,7.1"/>
		<path id="パス_940" class="st2" d="M64.8,131.5c-0.4,0-0.8-0.2-1-0.6c0-0.1-2.3-5.1-5.1-6.9c-2.3-1.5-4.1-2.6-5.9-3.7
			c-1-0.7-2-1.3-3.1-1.9c-3.3-2.2-5.9-5.2-7.8-8.6c-1.2-2.2-2.1-8.3-2.8-13.8c-0.1-0.7-0.2-1.4-0.3-1.9c-0.3-1.9,1.2-4.2,2-5.1
			l-8.2-23.2v0c-0.7-1.9-1.2-3.8-1.4-5.8c-0.2-2.7,1.8-5,4.5-5.3c1.5-0.1,3,0.5,4,1.6c1.4,1.7,2.4,3.7,3.1,5.8v0l6.5,17.3
			c1.9-1.5,4.2-2.3,6.6-2.3h0c1.8,0.1,3.5,0.8,5,1.9c1.9-0.9,4-1.2,6-0.8c1.8,0.3,3.5,1.1,4.9,2.3c2-1,4.3-1.3,6.5-0.7
			c3,0.9,5.4,3,6.8,5.8c1.7,3.5,2.9,7.2,3.7,11c0.8,3.8,1.2,7.7,1,11.6c-0.1,1.8-0.2,3.4-0.2,5c0,0.5,0,0.9-0.1,1.4
			c-0.1,1.4,0.8,3.9,1.5,5.9c0.1,0.3,0.2,0.5,0.3,0.8c0.2,0.5-0.1,1.1-0.7,1.3c-0.5,0.2-1.1-0.1-1.3-0.7c-0.1-0.2-0.2-0.5-0.3-0.8
			c-0.8-2.3-1.7-4.9-1.6-6.7c0-0.5,0-0.9,0.1-1.4c0.1-1.7,0.1-3.3,0.2-5.1c0.3-7.5-1.3-14.9-4.5-21.7c-1.2-2.3-3.2-4-5.6-4.7
			c-2.5-0.9-5.4,0.8-5.4,0.8c-0.4,0.3-0.9,0.2-1.3-0.2c-1.2-1.2-2.7-1.9-4.4-2.2c-1.8-0.3-3.7,0.1-5.3,0.9c-0.4,0.2-0.8,0.2-1.2-0.1
			c-1.2-1-2.6-1.7-4.2-1.8h0c-2.4,0-4.6,1-6.3,2.7c-0.4,0.4-1.1,0.4-1.5,0c-0.1-0.1-0.2-0.2-0.3-0.4l-7.1-18.7
			c-2.1-5.4-3.5-6.8-5.8-5.9c-1.2,0.5-1.8,1.3-1.7,2.9c0.2,1.8,0.6,3.5,1.3,5.2L43,88.7c0.1,0.4,0.1,0.7-0.2,1c-0.7,0.8-2,2.8-1.9,4
			c0.1,0.5,0.2,1.1,0.3,1.9c0.5,3.6,1.5,11.1,2.6,13.1c1.7,3.1,4.1,5.8,7.1,7.8c1,0.7,2,1.3,3.1,1.9c1.8,1.1,3.6,2.3,5.9,3.8
			c3.3,2.2,5.8,7.6,5.9,7.8c0.2,0.5,0,1.1-0.5,1.4C65.1,131.4,64.9,131.5,64.8,131.5L64.8,131.5z"/>
	</g>
</g>
</svg>
