<?xml version="1.0" encoding="utf-8"?>
<!-- Generator: Adobe Illustrator 28.1.0, SVG Export Plug-In . SVG Version: 6.00 Build 0)  -->
<svg version="1.1" id="レイヤー_1" xmlns="http://www.w3.org/2000/svg" xmlns:xlink="http://www.w3.org/1999/xlink" x="0px"
	 y="0px" viewBox="0 0 226.9 221.7" style="enable-background:new 0 0 226.9 221.7;" xml:space="preserve">
<style type="text/css">
	.st0{fill:url(#長方形_481_00000006687504798291039290000004865656091345907134_);}
	.st1{enable-background:new    ;}
	.st2{fill:#EF9CBF;}
	.st3{fill:#FFFFFF;}
	.st4{clip-path:url(#SVGID_00000154387362009742169650000014114019805878451105_);}
	.st5{fill:#EF9CBF;stroke:#EF9CBF;stroke-width:0.5;}
</style>
<g id="グループ_3264" transform="translate(-1555.076 -2424.498)">
	<g id="グループ_2906" transform="translate(1553.076 2424.498)">
		
			<linearGradient id="長方形_481_00000030456030734208804480000002450935724370792871_" gradientUnits="userSpaceOnUse" x1="-179.8344" y1="529.954" x2="-181.0924" y2="529.8911" gradientTransform="matrix(210.989 0 0 -210.095 38233.8789 111449.0156)">
			<stop  offset="0" style="stop-color:#FDFCDC"/>
			<stop  offset="1" style="stop-color:#FDC0DA"/>
		</linearGradient>
		<path id="長方形_481" style="fill:url(#長方形_481_00000030456030734208804480000002450935724370792871_);" d="M122.9,11.6
			h0.9c58,0,105,47,105,105l0,0c0,58-47,105-105,105h-0.9c-58,0-105-47-105-105l0,0C17.9,58.7,64.9,11.6,122.9,11.6z"/>
		<g class="st1">
			<path class="st2" d="M4.7,34.3c0-10.7,4.6-17.1,12.5-17.1s12.5,6.4,12.5,17.1c0,10.7-4.6,17.1-12.5,17.1S4.7,45.1,4.7,34.3z
				 M21.9,34.3c0-6.4-1.7-10-4.7-10s-4.7,3.6-4.7,10c0,6.5,1.7,10,4.7,10S21.9,40.8,21.9,34.3z"/>
			<path class="st2" d="M35,45.8l3.1-3c0.3-0.3,0.8-0.4,1.2-0.1c0,0,3.5,2.4,5.8,2.4c2.6,0,4.7-2,4.7-4.7c0-2.6-1.9-4.8-5-4.8h-7.5
				c-1,0-1.5-0.9-1.5-1.7V18.6c0-0.5,0.4-0.9,0.9-0.9h15.8c0.5,0,0.9,0.4,0.9,0.9v4.3c0,0.5-0.4,0.9-0.9,0.9H42.3v5.2h3.5
				c6.8,0,11.2,4.8,11.2,11.2c0,6.1-5.2,11.2-12.1,11.2c-5.1,0-8.5-2.6-9.7-4.1C34.5,46.7,34.4,46.3,35,45.8z"/>
		</g>
		<path id="長方形_543" class="st3" d="M122.9,18.8L122.9,18.8c54.1,0,97.9,43.8,97.9,97.9v0c0,54.1-43.8,97.9-97.9,97.9h0
			c-54.1,0-97.9-43.8-97.9-97.9v0C25,62.6,68.9,18.8,122.9,18.8z"/>
	</g>
	<g id="グループ_2907" transform="translate(1616.787 2480.135)">
		<g id="グループ_640" transform="translate(15.955 0)">
			<g>
				<defs>
					<rect id="SVGID_1_" x="0" y="0" width="106.9" height="112.5"/>
				</defs>
				<clipPath id="SVGID_00000005241478991512136220000010145252915631521470_">
					<use xlink:href="#SVGID_1_"  style="overflow:visible;"/>
				</clipPath>
				
					<g id="グループ_639" transform="translate(0 0)" style="clip-path:url(#SVGID_00000005241478991512136220000010145252915631521470_);">
					<path id="パス_1013" class="st3" d="M69.3,54.7c-0.6-3.6,0-19,0-19l-11.2,9.5L48.8,52v2.7c0,2-0.2,4-0.6,5.9
						c-0.4,1.1-5.3,3.3-7,4.3c-6.9,4-9.3,6.1-9.3,6.1l13.2,13.2l4.8,0.5L84.4,72c0,0-5.9-4.4-11.7-8.6C71,62.3,70.3,60.7,69.3,54.7"
						/>
					<path id="パス_1014" class="st5" d="M50,85.7c-0.5,0-0.9-0.4-0.9-0.9c0-0.4,0.2-0.7,0.6-0.9l32.8-12.3
						c-2.1-1.5-6.3-4.6-10.4-7.6c-2-1.4-2.7-3.2-3.7-9.3C67.9,52,68.2,42,68.3,37.7l-9.7,8.1l0,0l-8.8,6.6v2.3
						c0,2.1-0.2,4.2-0.6,6.2c-0.3,1-1.9,2-5.6,3.8c-0.7,0.4-1.4,0.7-1.8,1c-2.9,1.6-5.7,3.4-8.4,5.4l12.5,12.5
						c0.4,0.4,0.4,0.9,0,1.3s-0.9,0.4-1.3,0L31.3,71.7c-0.4-0.4-0.4-0.9,0-1.3c0,0,0,0,0,0c0.1-0.1,2.5-2.3,9.4-6.2
						c0.5-0.3,1.1-0.6,1.9-1c1.4-0.7,4.3-2.2,4.7-2.8c0.4-1.8,0.6-3.7,0.5-5.6V52c0-0.3,0.1-0.6,0.4-0.7l9.2-6.9L68.7,35
						c0.4-0.3,0.9-0.3,1.3,0.1c0.1,0.2,0.2,0.4,0.2,0.6c0,0.2-0.6,15.4,0,18.8c1,5.9,1.6,7.2,3,8.1c5.8,4.1,11.7,8.5,11.8,8.6
						c0.4,0.3,0.5,0.9,0.2,1.3c-0.1,0.1-0.2,0.3-0.4,0.3L50.3,85.7C50.2,85.7,50.1,85.7,50,85.7 M47.4,60.3L47.4,60.3"/>
					<path id="パス_1015" class="st3" d="M39.1,69.3c0,0,4.6,5,10.4,6.1c5.3,1,21.1-5.1,21.1-5.1l-21.4,44.4H39.1l-5.2-33.3
						L39.1,69.3z"/>
					<path id="パス_1016" class="st5" d="M49.2,115.7H39.1c-0.4,0-0.8-0.3-0.9-0.8L33,81.7c0-0.2,0-0.3,0.1-0.5L38.3,69
						c0.2-0.5,0.7-0.7,1.2-0.5c0.1,0.1,0.2,0.1,0.3,0.2c0,0,4.5,4.8,9.9,5.9c4.1,0.8,16.3-3.3,20.6-5c0.5-0.2,1,0,1.2,0.5
						c0.1,0.2,0.1,0.5,0,0.7L50,115.2C49.8,115.5,49.5,115.7,49.2,115.7 M39.9,113.9h8.7l20.2-41.9c-4.1,1.5-13,4.5-17.9,4.5
						c-0.5,0-1,0-1.6-0.1c-4.5-0.9-8.2-3.9-9.9-5.5l-4.6,10.8L39.9,113.9z"/>
					<path id="パス_1017" class="st3" d="M74.9,63.6v-1.4L70.3,58L54.4,84.5l-10.9,27.1c0,0-4.3-21.8-4.3-27s9.3-26,9.3-26
						l-6.7,3.3l-2.7,2.9l-7.2,4.4c0,0-3.8-0.2-6.3,4.2C22,79.6,18.9,101,18.9,101s-7.4,11.1-5.1,20.8s15.7,5.9,15.7,5.9
						c0.1,2.1,0.3,6.4,0.3,6.4l56.5,11c-1.5-7.4-3.8-14.6-6.8-21.4c-1.3-2.9,8.6-18.6,11.1-31.9S87,70.1,87,70.1L74.9,63.6z"/>
					<path id="パス_1018" class="st5" d="M86.3,146c-0.4,0-0.8-0.3-0.9-0.7c-1.5-7.3-3.8-14.4-6.8-21.3c-0.7-1.7,0.7-4.9,3.6-11.6
						c2.7-6.2,6.1-13.8,7.4-20.8c2.2-11.7-2.5-19.7-3.3-20.9l-11.9-6.4c-0.3-0.2-0.5-0.5-0.5-0.8v-1l-3.5-3.2L55.2,84.9L44.4,112
						c-0.2,0.5-0.7,0.7-1.2,0.5c-0.3-0.1-0.5-0.4-0.6-0.7c-0.2-0.9-4.4-21.9-4.4-27.2c0-4.4,6-18.6,8.4-24.2l-4.4,2.1l-2.6,2.8
						c-0.1,0.1-0.1,0.1-0.2,0.2L32.4,70c-0.2,0.1-0.3,0.1-0.5,0.1c-0.1,0-3.3-0.1-5.5,3.8c-3.4,5.9-6.5,27.1-6.6,27.3
						c0,0.1-0.1,0.3-0.1,0.4c-0.1,0.1-7.2,10.9-5,20.1c0.4,1.9,1.6,3.6,3.3,4.6c4.4,2.5,11.2,0.6,11.3,0.6c0.5-0.1,1,0.1,1.1,0.6
						c0,0.1,0,0.1,0,0.2c0.1,2.1,0.3,6.3,0.3,6.5c0,0.5-0.4,0.9-0.9,0.9s-0.9-0.4-0.9-0.9c0,0-0.1-3.1-0.2-5.3
						c-2.3,0.5-7.7,1.3-11.6-1c-2.1-1.2-3.6-3.3-4.1-5.8c-2.2-9.4,4.1-19.8,5.1-21.3c0.3-2.3,3.3-21.8,6.8-27.8
						c2.4-4.1,5.8-4.6,6.9-4.7l6.9-4.2l2.6-2.8c0.1-0.1,0.2-0.2,0.3-0.2l6.7-3.3c0.4-0.2,1,0,1.2,0.4c0.1,0.2,0.1,0.5,0,0.8
						c-3.2,7.1-9.3,21.7-9.3,25.7c0,4,2.6,17.7,3.7,23.8l9.7-24.3c0,0,0-0.1,0.1-0.1l15.9-26.6c0.3-0.4,0.8-0.6,1.2-0.3
						c0.1,0,0.1,0.1,0.2,0.1l4.6,4.2c0.2,0.2,0.3,0.4,0.3,0.7V63l11.6,6.3c0.1,0.1,0.2,0.2,0.3,0.3C88,69.9,94,78.5,91.4,92
						c-1.4,7.2-4.8,15-7.5,21.2c-1.9,4.3-4,9.2-3.6,10.2c3,6.9,5.3,14.2,6.9,21.6c0.1,0.5-0.2,1-0.7,1.1C86.4,146,86.3,146,86.3,146
						"/>
					<path id="パス_1019" class="st5" d="M34.4,90.2c-0.4,0-0.8-0.3-0.9-0.8l-2.1-13c-0.1-0.3,0.1-0.7,0.3-0.9l4.1-3.2L34,70.8
						c-0.4-0.3-0.4-0.9-0.1-1.3l4.6-5.4c0.3-0.4,0.9-0.4,1.3-0.1s0.4,0.9,0.1,1.3l-4,4.7l2.1,1.8c0.4,0.3,0.4,0.9,0.1,1.3
						c0,0-0.1,0.1-0.1,0.1l-4.6,3.5l2,12.4c0.1,0.5-0.3,1-0.7,1c0,0,0,0,0,0C34.5,90.2,34.4,90.3,34.4,90.2"/>
					<path id="パス_1020" class="st5" d="M61.6,92.4c-0.5,0-0.9-0.4-0.9-0.9c0-0.2,0.1-0.4,0.2-0.6L70,78.8L66.5,75
						c-0.3-0.4-0.3-0.9,0-1.3c0.1-0.1,0.2-0.2,0.3-0.2l6.6-2.2l0.2-4c0-0.5,0.5-0.9,1-0.9c0.5,0,0.9,0.5,0.8,1L75.3,72
						c0,0.4-0.3,0.7-0.6,0.8l-5.8,2l3.1,3.3c0.3,0.3,0.3,0.8,0.1,1.2L62.3,92C62.2,92.2,61.9,92.4,61.6,92.4"/>
					<path id="パス_1021" class="st5" d="M29.4,121.5c-0.5,0-0.8-0.3-0.9-0.8c0-0.2-1.9-16.2-2.2-21.8c-0.4-6.3,1.6-17.1,1.7-17.5
						c0.1-0.5,0.6-0.8,1.1-0.7c0.5,0.1,0.8,0.6,0.7,1.1c0,0.1-2,11-1.7,17.1c0.3,5.6,2.2,21.6,2.2,21.7c0.1,0.5-0.3,0.9-0.8,1
						c0,0,0,0,0,0C29.5,121.5,29.4,121.5,29.4,121.5"/>
					<path id="パス_1025" class="st5" d="M61.1,138.2c0,0-0.7-2.8-6-4.2s-7.5-1.5-9.2-2.1c-2.2-0.8-4.2-1.3-5.1-0.6
						c-1,0.8-1.1,3.2,2.3,4.2c1.4,0.4,2.8,0.8,4.2,1c0.3,0.6,0.4,1.3,0.2,2c-0.3,1.3-2.3,2.2-2.3,2.2s-5.8-2.2-6.2,0.6
						s2.7,4.1,4.3,4.9s1.4,4.2,2.7,4.6c0.7,0.2,1.4,0.3,2.1,0.3c0,0-0.2,1,1,1.5c0.6,0.3,1.3,0.3,1.9-0.1c0,0,0.3,1.2,2.2,1.3
						c3.5,0.1,6.9-0.8,9.9-2.6c3.3-1.9,16.8-5.3,16.8-5.3L77,135.4L61.1,138.2z"/>
					<path id="パス_1026" class="st5" d="M80.7,145.7c-0.1-0.5-0.6-0.8-1.1-0.7c0,0,0,0,0,0c-0.6,0.1-13.6,3.5-17,5.4
						c-2.9,1.7-6.1,2.5-9.4,2.4c-1,0-1.2-0.5-1.3-0.6c0-0.3-0.3-0.6-0.6-0.7c-0.3-0.1-0.7,0-0.9,0.2c-0.3,0.1-0.6,0.1-0.9-0.1
						c-0.4-0.2-0.4-0.3-0.4-0.4c0.1-0.3,0-0.6-0.2-0.8c-0.2-0.2-0.5-0.3-0.8-0.3c-0.6,0-1.2-0.1-1.8-0.2c-0.2-0.1-0.5-1-0.7-1.5
						c-0.2-1.2-0.9-2.3-1.9-3c-0.2-0.1-0.3-0.2-0.5-0.3c-1.9-1-3.5-2-3.3-3.7c0-0.2,0.1-0.3,0.3-0.4c0.9-0.5,3.3,0,4.7,0.5
						c0.2,0.1,0.5,0.1,0.7,0c0.2-0.1,2.4-1.1,2.8-2.8c0.3-0.9,0.2-1.8-0.3-2.7c-0.1-0.2-0.4-0.4-0.6-0.4c-1.4-0.2-2.7-0.5-4.1-0.9
						c-1.3-0.4-2.2-1.1-2.3-1.9c-0.1-0.3,0-0.6,0.2-0.8c0.5-0.4,1.9-0.1,4.3,0.7c1,0.3,2,0.5,3,0.7c1.4,0.3,3.4,0.6,6.2,1.4
						c1.8,0.4,3.4,1.2,4.7,2.5c-0.4,0-0.7-0.1-1.1-0.2c-0.5-0.2-1,0-1.2,0.4c-0.2,0.5,0,1,0.4,1.2l0,0c0.6,0.3,1.3,0.4,2,0.4
						c0.5,0,1-0.1,1.5-0.2l15.9-2.8c0.5-0.1,0.8-0.6,0.7-1c-0.1-0.5-0.6-0.8-1-0.7l-15.2,2.6c-0.6-1.1-2.2-3-6.3-4
						c-2.9-0.8-4.9-1.1-6.4-1.4c-0.9-0.1-1.8-0.4-2.7-0.6c-2.7-0.9-4.7-1.4-6-0.4c-0.8,0.6-1.1,1.6-0.9,2.5c0.1,0.7,0.7,2.4,3.6,3.3
						c1.3,0.4,2.5,0.7,3.8,0.9c0,0.3,0,0.7-0.1,1c-0.1,0.5-0.9,1-1.5,1.4c-1.2-0.4-4.2-1.3-5.9-0.3c-0.6,0.4-1.1,1-1.1,1.7
						c-0.5,3.1,2.6,4.7,4.2,5.6c0.2,0.1,0.3,0.2,0.5,0.3c0.5,0.3,0.8,1.2,1,2c0.4,1.2,0.8,2.4,1.9,2.7c0.5,0.1,1,0.2,1.6,0.3
						c0.3,0.7,0.8,1.2,1.4,1.4c0.6,0.3,1.2,0.3,1.8,0.2c0.6,0.7,1.6,1.1,2.5,1.1c0.1,0,0.3,0,0.4,0c3.5,0,6.9-0.9,9.9-2.7
						c3.2-1.8,16.4-5.2,16.6-5.2C80.5,146.7,80.8,146.2,80.7,145.7C80.7,145.7,80.7,145.7,80.7,145.7"/>
					<path id="パス_1027" class="st3" d="M83.6,68.3l-4.9,28.8l6.6,19.2c-0.5,0.7-0.9,1.4-1.2,2.2c-0.2,0.9,0.9,2.6,0.9,2.6
						s-12.3,10.3-21.7,14.9c0.9,6.4,4.3,12.2,9.4,16.2c0,0,23.8-15.4,27.3-17.7c5-3.4,5.9-5.8,5.9-8.8S93.3,77.8,91.1,73.4
						C89.5,70.1,83.6,68.3,83.6,68.3"/>
					<path id="パス_1028" class="st5" d="M72.9,153c-0.2,0-0.4-0.1-0.5-0.2c-5.4-4.1-8.9-10.1-9.8-16.8c-0.1-0.4,0.1-0.8,0.5-1
						c8-3.9,18.4-12.2,20.9-14.3c-0.5-0.8-0.7-1.7-0.6-2.6c0.2-0.8,0.6-1.5,1.1-2.2l-6.5-18.7c-0.2-0.5,0.1-1,0.6-1.1s1,0.1,1.1,0.6
						l0,0l6.6,19.2c0.1,0.3,0,0.6-0.1,0.8c-0.4,0.6-0.8,1.2-1,1.9c0.1,0.7,0.4,1.3,0.8,1.9c0.3,0.4,0.2,0.9-0.2,1.2
						c-0.5,0.4-12,10-21.3,14.7c1,5.7,4,10.9,8.5,14.6c3.5-2.3,23.6-15.3,26.7-17.4c5.1-3.5,5.5-5.7,5.5-8.1c0-1-2.3-10.1-6.6-25.3
						c-3.9-13.7-7.3-24.6-8.2-26.4c-1.2-2.4-5.4-4.2-7-4.7c-0.5-0.2-0.7-0.7-0.6-1.1s0.7-0.7,1.1-0.6c0.3,0.1,6.3,2,8,5.6
						c2.1,4.3,15,49.5,15,52.5c0,3.3-1,5.9-6.3,9.5c-3.4,2.4-27,17.6-27.3,17.8C73.2,152.9,73,153,72.9,153"/>
					<path id="パス_1029" class="st5" d="M96.5,125.4c-0.3,0-0.5-0.1-0.7-0.3c-2.1-2-4.8-3.3-7.7-3.7c-0.5-0.1-0.8-0.5-0.8-1
						c0.1-0.5,0.5-0.8,1-0.8l0,0c3.3,0.4,6.5,1.9,8.8,4.3c0.3,0.4,0.3,0.9-0.1,1.3C96.9,125.4,96.7,125.4,96.5,125.4"/>
					<path id="パス_1030" class="st3" d="M21.3,48.6c-0.6-0.4-1.3-0.4-1.9,0c-2,1.3-2.6,4.8-3.1,7.1c-0.4,2.2-0.7,4.4-0.9,6.6
						c-0.8-0.1-1.5-0.3-2.2-0.7c-1.1-0.6-1.7-1.2-2.9-1c-0.5,0-1,0.4-1.1,0.9l0,0c-0.8,0.2-1.4,0.7-1.6,1.5c-1.8-0.4-2.9,0.1-3.5,1
						c-0.1,0.3-0.2,0.6-0.3,0.9c-0.7,0-1.3,0.4-1.7,0.9c-1,1.3-1.2,2.9-0.4,5.4c0.2,0.8,0.6,1.5,1.2,2.1l0,0c-1,2.2-1.7,4.5-2.1,6.9
						c-0.3,2.6,0.6,5.2,2.4,7.1l2.6,10.6l11.6-5.4l-2.4-9.1c0,0,2-5.4,3.4-8.5c1.2-3.1,1.7-6.5,1.3-9.8c0-2.9,0.2-5.9,0.6-8.8
						c0.4-2,1.2-4.4,1.4-5.5C22.2,50,21.9,49.1,21.3,48.6"/>
					<path id="パス_1031" class="st5" d="M21.8,47.8c-0.9-0.6-2-0.6-2.8,0c-2.1,1.3-2.8,4.4-3.3,6.7c-0.1,0.3-0.1,0.6-0.2,0.9
						c-0.4,1.8-0.6,3.7-0.8,5.6l0,0.2c-0.3-0.1-0.6-0.2-0.9-0.4c-0.2-0.1-0.5-0.3-0.7-0.4c-0.8-0.6-1.8-0.9-2.8-0.7
						c-0.7,0.1-1.3,0.5-1.6,1.1C8,61,7.5,61.4,7.1,62c-1.5-0.3-2.9,0.3-3.7,1.6c-0.1,0.2-0.2,0.4-0.2,0.6c-0.6,0.2-1.2,0.6-1.6,1.1
						c-1.2,1.5-1.4,3.4-0.6,6.2c0.2,0.7,0.6,1.4,1,2C1,75.5,0.4,77.8,0,80.1c-0.3,2.8,0.6,5.6,2.5,7.7L5,98.1
						c0.1,0.5,0.6,0.8,1.1,0.7s0.8-0.6,0.7-1.1l0,0L4.2,87.1c0-0.2-0.1-0.3-0.3-0.4c-1.6-1.7-2.4-4.1-2.1-6.4
						c0.3-1.9,0.8-3.7,1.5-5.5c0.4,0.3,0.9,0.5,1.4,0.5c0.2,0,0.3,0,0.5-0.1c0.2-0.1,0.5-0.2,0.6-0.4c0.3,0.2,0.6,0.4,0.9,0.4
						C6.2,76.7,5.9,78.4,6,80c0,0.5,0.4,0.8,0.9,0.8H7c0.5,0,0.9-0.5,0.8-1c0,0,0,0,0,0c-0.1-1.4,0.1-2.8,0.7-4.1c0,0,0,0,0,0
						c0.4-0.9,1-1.8,1.6-2.5l0.2-0.3l0,0c0.6-0.8,1.1-1.4,1.5-1.8l0,0c0.4-0.4,0.7-0.7,0.7-0.7c0.1-0.1,0.2-0.3,0.3-0.5l0.4-3.6
						c0-0.4-0.2-0.7-0.5-0.9c-0.3-0.2-0.6-0.3-0.8-0.5c-0.6-0.4-1.1-1-1.5-1.6c-0.2-0.4-0.3-0.9-0.3-1.4c0,0,0,0,0,0
						c0-0.1,0-0.2,0.3-0.2c0.6-0.1,0.9,0.1,1.6,0.5c0.2,0.1,0.5,0.3,0.8,0.5c0.8,0.4,1.6,0.6,2.4,0.8c0.1,0,0.2,0,0.3,0.1
						c0.4,0.1,0.4,1.2,0.4,2.1c0,0.4,0,0.9,0,1.3c0.2,0.9,0.4,1.7,0.7,2.5c0.1,0.5,0.7,0.7,1.1,0.6c0.5-0.1,0.7-0.7,0.6-1.1
						c-0.3-0.8-0.6-1.9-0.6-2.1c0-0.4,0-0.8,0-1.2c0-1.4,0.1-3.1-1.3-3.8c0-0.2,0-0.3,0-0.5c0.1-1.8,0.4-3.6,0.7-5.3
						c0.1-0.3,0.1-0.6,0.2-0.9c0.5-2,1.1-4.7,2.5-5.6c0.4-0.3,0.6-0.2,0.9-0.1c0.4,0.2,0.3,0.9,0.2,1.3c-0.1,0.5-0.3,1.2-0.5,2
						c-0.3,1.1-0.6,2.4-0.9,3.5c-0.4,3-0.6,6-0.6,9c0,0,0,0.1,0,0.1c0,0.1,0.6,5.2-1.3,9.3c-1.4,3.1-3.4,8.4-3.5,8.6
						c-0.1,0.2-0.1,0.4,0,0.5l2.4,9.1c0.1,0.5,0.6,0.8,1.1,0.6c0.5-0.1,0.8-0.6,0.6-1.1L16,83.5c0.4-1.1,2.1-5.5,3.3-8.2
						c1.3-3.3,1.8-6.8,1.4-10.3c0-2.9,0.2-5.7,0.6-8.5c0.2-1.1,0.6-2.3,0.9-3.4c0.2-0.9,0.4-1.6,0.5-2.1
						C23.1,49.8,22.8,48.6,21.8,47.8 M6.5,63.8C6.5,63.8,6.5,63.8,6.5,63.8c-0.2,1.5-0.2,5.4,0.8,7.5c0.1,0.3,0.3,0.5,0.4,0.7
						c0,1.2-0.3,1.3-0.5,1.4c-0.3,0.1-0.7-0.5-0.8-0.7c-0.2-0.3-0.3-0.6-0.4-0.9c-0.9-2.1-1.3-4.4-1.2-6.7c0-0.2,0.1-0.4,0.2-0.5
						C5.3,63.9,5.9,63.7,6.5,63.8 M3.7,72.7L3.7,72.7c-0.5-0.5-0.8-1.1-1-1.8c-0.8-2.7-0.4-3.8,0.2-4.5l0,0c0.1,2.1,0.6,4.2,1.3,6.1
						c0.1,0.3,0.3,0.6,0.4,0.8c0,0,0,0.1-0.1,0.1C4.3,73.2,3.9,73,3.7,72.7 M10.8,66.2c0.2,0.1,0.4,0.3,0.5,0.4l-0.3,2.7
						c-0.1,0.1-0.3,0.3-0.5,0.6l0,0c-0.3,0.3-0.7,0.8-1.1,1.3c0,0,0,0-0.1-0.1c-0.1-0.2-0.3-0.4-0.4-0.6c-0.8-1.7-0.8-5.1-0.7-6.5
						c0-0.2,0.1-0.5,0.2-0.7l0,0c0-0.1,0-0.1,0.1-0.1c0.1,0.2,0.1,0.4,0.2,0.6C9.2,64.8,9.9,65.6,10.8,66.2"/>
					<path id="パス_1035" class="st3" d="M17.8,88.4L2.1,93.8c0,0,2.8,10.1,5.5,19.5c2.2,7.7,4,13.7,6.6,16.1
						c7.2,7,15.3-1.8,15.3-1.8l-6.2-21.8L17.8,88.4z"/>
					<path id="パス_1036" class="st5" d="M20.3,133.1c-2.6,0-5-1.1-6.8-2.9c-2.8-2.7-4.6-8.8-6.8-16.5c-2.6-9.3-5.4-19.4-5.5-19.5
						c-0.1-0.5,0.1-0.9,0.6-1.1l15.7-5.5c0.5-0.2,1,0.1,1.1,0.5c0,0,0,0,0,0l5.4,17.5c0.1,0.5-0.1,1-0.6,1.1s-1-0.1-1.1-0.6l0,0
						l-5.1-16.6l-14,4.9c0.7,2.6,3,10.9,5.2,18.7c2,7.2,3.9,13.4,6.3,15.7c1.5,1.6,3.5,2.4,5.7,2.4c4.5-0.1,8.3-4.1,8.3-4.2
						c0.3-0.4,0.9-0.4,1.3,0s0.4,0.9,0,1.3l0,0c-0.2,0.2-4.4,4.6-9.6,4.8C20.5,133.1,20.4,133.1,20.3,133.1"/>
					<path id="パス_1038" class="st5" d="M32.3,25.4c0.6-6.9,3.6-13.3,8.5-18.1c4.3-4.1,9.8-6.7,15.8-7.2
						c6.3-0.3,9.5,1.9,10.6,3.5c2.6,0.1,6.3,1.5,9.7,7.4c4.9,8.4,6.7,22.6,5.4,30.5c-2,12.3-10.6,13.8-12.3,14c-0.7,0.1-1.3,0.1-2,0
						c-1.1-0.1-2.1-0.4-3-0.8l0,0c-0.8-0.4-1.6-0.9-2.3-1.5c-0.3-0.4-0.3-0.9,0-1.3c0.1-0.1,0.3-0.2,0.4-0.2
						c1.6-0.6,2.9-1.7,3.7-3.3c0.8-1.8,1.4-3.6,1.7-5.6c0.6,0,1.2,0,1.9-0.1c-0.3,2.3-1,4.5-2,6.5c-0.8,1.4-1.9,2.6-3.3,3.5
						c0.1,0.1,0.3,0.2,0.4,0.2c4,0.8,6.6-4,6.6-4.1c0.2-0.4,0.8-0.6,1.2-0.4c0.4,0.2,0.6,0.8,0.4,1.2c-0.8,1.5-2,2.8-3.4,3.8
						c2.3-0.4,8.5-2.4,10.1-12.4c1.2-7.5-0.6-21.3-5.2-29.3c-3.2-5.5-6.4-6.6-8.6-6.5c-0.7,0.1-1.3,0.5-1.7,1
						c-0.3,0.4-0.9,0.5-1.3,0.2c-0.4-0.3-0.5-0.9-0.2-1.3l0,0c0.4-0.5,1-1,1.6-1.3c-1.1-1-3.7-2.4-8.5-2.1
						c-5.5,0.5-10.6,2.9-14.6,6.7c-4.6,4.6-7.4,10.6-8,17c0,0.1,0,0.1,0,0.2c0,0.1-2.7,14.2-0.7,19.2c1.2,3,3.8,5.3,7,6
						c0.4,0.9,1.3,1.3,1.8,2c-0.3,0.1-0.6,0.1-0.9,0.1c-4.3-0.4-8.1-3.2-9.7-7.3C29.6,40.2,32.1,26.6,32.3,25.4"/>
					<path id="パス_1039" class="st3" d="M62.8,22.9c-1.9-4.6-1.6-11.7-1.6-11.7s-2-2-6.1,0.3c-4.7,2.6-4,3.8-8.8,7.3
						c-4.8,3.4-8.9,4.5-9.7,5.4c-0.7,1.1-1,2.4-1,3.8c0.2,2.9,0.3,5.9,0,8.9c-0.8,9.1,6.9,18.1,11,18.5C53.7,56,62.6,49,62.6,49
						l7.8-9.7l0.5-6c0,0,0.1-1.1,0.2-2.8l-2.2,0.8C68.9,31.2,66,30.7,62.8,22.9"/>
					<path id="パス_1040" class="st5" d="M70.4,40.1C70.3,40.1,70.3,40.1,70.4,40.1c-0.6,0-0.9-0.5-0.9-1c0,0,0,0,0,0l0.5-6
						c0,0,0-0.5,0.1-1.4L69.2,32c-0.1,0-0.3,0.1-0.4,0c-0.4-0.1-3.5-0.8-6.8-8.8c-1.9-4.7-1.7-11.8-1.7-12.1c0-0.5,0.4-0.9,0.9-0.9
						c0.5,0,0.9,0.4,0.9,0.9c0,0.1-0.2,7,1.5,11.3c2.4,6,4.7,7.4,5.3,7.7l1.9-0.7c0.5-0.2,1,0.1,1.2,0.5c0,0.1,0.1,0.3,0,0.4
						c-0.1,1.7-0.2,2.8-0.2,2.8l-0.5,6C71.2,39.8,70.8,40.1,70.4,40.1 M69.1,30.3L69.1,30.3z"/>
					<path id="パス_1041" class="st5" d="M47.7,56.3c-0.4,0-0.7,0-1.1-0.1c-4.9-0.5-12.6-10.3-11.8-19.5c0.2-2.3,0.2-4.6,0-6.9
						c0-0.6-0.1-1.3-0.1-1.8c0-0.1,0-2.9,1.2-4.4c0.8-0.7,1.7-1.2,2.7-1.6c2.5-1.1,4.9-2.4,7.1-4c1.5-1,2.8-2.2,4-3.6
						c1.4-1.6,3-2.8,4.8-3.8c0.9-0.5,1.9-0.9,2.9-1.1c0.5-0.1,1,0.2,1.1,0.7c0.1,0.5-0.2,1-0.7,1.1l0,0c-0.8,0.2-1.6,0.5-2.3,0.9
						c-1.7,0.9-3.2,2-4.4,3.5c-1.3,1.4-2.7,2.7-4.3,3.8c-2.3,1.6-4.8,3-7.4,4.2c-0.7,0.3-1.4,0.7-2.1,1.1c-0.5,1-0.8,2.1-0.8,3.2
						c0,0.5,0,1.1,0.1,1.7c0.2,2.4,0.2,4.8,0,7.2c-0.7,8.5,6.6,17.2,10.2,17.6c6.5,0.6,15.1-6.1,15.2-6.2c0.4-0.3,1-0.2,1.3,0.1
						c0.3,0.4,0.2,1-0.1,1.3C62.8,49.9,54.7,56.3,47.7,56.3"/>
					<path id="パス_1042" class="st3" d="M69.8,30.1c1.5-1.3,7.1-1.4,6.5,5.4c-0.4,4.4-5.1,8.1-9,6.7l1-9.9
						C68.6,31.5,69.1,30.7,69.8,30.1"/>
					<path id="パス_1043" class="st5" d="M68.5,43.5c-0.5,0-1-0.1-1.5-0.3c-0.5-0.2-0.7-0.7-0.6-1.1c0.2-0.5,0.7-0.7,1.2-0.6
						c1.5,0.5,3.2,0.2,4.5-0.7c1.8-1.1,3-3.1,3.3-5.2c0.2-2.4-0.4-4.1-1.8-4.8c-1-0.5-2.3-0.5-3.3,0.1c-0.6,0.5-1,1.1-1.2,1.8
						c-0.1,0.5-0.6,0.8-1.1,0.6c-0.5-0.1-0.8-0.6-0.6-1.1c0.3-1,1-2,1.8-2.7c1.6-1.1,3.6-1.2,5.3-0.3c1.2,0.6,3.1,2.3,2.7,6.5
						c-0.3,2.7-1.8,5.1-4.1,6.6C71.8,43.1,70.1,43.6,68.5,43.5"/>
				</g>
			</g>
		</g>
		<path id="パス_1044" class="st2" d="M21.9,7.6c15.6,0,21.9,8.3,21.9,18.6S36,44.7,21.9,44.8S0,36.4,0,26.2S6.3,7.6,21.9,7.6z"/>
		<g class="st1">
			<path class="st3" d="M9.5,22.3c0-0.1,0.1-0.1,0.1-0.1h1.7c0.9,0,1.6,0.7,1.6,1.5c0,0.9-0.7,1.6-1.6,1.6h-0.7V27
				c0,0.1-0.1,0.1-0.1,0.1H9.6c-0.1,0-0.1-0.1-0.1-0.1V22.3z M11.2,24.3c0.3,0,0.6-0.2,0.6-0.6c0-0.3-0.3-0.5-0.6-0.5h-0.7v1.1H11.2
				z"/>
			<path class="st3" d="M16.5,22.1c1.4,0,2.5,1.1,2.5,2.5s-1.1,2.5-2.5,2.5c-1.4,0-2.5-1.1-2.5-2.5S15.1,22.1,16.5,22.1z M16.5,26.1
				c0.8,0,1.4-0.6,1.4-1.4c0-0.8-0.6-1.4-1.4-1.4c-0.8,0-1.4,0.6-1.4,1.4C15.1,25.4,15.7,26.1,16.5,26.1z"/>
			<path class="st3" d="M20.5,22.3c0-0.1,0.1-0.1,0.1-0.1h0.8c0.1,0,0.1,0.1,0.1,0.1V27c0,0.1-0.1,0.1-0.1,0.1h-0.8
				c-0.1,0-0.1-0.1-0.1-0.1V22.3z"/>
			<path class="st3" d="M23.5,22.3c0-0.1,0.1-0.1,0.1-0.1h0.2l2.8,2.7h0v-2.5c0-0.1,0.1-0.1,0.1-0.1h0.8c0.1,0,0.1,0.1,0.1,0.1v4.7
				c0,0.1-0.1,0.1-0.1,0.1h-0.1c0,0-0.1,0-0.1,0l-2.8-2.8h0V27c0,0.1-0.1,0.1-0.1,0.1h-0.8c-0.1,0-0.1-0.1-0.1-0.1L23.5,22.3z"/>
			<path class="st3" d="M30.3,23.2h-1c-0.1,0-0.1-0.1-0.1-0.1v-0.8c0-0.1,0.1-0.1,0.1-0.1h3.1c0.1,0,0.1,0.1,0.1,0.1v0.8
				c0,0.1-0.1,0.1-0.1,0.1h-1V27c0,0.1-0.1,0.1-0.1,0.1h-0.8c-0.1,0-0.1-0.1-0.1-0.1V23.2z"/>
		</g>
		<path id="多角形_56" class="st2" d="M26,48.4l-12.4-4.8l10.3-8.3L26,48.4z"/>
	</g>
</g>
</svg>
