<svg xmlns="http://www.w3.org/2000/svg" xmlns:xlink="http://www.w3.org/1999/xlink" width="34" height="34" viewBox="0 0 34 34">
  <defs>
    <linearGradient id="linear-gradient" x1="0.173" y1="0.247" x2="1" y2="1" gradientUnits="objectBoundingBox">
      <stop offset="0" stop-color="#fdf5e0"/>
      <stop offset="0.644" stop-color="#ef9cbf"/>
      <stop offset="1" stop-color="#eb8bb4"/>
    </linearGradient>
  </defs>
  <g id="グループ_3291" data-name="グループ 3291" transform="translate(-887 -4996.604)">
    <circle id="楕円形_132" data-name="楕円形 132" cx="17" cy="17" r="17" transform="translate(887 4996.604)" opacity="0.502" fill="url(#linear-gradient)"/>
    <path id="パス_2113" data-name="パス 2113" d="M10.8,15.231c0,.8.6.991,1.508,1.194.172.038.336.075.482.119.171.051.344.1.518.16a.307.307,0,0,1,.036-.073,1.975,1.975,0,0,0,.416-1.259,3.279,3.279,0,0,0-.139-.609l-.043-.15a8.823,8.823,0,0,1-.3-3.161,6.016,6.016,0,0,1-2.48,2.683v1.1Zm-4.054,0a1.461,1.461,0,0,1-.565,1.235l2.486,3.22,2.37-3.07a1.471,1.471,0,0,1-.791-1.384v-1.1a.291.291,0,0,1,.012-.081.3.3,0,0,1,.143-.358,5.631,5.631,0,0,0,2.761-3.463.278.278,0,0,1,.35-.191.268.268,0,0,1,.063.034h.008l.162,0a.913.913,0,0,0,.776-.988.875.875,0,0,0-.773-.956.3.3,0,0,1-.07-.009l-.385-.1a.368.368,0,0,1-.049-.019,3.753,3.753,0,0,1-2.42-2.978,1.655,1.655,0,0,0-.089-.238,1.4,1.4,0,0,0-.972-.847c-2.08-.358-3.588,2.307-4.69,4.251A6.688,6.688,0,0,1,3.7,10.149l0,.01a5.859,5.859,0,0,0,2.881,3.558.3.3,0,0,1,.152.34.316.316,0,0,1,.01.072v1.1Zm-4.573-4.7a2.563,2.563,0,0,0,.148,1.983,2.376,2.376,0,0,1,.228,2.656c-.158.3-.615,1.33.016,1.95a13.237,13.237,0,0,1,1.636-.58c.146-.044.31-.081.482-.119.911-.2,1.508-.4,1.508-1.194V14.166A6.4,6.4,0,0,1,3.18,10.341a.321.321,0,0,1-.012-.1c-.02-.007-.039-.015-.059-.024a.3.3,0,0,1-.166-.3.321.321,0,0,1,.022-.087.272.272,0,0,1,.366-.152c.2.088.9-1.143,1.271-1.805C5.787,5.785,7.412,2.925,9.857,3.347a1.956,1.956,0,0,1,1.382,1.17,2.265,2.265,0,0,1,.12.323,3.193,3.193,0,0,0,2.1,2.607l.329.09a1.176,1.176,0,0,1,.563.168,6.775,6.775,0,0,0-.612-3.941A5.939,5.939,0,0,0,8.614.588,5.815,5.815,0,0,0,4.057,2.907l-.146.185A5.972,5.972,0,0,0,2.256,6.452a11.648,11.648,0,0,0,.027,1.571,13.063,13.063,0,0,1,.035,1.512c-.005.1-.015.2-.026.3-.029.242-.072.475-.115.7Zm-.11,4.356a1.792,1.792,0,0,0-.21-2.057,3.123,3.123,0,0,1-.224-2.414A7.1,7.1,0,0,0,1.765,9.5,12.486,12.486,0,0,0,1.73,8.063,12.158,12.158,0,0,1,1.7,6.407,6.519,6.519,0,0,1,3.486,2.714l.145-.184A6.357,6.357,0,0,1,8.614,0a6.483,6.483,0,0,1,5.6,3.461,7.748,7.748,0,0,1,.643,4.759s0,0,0,.006a1.708,1.708,0,0,1,.222.853,1.523,1.523,0,0,1-1.106,1.552,8.062,8.062,0,0,0,.139,3.813l.041.143a3.746,3.746,0,0,1,.162.726,2.535,2.535,0,0,1-.462,1.576,6.939,6.939,0,0,1,1.821.957A3.86,3.86,0,0,1,17,21.206v.485a.278.278,0,1,1-.555,0v-.485a3.319,3.319,0,0,0-1.091-2.881,8.32,8.32,0,0,0-2.71-1.217c-.134-.039-.286-.073-.446-.109-.19-.043-.4-.091-.617-.158l-2.7,3.492a.266.266,0,0,1-.429,0l-2.77-3.588A5.43,5.43,0,0,1,4.8,17c-.16.036-.312.069-.446.109a8.31,8.31,0,0,0-2.71,1.217A3.32,3.32,0,0,0,.555,21.206v.485a.286.286,0,0,1-.278.293A.285.285,0,0,1,0,21.691v-.485a3.86,3.86,0,0,1,1.325-3.36,5.842,5.842,0,0,1,.718-.462,2.359,2.359,0,0,1,.024-2.494Z" transform="translate(895.473 5001.604)" fill="#fff" stroke="#fff" stroke-width="0.8"/>
  </g>
</svg>
