<?xml version="1.0" encoding="utf-8"?>
<!-- Generator: Adobe Illustrator 28.1.0, SVG Export Plug-In . SVG Version: 6.00 Build 0)  -->
<svg version="1.1" id="レイヤー_1" xmlns="http://www.w3.org/2000/svg" xmlns:xlink="http://www.w3.org/1999/xlink" x="0px"
	 y="0px" viewBox="0 0 227.1 222.6" style="enable-background:new 0 0 227.1 222.6;" xml:space="preserve">
<style type="text/css">
	.st0{fill:url(#長方形_481_00000094600948466219410960000004395125589375989915_);}
	.st1{enable-background:new    ;}
	.st2{fill:#EF9CBF;}
	.st3{fill:#FFFFFF;}
	.st4{clip-path:url(#SVGID_00000067205561816242428510000014752947648293184956_);}
	.st5{fill:none;}
	.st6{fill:none;stroke:#FFFFFF;}
	.st7{clip-path:url(#SVGID_00000109001150217119973300000014284110450165171645_);}
	.st8{clip-path:url(#SVGID_00000118396092719841145060000014587732946629527990_);}
	.st9{clip-path:url(#SVGID_00000089533565397468262920000000674221429058451375_);}
	.st10{clip-path:url(#SVGID_00000096030642457659137220000009730205236645863311_);}
	.st11{clip-path:url(#SVGID_00000002374953642254377160000010414597374298252702_);}
	.st12{clip-path:url(#SVGID_00000159459696706047090440000003430063890520346031_);}
	.st13{clip-path:url(#SVGID_00000116202671430956955370000013985216548841470105_);}
	.st14{clip-path:url(#SVGID_00000000188263276873510090000002499570281242915213_);}
	.st15{clip-path:url(#SVGID_00000021086913330862918890000005890290737913225654_);}
	.st16{clip-path:url(#SVGID_00000008144421887150546180000017636048120673035953_);}
	.st17{clip-path:url(#SVGID_00000047741151937773544470000001924337013501806749_);}
	.st18{clip-path:url(#SVGID_00000052073827685970279220000001088778401434608285_);}
	.st19{clip-path:url(#SVGID_00000079448772855087770950000006788050091272503710_);}
	.st20{clip-path:url(#SVGID_00000095326385832597567020000007027161271990057140_);}
	.st21{clip-path:url(#SVGID_00000139272425762109168940000014737733593238535595_);}
	.st22{clip-path:url(#SVGID_00000063609244225736613480000006929228837416650379_);}
	.st23{clip-path:url(#SVGID_00000003079030632753497080000014220409258312450192_);}
	.st24{clip-path:url(#SVGID_00000053537668215330580690000001036958971129018532_);}
	.st25{clip-path:url(#SVGID_00000023986625791772540280000000724226203860174727_);}
	.st26{clip-path:url(#SVGID_00000145032060326271929810000006718378683304863409_);}
	.st27{clip-path:url(#SVGID_00000110453079969000344530000011628308728395706255_);}
	.st28{clip-path:url(#SVGID_00000054258852357627678560000005917120861051874452_);}
	.st29{clip-path:url(#SVGID_00000026159876278673798360000015410083592065992358_);}
	.st30{clip-path:url(#SVGID_00000064327804948149252970000004158691065930830500_);}
	.st31{clip-path:url(#SVGID_00000168833424161496150370000009178929592395140029_);}
	.st32{clip-path:url(#SVGID_00000045619589459183054990000005366506164692593302_);}
	.st33{clip-path:url(#SVGID_00000117664943553813808300000003608214018732471718_);}
	.st34{clip-path:url(#SVGID_00000111883709935868071130000002662737522770932125_);}
	.st35{clip-path:url(#SVGID_00000017504843812383045540000010247806271391260332_);}
	.st36{clip-path:url(#SVGID_00000057856954428623032490000013266278164346435993_);}
	.st37{clip-path:url(#SVGID_00000145754857250217988090000004972260874693740462_);}
	.st38{clip-path:url(#SVGID_00000054256185974467591370000011935935988955295396_);}
	.st39{clip-path:url(#SVGID_00000013157130955910788920000006801073611585147289_);}
	.st40{clip-path:url(#SVGID_00000164490720445150737530000001354187704966145192_);}
	.st41{fill:none;stroke:#FFFFFF;stroke-width:0.8;stroke-linecap:round;}
</style>
<g id="グループ_3263" transform="translate(-779.746 -2423.604)">
	<g id="グループ_565" transform="translate(779.746 2423.604)">
		
			<linearGradient id="長方形_481_00000145743748501893391970000000141901907300380815_" gradientUnits="userSpaceOnUse" x1="-180.8391" y1="529.954" x2="-182.0971" y2="529.8911" gradientTransform="matrix(210.989 0 0 -210.095 38444.0781 111449.9141)">
			<stop  offset="0" style="stop-color:#FDFCDC"/>
			<stop  offset="1" style="stop-color:#FDC0DA"/>
		</linearGradient>
		<path id="長方形_481" style="fill:url(#長方形_481_00000145743748501893391970000000141901907300380815_);" d="M121.1,12.5
			h0.9c58,0,105,47,105,105l0,0c0,58-47,105-105,105h-0.9c-58,0-105-47-105-105l0,0C16.1,59.5,63.1,12.5,121.1,12.5z"/>
		<g class="st1">
			<path class="st2" d="M2.7,34.3c0-10.7,4.6-17.1,12.5-17.1s12.5,6.4,12.5,17.1c0,10.7-4.6,17.1-12.5,17.1S2.7,45.1,2.7,34.3z
				 M19.9,34.3c0-6.4-1.7-10-4.7-10s-4.7,3.6-4.7,10c0,6.5,1.7,10,4.7,10S19.9,40.8,19.9,34.3z"/>
			<path class="st2" d="M31.5,49.1c2.8-3.7,10.1-13.6,13-18c0.6-1,1.3-2.4,1.3-3.7c0-1.9-1.6-3.5-4.3-3.5c-2,0-3.8,1.4-4.8,2.4
				c-0.4,0.4-1,0.4-1.4,0l-3-3c-0.3-0.3-0.4-0.9,0-1.3c0,0,4-4.8,9.8-4.8c7,0,11.1,4.5,11.1,9.9c0,2.6-0.7,4.1-1.9,6.4
				c-1.6,2.8-5.6,8-7.9,11.3H52c0.5,0,0.9,0.4,0.9,0.9v4.4c0,0.5-0.4,0.9-0.9,0.9H32.4c-0.5,0-0.9-0.4-0.9-0.9V49.1z"/>
		</g>
		<path id="長方形_543" class="st3" d="M121.1,19.7L121.1,19.7c54.1,0,97.9,43.8,97.9,97.9v0c0,54.1-43.8,97.9-97.9,97.9h0
			c-54.1,0-97.9-43.8-97.9-97.9v0C23.2,63.5,67.1,19.7,121.1,19.7z"/>
	</g>
	<g id="グループ_3025" transform="translate(24948.715 15956.979)">
		<path id="長方形_2927" class="st2" d="M-24089-13449h79c3.3,0,6,2.7,6,6v54c0,3.3-2.7,6-6,6h-79c-3.3,0-6-2.7-6-6v-54
			C-24095-13446.3-24092.3-13449-24089-13449z"/>
		<g>
			<defs>
				<rect id="SVGID_1_" x="-24108" y="-13455.1" width="116.2" height="88.7"/>
			</defs>
			<clipPath id="SVGID_00000072266784617369354270000010178099296759383223_">
				<use xlink:href="#SVGID_1_"  style="overflow:visible;"/>
			</clipPath>
			
				<g id="グループ_637" transform="translate(-24108 -13455.089)" style="clip-path:url(#SVGID_00000072266784617369354270000010178099296759383223_);">
				<path id="パス_1011" class="st2" d="M107.7,70.4c-0.8,0-0.6-0.7-0.6-1.5V9.1c0-3.3-2.7-6.9-6-6.9H15.1c-3.3,0-6,3.6-6,6.9
					v59.9c0,0.8-0.7,1.5-1.5,1.5c-0.8,0-0.6-0.7-0.6-1.5V9.1C7,4.1,11,0,16,0h84.2c5,0,9.1,4.1,9.1,9.1v59.9c0,0.8,0.2,1.5-0.6,1.5"
					/>
				<path id="パス_1012" class="st2" d="M107.9,88.7H8.3C3.7,88.7,0,85,0,80.4V76c0-0.8,0.7-1.5,1.5-1.5c0,0,0,0,0,0h44.2
					c0.5,0,1,0.2,1.2,0.6l1.6,2.3h19.2l1.6-2.3c0.3-0.4,0.7-0.6,1.2-0.6h44.2c0.8,0,1.5,0.7,1.5,1.5l0,0v4.3
					C116.2,85,112.5,88.7,107.9,88.7 M2.1,76.7v3.7c0,2.9,2.4,6.2,5.3,6.2h101.4c2.9,0,5.3-3.3,5.3-6.2v-3.7H70.4l-1.6,2.3
					c-0.3,0.4-0.7,0.6-1.2,0.6h-19c-0.5,0-1-0.2-1.2-0.6l-1.6-2.3H2.1z"/>
			</g>
		</g>
		<path id="長方形_2928" class="st3" d="M-24081-13431h28.5c1.1,0,2,0.9,2,2v5c0,1.1-0.9,2-2,2h-28.5c-1.1,0-2-0.9-2-2v-5
			C-24083-13430.1-24082.1-13431-24081-13431z"/>
		<path id="長方形_2936" class="st3" d="M-24047-13431h29c1.1,0,2,0.9,2,2v5c0,1.1-0.9,2-2,2h-29c-1.1,0-2-0.9-2-2v-5
			C-24049-13430.1-24048.1-13431-24047-13431z"/>
		<path id="長方形_2932" class="st3" d="M-24081-13420h63c1.1,0,2,0.9,2,2v5c0,1.1-0.9,2-2,2h-63c-1.1,0-2-0.9-2-2v-5
			C-24083-13419.1-24082.1-13420-24081-13420z"/>
		<path id="長方形_2937" class="st3" d="M-24081-13409h63c1.1,0,2,0.9,2,2v5c0,1.1-0.9,2-2,2h-63c-1.1,0-2-0.9-2-2v-5
			C-24083-13408.1-24082.1-13409-24081-13409z"/>
		<g id="長方形_2935" transform="translate(-24082 -13397)">
			<path class="st5" d="M0.9,0h3.2C4.6,0,5,0.4,5,0.9v3.2C5,4.6,4.6,5,4.1,5H0.9C0.4,5,0,4.6,0,4.1V0.9C0,0.4,0.4,0,0.9,0z"/>
			<path class="st6" d="M0.9,0.5h3.2c0.2,0,0.4,0.2,0.4,0.4v3.2c0,0.2-0.2,0.4-0.4,0.4H0.9c-0.2,0-0.4-0.2-0.4-0.4V0.9
				C0.5,0.7,0.7,0.5,0.9,0.5z"/>
		</g>
		<path id="長方形_2933" class="st3" d="M-24074-13397h44c0.6,0,1,0.4,1,1l0,0c0,0.6-0.4,1-1,1h-44c-0.6,0-1-0.4-1-1l0,0
			C-24075-13396.6-24074.6-13397-24074-13397z"/>
		<path id="長方形_2934" class="st3" d="M-24074-13394h22c0.6,0,1,0.4,1,1l0,0c0,0.6-0.4,1-1,1h-22c-0.6,0-1-0.4-1-1l0,0
			C-24075-13393.6-24074.6-13394-24074-13394z"/>
		<g id="グループ_3023">
			<path id="パス_2351" class="st3" d="M-24029.2-13377.4c-1.2-0.7-2.2-1.6-3.1-2.7c-1.4-1.8-2.7-3.7-3.8-5.7
				c-0.6-0.8-0.6-1.8-0.1-2.6c0.6-0.7,1.5-1.1,2.5-0.9l0.8,0.2c-1.2-3.1-3.2-8.3-4.5-11.6c-0.6-1.2-0.1-2.7,1.1-3.3s2.7-0.1,3.3,1.1
				c0.1,0.1,0.1,0.2,0.1,0.3l3.5,9.1l0.1-0.4c0.2-1.1,1.1-1.9,2.2-1.9c0.9-0.1,1.8,0.5,2,1.4c0.1-1,0.8-1.8,1.8-1.9
				c1-0.3,2.1,0.3,2.5,1.3c0.1-0.8,0.7-1.1,1.4-1.3c1-0.3,2.3,0.7,2.7,1.6c0.7,1.8,1.2,3.2,2,5.2c0.3,0.8,0.5,1.6,0.7,2.4
				c0.7,3-0.5,6.1-3,7.9c-1.8,1.3-3.9,2.1-6,2.5C-24025-13376-24027.3-13376.3-24029.2-13377.4z"/>
			<path id="パス_2352" class="st2" d="M-24031.1-13386.8c-1.4-3.7-2.8-7.3-4.2-11c-0.4-1-0.8-2-1.1-3c-0.4-0.7-0.2-1.6,0.4-2.1
				c0.7-0.5,1.7-0.2,2.2,0.5c0,0,0.1,0.1,0.1,0.2c0.4,0.8,0.7,1.7,1,2.5l2.6,6.8c0.1,0.5,0.7,0.8,1.1,0.6c0.5-0.1,0.8-0.6,0.6-1.1
				l-2.5-6.5c-0.4-1-0.7-2.1-1.2-3.1c-0.6-1.3-1.8-2-3.2-2c-1.4,0-2.7,1-3.1,2.3c-0.2,1.1,0,2.3,0.5,3.3c0.9,2.4,1.8,4.8,2.8,7.1
				c0.7,1.9,1.5,3.9,2.2,5.8c0.1,0.5,0.7,0.8,1.1,0.6C-24031.2-13385.8-24030.9-13386.3-24031.1-13386.8L-24031.1-13386.8z"/>
			<path id="パス_2353" class="st2" d="M-24028.3-13393.4c0.1-0.6,0.6-1.1,1.1-1.2c0.5-0.2,1.1,0.1,1.3,0.7c0,0,0,0,0,0
				c0.2,0.5,0.7,0.8,1.2,0.6c0.4-0.1,0.6-0.5,0.7-0.9c0-1.1,2.2-1.5,2.5-0.4c0.2,0.5,0.7,0.8,1.2,0.6c0.3-0.1,0.5-0.3,0.6-0.6
				c0.1-0.5,0.6-0.8,1.1-0.7c0,0,0.1,0,0.1,0c0.6,0.3,1.1,0.8,1.3,1.4c0.7,1.8,1.5,3.7,2.1,5.6c0.5,1.3,0.7,2.8,0.5,4.2
				c-0.1,0.6-0.3,1.3-0.6,1.8c-0.1,0.3-0.3,0.5-0.5,0.7c0,0-0.1,0.1-0.1,0.1c-0.1,0.1,0.1-0.2,0,0.1c-0.1,0.1-0.2,0.2-0.3,0.3
				c-0.3,0.3-0.7,0.7-1,1c-0.4,0.4-0.9,0.7-1.4,1c-1.6,0.9-3.4,1.5-5.2,1.8c0.1,0-0.2,0-0.2,0c-0.2,0-0.3,0-0.5,0c-0.3,0-0.6,0-1,0
				c-0.7,0-1.4-0.1-2-0.4c-1.7-0.6-3.2-1.7-4.3-3.1c-0.4-0.5-0.7-0.8-1.1-1.4c-0.6-0.8-1.1-1.6-1.6-2.5c-0.3-0.5-0.7-1.1-1-1.6
				c-0.3-0.4-0.3-0.8-0.2-1.3c0.2-0.3,0.4-0.5,0.8-0.7c0.1-0.1,0.3-0.1,0.5-0.1c0.1,0,0.2,0,0.3,0c0.2,0,0,0,0.1,0
				c0.5,0.1,1-0.2,1.1-0.7c0.1-0.5-0.2-1-0.6-1.1c-1-0.2-2,0-2.8,0.6c-1,0.7-1.5,2-1.2,3.2c0.4,1.2,1,2.3,1.8,3.3
				c0.5,0.8,1,1.6,1.6,2.4c1.1,1.6,2.5,3,4.2,4.1c1.5,0.9,3.3,1.3,5.1,1.3c3.6-0.1,7-1.5,9.6-4c1.1-1,1.8-2.3,2.2-3.8
				c0.3-1.8,0.2-3.6-0.3-5.4c-0.4-1.2-0.9-2.4-1.3-3.6l-0.7-1.8c-0.2-0.6-0.4-1.1-0.7-1.6c-0.7-1-1.7-1.6-2.9-1.6
				c-1.2,0-2.3,0.9-2.6,2.1h1.8c-0.7-1.6-2.6-2.4-4.2-1.7c-1.1,0.5-1.8,1.5-2,2.6l1.8-0.2c-0.4-1.4-1.8-2.3-3.3-2.1
				c-1.3,0.2-2.4,1.2-2.7,2.6C-24030.4-13392.7-24028.6-13392.2-24028.3-13393.4L-24028.3-13393.4z"/>
		</g>
		<g class="st1">
			<path class="st3" d="M-24056.6-13441.2c0.5,1.1,1.4,2,2.4,2.5c-0.2,0.2-0.5,0.5-0.6,0.8c-0.4-0.3-0.8-0.6-1.1-0.9v0.8h-1.2v1.2
				h-0.9v-1.2h-1.2v-0.7c-0.3,0.3-0.7,0.7-1.1,0.9c-0.1-0.2-0.4-0.5-0.6-0.7c1-0.5,1.9-1.5,2.4-2.6h-2.1v-0.8h2.6v-1.4h0.9v1.4h2.7
				v0.8H-24056.6z M-24058-13438.9v-1.5c-0.3,0.6-0.7,1.1-1.1,1.5H-24058z M-24056-13438.9c-0.4-0.4-0.8-1-1.1-1.5v1.5H-24056z"/>
			<path class="st3" d="M-24046.7-13442.1c-0.3,0.2-0.6,0.5-0.9,0.7c0.3,0.2,0.7,0.5,1.1,0.6c-0.2,0.2-0.4,0.5-0.6,0.7
				c-0.6-0.3-1.1-0.6-1.5-1.1v0.3h-2.6v-0.2c-0.5,0.5-1,0.8-1.6,1.1c-0.1-0.2-0.3-0.5-0.5-0.6c0.4-0.2,0.8-0.4,1.2-0.7
				c-0.2-0.2-0.5-0.4-0.8-0.6l0.5-0.5c0.3,0.2,0.6,0.4,0.8,0.6c0.2-0.2,0.4-0.5,0.5-0.7h-1.4v-0.7h1.8l0.1,0l0.5,0.3
				c-0.2,0.5-0.5,1-0.8,1.4h1.8c-0.4-0.5-0.7-1-1-1.6l0.7-0.2c0.1,0.2,0.2,0.5,0.4,0.7c0.3-0.2,0.5-0.5,0.7-0.7l0.6,0.4
				c-0.3,0.3-0.7,0.5-1,0.7c0.1,0.1,0.2,0.2,0.3,0.4c0.3-0.2,0.6-0.5,0.8-0.7L-24046.7-13442.1z M-24048.2-13438.4
				c-0.1,0.3-0.3,0.6-0.4,0.8h1.8v0.7h-6v-0.7h1.7c-0.1-0.2-0.2-0.5-0.3-0.7l0.4-0.1h-0.8v-1.9h4.1v1.9h-0.6L-24048.2-13438.4z
				 M-24051.1-13439.2h2.4v-0.6h-2.4V-13439.2z M-24050.7-13438.5c0.2,0.2,0.3,0.5,0.3,0.7l-0.3,0.1h1.4l-0.2,0
				c0.1-0.2,0.3-0.5,0.4-0.8H-24050.7z"/>
			<path class="st3" d="M-24042.8-13438.1c0.3-0.2,0.8-0.5,1.3-0.8l0.3,0.6c-0.4,0.3-0.9,0.6-1.3,0.9l-0.2-0.4l0,0.2
				c-0.9,0.2-1.8,0.4-2.5,0.5l-0.2-0.8c0.3,0,0.6-0.1,1-0.2v-1.8h-1v-0.7h1v-0.5h-0.6v-0.3c0,0-0.1,0.1-0.1,0.1
				c-0.1-0.2-0.3-0.4-0.5-0.5c0.6-0.5,1-1.2,1.2-1.7h0.7c0.4,0.3,0.9,0.8,1.2,1.2l-0.4,0.5h0.1v0.7h-0.7v0.5h0.9v0.7h-0.9v1.7
				l0.8-0.1L-24042.8-13438.1z M-24044.7-13439.5c0.1,0.4,0.2,0.9,0.2,1.2l-0.6,0.2c0-0.3-0.1-0.8-0.2-1.2L-24044.7-13439.5z
				 M-24043.1-13441.7c-0.2-0.3-0.5-0.7-0.8-1c-0.2,0.3-0.4,0.6-0.7,1H-24043.1z M-24043.5-13438.4c0.1-0.3,0.2-0.8,0.2-1.1l0.6,0.1
				c-0.1,0.4-0.2,0.8-0.3,1.1L-24043.5-13438.4z M-24040.1-13439.2c0.3,0.5,0.7,1,1.3,1.3c-0.2,0.1-0.4,0.5-0.5,0.7
				c-0.5-0.3-0.9-0.8-1.2-1.4v0.9c0,0.3,0,0.5-0.3,0.7c-0.2,0.1-0.5,0.1-0.9,0.1c0-0.2-0.1-0.5-0.2-0.7c0.2,0,0.4,0,0.5,0
				c0.1,0,0.1,0,0.1-0.1v-2.7h-1.4v-0.7h2.4v-0.4h-1.9v-0.6h1.9v-0.4h-2.1v-0.7h2.9v2.1h0.5v0.7h-1.5v0.2c0.1,0.2,0.2,0.5,0.3,0.8
				c0.2-0.2,0.5-0.6,0.6-0.8l0.7,0.4c-0.3,0.3-0.6,0.7-0.8,0.9L-24040.1-13439.2z M-24042.1-13440.2c0.3,0.2,0.6,0.6,0.7,0.9
				l-0.6,0.4c-0.1-0.3-0.4-0.6-0.7-0.9L-24042.1-13440.2z"/>
		</g>
		<g>
			<defs>
				<rect id="SVGID_00000020371671475750869200000011118386117081819806_" x="-24079" y="-13427" width="11" height="2"/>
			</defs>
			<clipPath id="SVGID_00000084517252503482058050000018301142853086175142_">
				<use xlink:href="#SVGID_00000020371671475750869200000011118386117081819806_"  style="overflow:visible;"/>
			</clipPath>
			
				<g id="リピートグリッド_94" transform="translate(-24079 -13427)" style="clip-path:url(#SVGID_00000084517252503482058050000018301142853086175142_);">
				<g transform="translate(24129 13423)">
					<g>
						<defs>
							<rect id="SVGID_00000145773664665937656910000013432674552138709673_" x="-24129" y="-13423" width="2" height="2"/>
						</defs>
						<clipPath id="SVGID_00000044876733063091966630000001599751166707575731_">
							<use xlink:href="#SVGID_00000145773664665937656910000013432674552138709673_"  style="overflow:visible;"/>
						</clipPath>
						
							<g id="リピートグリッド_92" transform="translate(-24129 -13423)" style="clip-path:url(#SVGID_00000044876733063091966630000001599751166707575731_);">
							<g transform="translate(24079 13428)">
								<circle id="楕円形_152" class="st2" cx="-24078" cy="-13427" r="1"/>
							</g>
						</g>
					</g>
					<g>
						<defs>
							<rect id="SVGID_00000169555894724230569370000007370043142172737153_" x="-24126" y="-13423" width="2" height="2"/>
						</defs>
						<clipPath id="SVGID_00000124131292171743240180000005203271198662751624_">
							<use xlink:href="#SVGID_00000169555894724230569370000007370043142172737153_"  style="overflow:visible;"/>
						</clipPath>
						
							<g id="リピートグリッド_93" transform="translate(-24126 -13423)" style="clip-path:url(#SVGID_00000124131292171743240180000005203271198662751624_);">
							<g transform="translate(24079 13428)">
								<circle id="楕円形_152-2" class="st2" cx="-24078" cy="-13427" r="1"/>
							</g>
						</g>
					</g>
				</g>
				<g transform="translate(24135 13423)">
					<g>
						<defs>
							<rect id="SVGID_00000157288014011646708730000006387909146077804950_" x="-24129" y="-13423" width="2" height="2"/>
						</defs>
						<clipPath id="SVGID_00000153672150196740828590000000807006459582879625_">
							<use xlink:href="#SVGID_00000157288014011646708730000006387909146077804950_"  style="overflow:visible;"/>
						</clipPath>
						
							<g id="リピートグリッド_92-2" transform="translate(-24129 -13423)" style="clip-path:url(#SVGID_00000153672150196740828590000000807006459582879625_);">
							<g transform="translate(24079 13428)">
								<circle id="楕円形_152-3" class="st2" cx="-24078" cy="-13427" r="1"/>
							</g>
						</g>
					</g>
					<g>
						<defs>
							<rect id="SVGID_00000145758746425471883410000015801964927792188070_" x="-24126" y="-13423" width="2" height="2"/>
						</defs>
						<clipPath id="SVGID_00000050633593663025194990000015523981088828448135_">
							<use xlink:href="#SVGID_00000145758746425471883410000015801964927792188070_"  style="overflow:visible;"/>
						</clipPath>
						
							<g id="リピートグリッド_93-2" transform="translate(-24126 -13423)" style="clip-path:url(#SVGID_00000050633593663025194990000015523981088828448135_);">
							<g transform="translate(24079 13428)">
								<circle id="楕円形_152-4" class="st2" cx="-24078" cy="-13427" r="1"/>
							</g>
						</g>
					</g>
				</g>
			</g>
		</g>
		<g>
			<defs>
				<rect id="SVGID_00000129921536560846828920000001404755286507988379_" x="-24079" y="-13416" width="33" height="2"/>
			</defs>
			<clipPath id="SVGID_00000112617979067843554940000008991178962024974477_">
				<use xlink:href="#SVGID_00000129921536560846828920000001404755286507988379_"  style="overflow:visible;"/>
			</clipPath>
			
				<g id="リピートグリッド_96" transform="translate(-24079 -13416)" style="clip-path:url(#SVGID_00000112617979067843554940000008991178962024974477_);">
				<g transform="translate(24129 13423)">
					<g>
						<defs>
							<rect id="SVGID_00000039129569326070758180000004101639736303839619_" x="-24129" y="-13423" width="2" height="2"/>
						</defs>
						<clipPath id="SVGID_00000091730603566401609150000003295450770263739801_">
							<use xlink:href="#SVGID_00000039129569326070758180000004101639736303839619_"  style="overflow:visible;"/>
						</clipPath>
						
							<g id="リピートグリッド_92-3" transform="translate(-24129 -13423)" style="clip-path:url(#SVGID_00000091730603566401609150000003295450770263739801_);">
							<g transform="translate(24079 13428)">
								<circle id="楕円形_152-5" class="st2" cx="-24078" cy="-13427" r="1"/>
							</g>
						</g>
					</g>
					<g>
						<defs>
							<rect id="SVGID_00000137826831676586426250000009239958672010342314_" x="-24126" y="-13423" width="2" height="2"/>
						</defs>
						<clipPath id="SVGID_00000002382840926252939160000014841088066876652988_">
							<use xlink:href="#SVGID_00000137826831676586426250000009239958672010342314_"  style="overflow:visible;"/>
						</clipPath>
						
							<g id="リピートグリッド_93-3" transform="translate(-24126 -13423)" style="clip-path:url(#SVGID_00000002382840926252939160000014841088066876652988_);">
							<g transform="translate(24079 13428)">
								<circle id="楕円形_152-6" class="st2" cx="-24078" cy="-13427" r="1"/>
							</g>
						</g>
					</g>
				</g>
				<g transform="translate(24135 13423)">
					<g>
						<defs>
							<rect id="SVGID_00000086665076087604892200000000881340561692789690_" x="-24129" y="-13423" width="2" height="2"/>
						</defs>
						<clipPath id="SVGID_00000155105491547840170220000015402618284569249708_">
							<use xlink:href="#SVGID_00000086665076087604892200000000881340561692789690_"  style="overflow:visible;"/>
						</clipPath>
						
							<g id="リピートグリッド_92-4" transform="translate(-24129 -13423)" style="clip-path:url(#SVGID_00000155105491547840170220000015402618284569249708_);">
							<g transform="translate(24079 13428)">
								<circle id="楕円形_152-7" class="st2" cx="-24078" cy="-13427" r="1"/>
							</g>
						</g>
					</g>
					<g>
						<defs>
							<rect id="SVGID_00000023966075692692295570000011503271953694734241_" x="-24126" y="-13423" width="2" height="2"/>
						</defs>
						<clipPath id="SVGID_00000010287686065623448580000000418308057538088579_">
							<use xlink:href="#SVGID_00000023966075692692295570000011503271953694734241_"  style="overflow:visible;"/>
						</clipPath>
						
							<g id="リピートグリッド_93-4" transform="translate(-24126 -13423)" style="clip-path:url(#SVGID_00000010287686065623448580000000418308057538088579_);">
							<g transform="translate(24079 13428)">
								<circle id="楕円形_152-8" class="st2" cx="-24078" cy="-13427" r="1"/>
							</g>
						</g>
					</g>
				</g>
				<g transform="translate(24141 13423)">
					<g>
						<defs>
							<rect id="SVGID_00000165935612475608085130000017431495051442469276_" x="-24129" y="-13423" width="2" height="2"/>
						</defs>
						<clipPath id="SVGID_00000054252020601906594320000003701029966845606304_">
							<use xlink:href="#SVGID_00000165935612475608085130000017431495051442469276_"  style="overflow:visible;"/>
						</clipPath>
						
							<g id="リピートグリッド_92-5" transform="translate(-24129 -13423)" style="clip-path:url(#SVGID_00000054252020601906594320000003701029966845606304_);">
							<g transform="translate(24079 13428)">
								<circle id="楕円形_152-9" class="st2" cx="-24078" cy="-13427" r="1"/>
							</g>
						</g>
					</g>
					<g>
						<defs>
							<rect id="SVGID_00000132795421330767151810000015561876566651442873_" x="-24126" y="-13423" width="2" height="2"/>
						</defs>
						<clipPath id="SVGID_00000126301032531091521770000000413470404761304735_">
							<use xlink:href="#SVGID_00000132795421330767151810000015561876566651442873_"  style="overflow:visible;"/>
						</clipPath>
						
							<g id="リピートグリッド_93-5" transform="translate(-24126 -13423)" style="clip-path:url(#SVGID_00000126301032531091521770000000413470404761304735_);">
							<g transform="translate(24079 13428)">
								<circle id="楕円形_152-10" class="st2" cx="-24078" cy="-13427" r="1"/>
							</g>
						</g>
					</g>
				</g>
				<g transform="translate(24147 13423)">
					<g>
						<defs>
							<rect id="SVGID_00000155848475328072640810000012463245747473751939_" x="-24129" y="-13423" width="2" height="2"/>
						</defs>
						<clipPath id="SVGID_00000082356563402212552360000017304035007131199112_">
							<use xlink:href="#SVGID_00000155848475328072640810000012463245747473751939_"  style="overflow:visible;"/>
						</clipPath>
						
							<g id="リピートグリッド_92-6" transform="translate(-24129 -13423)" style="clip-path:url(#SVGID_00000082356563402212552360000017304035007131199112_);">
							<g transform="translate(24079 13428)">
								<circle id="楕円形_152-11" class="st2" cx="-24078" cy="-13427" r="1"/>
							</g>
						</g>
					</g>
					<g>
						<defs>
							<rect id="SVGID_00000151532687550670395610000013831082358866253442_" x="-24126" y="-13423" width="2" height="2"/>
						</defs>
						<clipPath id="SVGID_00000127014155415147541600000009413822643857734572_">
							<use xlink:href="#SVGID_00000151532687550670395610000013831082358866253442_"  style="overflow:visible;"/>
						</clipPath>
						
							<g id="リピートグリッド_93-6" transform="translate(-24126 -13423)" style="clip-path:url(#SVGID_00000127014155415147541600000009413822643857734572_);">
							<g transform="translate(24079 13428)">
								<circle id="楕円形_152-12" class="st2" cx="-24078" cy="-13427" r="1"/>
							</g>
						</g>
					</g>
				</g>
				<g transform="translate(24153 13423)">
					<g>
						<defs>
							<rect id="SVGID_00000111871401572941362710000006353137967591328935_" x="-24129" y="-13423" width="2" height="2"/>
						</defs>
						<clipPath id="SVGID_00000094592685403330378540000003480480650231195825_">
							<use xlink:href="#SVGID_00000111871401572941362710000006353137967591328935_"  style="overflow:visible;"/>
						</clipPath>
						
							<g id="リピートグリッド_92-7" transform="translate(-24129 -13423)" style="clip-path:url(#SVGID_00000094592685403330378540000003480480650231195825_);">
							<g transform="translate(24079 13428)">
								<circle id="楕円形_152-13" class="st2" cx="-24078" cy="-13427" r="1"/>
							</g>
						</g>
					</g>
					<g>
						<defs>
							<rect id="SVGID_00000168092247932370253590000009137395347754261168_" x="-24126" y="-13423" width="2" height="2"/>
						</defs>
						<clipPath id="SVGID_00000120549936132398250580000013124733671266862526_">
							<use xlink:href="#SVGID_00000168092247932370253590000009137395347754261168_"  style="overflow:visible;"/>
						</clipPath>
						
							<g id="リピートグリッド_93-7" transform="translate(-24126 -13423)" style="clip-path:url(#SVGID_00000120549936132398250580000013124733671266862526_);">
							<g transform="translate(24079 13428)">
								<circle id="楕円形_152-14" class="st2" cx="-24078" cy="-13427" r="1"/>
							</g>
						</g>
					</g>
				</g>
				<g transform="translate(24159 13423)">
					<g>
						<defs>
							<rect id="SVGID_00000111165068675222982360000016858809470635113393_" x="-24129" y="-13423" width="2" height="2"/>
						</defs>
						<clipPath id="SVGID_00000034802255071316166530000007944927681775014833_">
							<use xlink:href="#SVGID_00000111165068675222982360000016858809470635113393_"  style="overflow:visible;"/>
						</clipPath>
						
							<g id="リピートグリッド_92-8" transform="translate(-24129 -13423)" style="clip-path:url(#SVGID_00000034802255071316166530000007944927681775014833_);">
							<g transform="translate(24079 13428)">
								<circle id="楕円形_152-15" class="st2" cx="-24078" cy="-13427" r="1"/>
							</g>
						</g>
					</g>
					<g>
						<defs>
							<rect id="SVGID_00000084502159677543655650000007955862988284060336_" x="-24126" y="-13423" width="2" height="2"/>
						</defs>
						<clipPath id="SVGID_00000025423744443828922940000011336794207739904680_">
							<use xlink:href="#SVGID_00000084502159677543655650000007955862988284060336_"  style="overflow:visible;"/>
						</clipPath>
						
							<g id="リピートグリッド_93-8" transform="translate(-24126 -13423)" style="clip-path:url(#SVGID_00000025423744443828922940000011336794207739904680_);">
							<g transform="translate(24079 13428)">
								<circle id="楕円形_152-16" class="st2" cx="-24078" cy="-13427" r="1"/>
							</g>
						</g>
					</g>
				</g>
			</g>
		</g>
		<g>
			<defs>
				<rect id="SVGID_00000080187023266949997210000005815515899683634092_" x="-24079" y="-13405" width="27" height="2"/>
			</defs>
			<clipPath id="SVGID_00000140711139481766412860000002868252179698697883_">
				<use xlink:href="#SVGID_00000080187023266949997210000005815515899683634092_"  style="overflow:visible;"/>
			</clipPath>
			
				<g id="リピートグリッド_97" transform="translate(-24079 -13405)" style="clip-path:url(#SVGID_00000140711139481766412860000002868252179698697883_);">
				<g transform="translate(24129 13423)">
					<g>
						<defs>
							<rect id="SVGID_00000144325854506080336080000004173614847725066913_" x="-24129" y="-13423" width="2" height="2"/>
						</defs>
						<clipPath id="SVGID_00000096050393926082627530000013299424660071926925_">
							<use xlink:href="#SVGID_00000144325854506080336080000004173614847725066913_"  style="overflow:visible;"/>
						</clipPath>
						
							<g id="リピートグリッド_92-9" transform="translate(-24129 -13423)" style="clip-path:url(#SVGID_00000096050393926082627530000013299424660071926925_);">
							<g transform="translate(24079 13428)">
								<circle id="楕円形_152-17" class="st2" cx="-24078" cy="-13427" r="1"/>
							</g>
						</g>
					</g>
					<g>
						<defs>
							<rect id="SVGID_00000049179392296884712560000012082315421130690486_" x="-24126" y="-13423" width="2" height="2"/>
						</defs>
						<clipPath id="SVGID_00000112633604379593552230000011169907831673533860_">
							<use xlink:href="#SVGID_00000049179392296884712560000012082315421130690486_"  style="overflow:visible;"/>
						</clipPath>
						
							<g id="リピートグリッド_93-9" transform="translate(-24126 -13423)" style="clip-path:url(#SVGID_00000112633604379593552230000011169907831673533860_);">
							<g transform="translate(24079 13428)">
								<circle id="楕円形_152-18" class="st2" cx="-24078" cy="-13427" r="1"/>
							</g>
						</g>
					</g>
				</g>
				<g transform="translate(24135 13423)">
					<g>
						<defs>
							<rect id="SVGID_00000075161711911581300830000016212463292046685842_" x="-24129" y="-13423" width="2" height="2"/>
						</defs>
						<clipPath id="SVGID_00000107558311218283294480000001203456917894948228_">
							<use xlink:href="#SVGID_00000075161711911581300830000016212463292046685842_"  style="overflow:visible;"/>
						</clipPath>
						
							<g id="リピートグリッド_92-10" transform="translate(-24129 -13423)" style="clip-path:url(#SVGID_00000107558311218283294480000001203456917894948228_);">
							<g transform="translate(24079 13428)">
								<circle id="楕円形_152-19" class="st2" cx="-24078" cy="-13427" r="1"/>
							</g>
						</g>
					</g>
					<g>
						<defs>
							<rect id="SVGID_00000080888124490968821070000003694200905027379616_" x="-24126" y="-13423" width="2" height="2"/>
						</defs>
						<clipPath id="SVGID_00000067206500501278297110000000165798411008447400_">
							<use xlink:href="#SVGID_00000080888124490968821070000003694200905027379616_"  style="overflow:visible;"/>
						</clipPath>
						
							<g id="リピートグリッド_93-10" transform="translate(-24126 -13423)" style="clip-path:url(#SVGID_00000067206500501278297110000000165798411008447400_);">
							<g transform="translate(24079 13428)">
								<circle id="楕円形_152-20" class="st2" cx="-24078" cy="-13427" r="1"/>
							</g>
						</g>
					</g>
				</g>
				<g transform="translate(24141 13423)">
					<g>
						<defs>
							<rect id="SVGID_00000083796603133723462990000004555687408770381186_" x="-24129" y="-13423" width="2" height="2"/>
						</defs>
						<clipPath id="SVGID_00000183234544218196993510000011408748436073705405_">
							<use xlink:href="#SVGID_00000083796603133723462990000004555687408770381186_"  style="overflow:visible;"/>
						</clipPath>
						
							<g id="リピートグリッド_92-11" transform="translate(-24129 -13423)" style="clip-path:url(#SVGID_00000183234544218196993510000011408748436073705405_);">
							<g transform="translate(24079 13428)">
								<circle id="楕円形_152-21" class="st2" cx="-24078" cy="-13427" r="1"/>
							</g>
						</g>
					</g>
					<g>
						<defs>
							<rect id="SVGID_00000165947395538747478930000015334045342005120906_" x="-24126" y="-13423" width="2" height="2"/>
						</defs>
						<clipPath id="SVGID_00000011741322238584633250000004150766602688398479_">
							<use xlink:href="#SVGID_00000165947395538747478930000015334045342005120906_"  style="overflow:visible;"/>
						</clipPath>
						
							<g id="リピートグリッド_93-11" transform="translate(-24126 -13423)" style="clip-path:url(#SVGID_00000011741322238584633250000004150766602688398479_);">
							<g transform="translate(24079 13428)">
								<circle id="楕円形_152-22" class="st2" cx="-24078" cy="-13427" r="1"/>
							</g>
						</g>
					</g>
				</g>
				<g transform="translate(24147 13423)">
					<g>
						<defs>
							<rect id="SVGID_00000117639592860775956600000015716495093814433445_" x="-24129" y="-13423" width="2" height="2"/>
						</defs>
						<clipPath id="SVGID_00000173129289989705299850000008293998037530423944_">
							<use xlink:href="#SVGID_00000117639592860775956600000015716495093814433445_"  style="overflow:visible;"/>
						</clipPath>
						
							<g id="リピートグリッド_92-12" transform="translate(-24129 -13423)" style="clip-path:url(#SVGID_00000173129289989705299850000008293998037530423944_);">
							<g transform="translate(24079 13428)">
								<circle id="楕円形_152-23" class="st2" cx="-24078" cy="-13427" r="1"/>
							</g>
						</g>
					</g>
					<g>
						<defs>
							<rect id="SVGID_00000150824937849496851700000013081142112547274138_" x="-24126" y="-13423" width="2" height="2"/>
						</defs>
						<clipPath id="SVGID_00000006705444251481795380000013104642003087006630_">
							<use xlink:href="#SVGID_00000150824937849496851700000013081142112547274138_"  style="overflow:visible;"/>
						</clipPath>
						
							<g id="リピートグリッド_93-12" transform="translate(-24126 -13423)" style="clip-path:url(#SVGID_00000006705444251481795380000013104642003087006630_);">
							<g transform="translate(24079 13428)">
								<circle id="楕円形_152-24" class="st2" cx="-24078" cy="-13427" r="1"/>
							</g>
						</g>
					</g>
				</g>
				<g transform="translate(24153 13423)">
					<g>
						<defs>
							<rect id="SVGID_00000170983864105396249370000012951049411673179267_" x="-24129" y="-13423" width="2" height="2"/>
						</defs>
						<clipPath id="SVGID_00000148648062299998552440000014427676926676562102_">
							<use xlink:href="#SVGID_00000170983864105396249370000012951049411673179267_"  style="overflow:visible;"/>
						</clipPath>
						
							<g id="リピートグリッド_92-13" transform="translate(-24129 -13423)" style="clip-path:url(#SVGID_00000148648062299998552440000014427676926676562102_);">
							<g transform="translate(24079 13428)">
								<circle id="楕円形_152-25" class="st2" cx="-24078" cy="-13427" r="1"/>
							</g>
						</g>
					</g>
					<g>
						<defs>
							<rect id="SVGID_00000056425575088008217180000011380148957506355106_" x="-24126" y="-13423" width="2" height="2"/>
						</defs>
						<clipPath id="SVGID_00000156586687235203001520000007860058381886623627_">
							<use xlink:href="#SVGID_00000056425575088008217180000011380148957506355106_"  style="overflow:visible;"/>
						</clipPath>
						
							<g id="リピートグリッド_93-13" transform="translate(-24126 -13423)" style="clip-path:url(#SVGID_00000156586687235203001520000007860058381886623627_);">
							<g transform="translate(24079 13428)">
								<circle id="楕円形_152-26" class="st2" cx="-24078" cy="-13427" r="1"/>
							</g>
						</g>
					</g>
				</g>
			</g>
		</g>
		<g>
			<defs>
				<rect id="SVGID_00000179634512999593327680000008213616400797724556_" x="-24044" y="-13427" width="9" height="2"/>
			</defs>
			<clipPath id="SVGID_00000080206140881321064190000013381386549347507072_">
				<use xlink:href="#SVGID_00000179634512999593327680000008213616400797724556_"  style="overflow:visible;"/>
			</clipPath>
			
				<g id="リピートグリッド_95" transform="translate(-24044 -13427)" style="clip-path:url(#SVGID_00000080206140881321064190000013381386549347507072_);">
				<g transform="translate(24129 13423)">
					<g>
						<defs>
							<rect id="SVGID_00000029042252103719586050000013928487782673788049_" x="-24129" y="-13423" width="2" height="2"/>
						</defs>
						<clipPath id="SVGID_00000026871496836351868190000012473347951909639313_">
							<use xlink:href="#SVGID_00000029042252103719586050000013928487782673788049_"  style="overflow:visible;"/>
						</clipPath>
						
							<g id="リピートグリッド_92-14" transform="translate(-24129 -13423)" style="clip-path:url(#SVGID_00000026871496836351868190000012473347951909639313_);">
							<g transform="translate(24079 13428)">
								<circle id="楕円形_152-27" class="st2" cx="-24078" cy="-13427" r="1"/>
							</g>
						</g>
					</g>
					<g>
						<defs>
							<rect id="SVGID_00000160872959938671252760000017682616426958525071_" x="-24126" y="-13423" width="2" height="2"/>
						</defs>
						<clipPath id="SVGID_00000072259043246796725240000004045613805106520968_">
							<use xlink:href="#SVGID_00000160872959938671252760000017682616426958525071_"  style="overflow:visible;"/>
						</clipPath>
						
							<g id="リピートグリッド_93-14" transform="translate(-24126 -13423)" style="clip-path:url(#SVGID_00000072259043246796725240000004045613805106520968_);">
							<g transform="translate(24079 13428)">
								<circle id="楕円形_152-28" class="st2" cx="-24078" cy="-13427" r="1"/>
							</g>
						</g>
					</g>
				</g>
				<g transform="translate(24135 13423)">
					<g>
						<defs>
							<rect id="SVGID_00000025441005788751200470000004778567267229155255_" x="-24129" y="-13423" width="2" height="2"/>
						</defs>
						<clipPath id="SVGID_00000183965827794124601160000015871850402782987908_">
							<use xlink:href="#SVGID_00000025441005788751200470000004778567267229155255_"  style="overflow:visible;"/>
						</clipPath>
						
							<g id="リピートグリッド_92-15" transform="translate(-24129 -13423)" style="clip-path:url(#SVGID_00000183965827794124601160000015871850402782987908_);">
							<g transform="translate(24079 13428)">
								<circle id="楕円形_152-29" class="st2" cx="-24078" cy="-13427" r="1"/>
							</g>
						</g>
					</g>
					<g>
						<defs>
							<rect id="SVGID_00000060731546357504767280000003298701864874802089_" x="-24126" y="-13423" width="2" height="2"/>
						</defs>
						<clipPath id="SVGID_00000048462398394183904190000017119043441014495658_">
							<use xlink:href="#SVGID_00000060731546357504767280000003298701864874802089_"  style="overflow:visible;"/>
						</clipPath>
						
							<g id="リピートグリッド_93-15" transform="translate(-24126 -13423)" style="clip-path:url(#SVGID_00000048462398394183904190000017119043441014495658_);">
							<g transform="translate(24079 13428)">
								<circle id="楕円形_152-30" class="st2" cx="-24078" cy="-13427" r="1"/>
							</g>
						</g>
					</g>
				</g>
			</g>
		</g>
		<line id="線_67" class="st41" x1="-24080.4" y1="-13395.4" x2="-24079.2" y2="-13394"/>
		<line id="線_68" class="st41" x1="-24079.2" y1="-13394" x2="-24076.5" y2="-13396.5"/>
	</g>
</g>
</svg>
