<?xml version="1.0" encoding="utf-8"?>
<!-- Generator: Adobe Illustrator 28.1.0, SVG Export Plug-In . SVG Version: 6.00 Build 0)  -->
<svg version="1.1" id="レイヤー_1" xmlns="http://www.w3.org/2000/svg" xmlns:xlink="http://www.w3.org/1999/xlink" x="0px"
	 y="0px" viewBox="0 0 228.9 221.7" style="enable-background:new 0 0 228.9 221.7;" xml:space="preserve">
<style type="text/css">
	.st0{fill:url(#長方形_481_00000025405686851387010930000016300743259903212416_);}
	.st1{enable-background:new    ;}
	.st2{fill:#EF9CBF;}
	.st3{fill:#FFFFFF;}
	.st4{fill:#EF9CC0;stroke:#EF9CBF;stroke-width:0.5;}
	.st5{fill:none;}
	.st6{fill:#EF9CBF;stroke:#EF9CBF;stroke-width:0.5;}
	.st7{fill:#EF9CBF;stroke:#EF9CBF;}
	.st8{fill:#FFFFFF;stroke:#EF9CBF;}
	.st9{fill:none;stroke:#FFFFFF;stroke-width:1.5;}
</style>
<g id="グループ_3310" transform="translate(-1294.703 -2424.498)">
	<g id="グループ_2906" transform="translate(1294.703 2424.498)">
		
			<linearGradient id="長方形_481_00000006667792482394519170000006042461186880345500_" gradientUnits="userSpaceOnUse" x1="-180.8391" y1="529.954" x2="-182.0971" y2="529.8911" gradientTransform="matrix(210.989 0 0 -210.095 38445.8672 111449.0156)">
			<stop  offset="0" style="stop-color:#FDFCDC"/>
			<stop  offset="1" style="stop-color:#FDC0DA"/>
		</linearGradient>
		<path id="長方形_481" style="fill:url(#長方形_481_00000006667792482394519170000006042461186880345500_);" d="M122.9,11.6
			h0.9c58,0,105,47,105,105l0,0c0,58-47,105-105,105h-0.9c-58,0-105-47-105-105l0,0C17.9,58.7,64.9,11.6,122.9,11.6z"/>
		<g class="st1">
			<path class="st2" d="M2.7,34.3c0-10.7,4.6-17.1,12.5-17.1s12.5,6.4,12.5,17.1c0,10.7-4.6,17.1-12.5,17.1S2.7,45.1,2.7,34.3z
				 M19.9,34.3c0-6.4-1.7-10-4.7-10s-4.7,3.6-4.7,10c0,6.5,1.7,10,4.7,10S19.9,40.8,19.9,34.3z"/>
			<path class="st2" d="M31.3,43.2V38l17.1-20.5c0.1-0.1,0.3-0.3,0.7-0.3h3.5c0.5,0,0.9,0.4,0.9,0.9l0,20.1h3.9
				c0.5,0,0.9,0.4,0.9,0.9v4.1c0,0.5-0.4,0.9-0.9,0.9h-3.9l0,6c0,0.5-0.4,0.9-0.9,0.9h-5.2c-0.5,0-0.9-0.4-0.9-0.9v-6H32.2
				C31.7,44.1,31.3,43.7,31.3,43.2z M46.7,38v-9.1L39,38H46.7z"/>
		</g>
		<path id="長方形_543" class="st3" d="M122.9,18.8L122.9,18.8c54.1,0,97.9,43.8,97.9,97.9v0c0,54.1-43.8,97.9-97.9,97.9h0
			c-54.1,0-97.9-43.8-97.9-97.9v0C25,62.6,68.9,18.8,122.9,18.8z"/>
	</g>
	<g id="グループ_2921" transform="translate(1341.295 2477.492)">
		<path id="パス_2274" class="st4" d="M32.2,92.9l0.9,2.2c-0.2-0.2-0.4-0.5-0.6-0.7c-0.6-0.6-1.1-1.2-1.7-1.8c0,0,0-0.1,0-0.1
			l-2.1-6.2l-1.1-3.1c-0.1-0.3-0.2-0.5-0.3-0.8c0-0.1-0.1-0.2-0.1-0.3c0-0.1-0.1-0.2-0.1-0.3c0,0,0-0.1,0-0.1
			c0.1,0.1,0.1,0.1,0.1,0.1c0.1,0.2,0.2,0.4,0.3,0.6c0.2,0.4,0.4,0.9,0.6,1.4l1.3,3L32.2,92.9"/>
		<path id="パス_2275" class="st5" d="M100.5,105.8l2.3,2.1c-3,0.1-5.9,0.4-8.8,0.8c-0.4,0.1-0.7,0.6-0.6,1l-1.4,0.2
			c-0.1-0.3-0.4-0.6-0.8-0.5c-8.2,0.8-16.5,0-24.4-2.4c-2.6-0.8-5.3-2-8.1-2c-2.5,0.1-5.2,1.4-5.9,4c0,0.2,0,0.3,0,0.5h-1
			c-0.1-0.4-0.4-0.8-0.9-0.8c-4.9,0.2-9.9,0.4-14.8,0.5c-5,0.1-9.9,0-14.9-0.1c-2.8-0.1-5.6-0.1-8.4-0.3c-0.4,0-0.7,0.3-0.9,0.6h-1
			c0-0.1,0-0.1,0-0.2c0-0.7,0.1-1.3,0.1-2c0-0.3,0-0.6,0.1-1c0,0,0,0,0,0c1.3,0,2.5,0.2,3.8,0.3c2.7,0.2,5.4,0.3,8.1,0.4
			c5.4,0.2,10.8,0.2,16.2,0.1c3-0.1,6.1-0.2,9.1-0.3c0.5,0,0.9-0.4,0.9-0.9c0,0,0-0.1,0-0.1l0.9-0.1c-0.1,0.3-0.1,0.6-0.1,0.8
			c0,0.5,0.4,0.9,0.9,0.9c0.5,0,0.9-0.4,0.9-0.9c0-0.1,0-0.1,0-0.2c0,0,0,0,0,0v0c0-0.1,0-0.2,0.1-0.4s0.1-0.2,0.1-0.3
			c0-0.1,0-0.1,0.1-0.2c0,0,0-0.1,0-0.1l0,0c0.1-0.2,0.2-0.4,0.3-0.6c0.1-0.1,0.1-0.2,0.2-0.3c0-0.1,0.1-0.1,0.1-0.2c0,0,0,0,0,0
			l0,0l0,0c0.3-0.4,0.7-0.7,1-1l0,0l0.1-0.1c0.1,0,0.1-0.1,0.2-0.1c0.1-0.1,0.2-0.1,0.3-0.2c0.2-0.1,0.4-0.3,0.7-0.4
			c0.1,0,0.1-0.1,0.2-0.1l0.1,0h0h0c0.1,0,0.2-0.1,0.3-0.1c0.3-0.1,0.5-0.2,0.8-0.2c0.6-0.1,1.2-0.2,1.8-0.2c1.3,0,2.6,0.1,3.8,0.4
			c2.6,0.5,5.1,1.3,7.6,2.1s5.1,1.6,7.6,2.2c2.9,0.8,5.8,1.3,8.8,1.6c0.5,0,0.9-0.4,0.9-0.9c0-0.5-0.4-0.9-0.9-0.9
			c-5.3-0.4-10.5-2.1-15.7-3.7l-1.1-0.3l3.8,0.3c4.9,0.4,9.8,0.9,14.6,1.8c2.8,0.5,5.5,1,8.2,1.6c0.5,0.1,0.9-0.2,1.1-0.6
			c0-0.1,0-0.1,0-0.2c0.6,0,1.2,0,1.7,0.1c0,0,0,0.1,0,0.1c0,0.5,0.4,0.9,0.9,0.9C99.9,106.1,100.2,106,100.5,105.8"/>
		<path id="パス_2276" class="st5" d="M100.3,102.9c-0.1,0.2-0.2,0.5-0.2,0.6s-0.1,0.2-0.2,0.4c0,0.1-0.1,0.2-0.1,0.2
			c0,0-0.1,0.1-0.1,0.1l0,0l0,0l0,0l0,0h0c-0.5,0-0.8,0.3-0.9,0.8c-0.5,0-1.2-0.1-1.7-0.1c0-0.4-0.2-0.8-0.6-0.9
			c-4.9-1.1-9.8-2-14.8-2.6c-5-0.6-10-1-15-1.4l-7.2-0.6c0,0,0-0.1,0-0.1c0-0.5-0.4-0.9-0.9-0.9c-3.3-0.2-6.6-0.5-9.9-0.7
			c0.2-0.1,0.3-0.4,0.3-0.6c-0.3-1.9-0.5-3.8-0.8-5.7c-0.1-1-0.2-1.9-0.4-2.9c-0.1-0.8-0.3-1.7-0.5-2.5c-0.5-1.7-1.7-3-3.3-3.7
			c-0.8-0.3-1.6-0.3-2.4,0c-0.8,0.3-1.6,0.8-2.2,1.4c-1.6,1.1-3.3,2.1-5.1,2.8c-0.5,0.1-0.7,0.6-0.6,1.1c0,0,0,0,0,0l-1.3,0.8
			l-1-2.3c-0.5-1.1-0.9-2.2-1.4-3.3c-0.3-1.1-0.9-2.1-1.8-2.8c-0.6-0.4-1.4-0.3-1.9,0.2c-0.4,0.4-0.7,1-0.6,1.6
			c0.1,0.6,0.2,1.2,0.5,1.8c0.2,0.6,0.4,1.1,0.6,1.7l1.6,4.7c-0.5-0.4-1-0.7-1.6-0.9c-0.7-0.2-1.6-0.1-2.2,0.4
			c-0.2,0.3-0.4,0.6-0.5,1c0,0.1,0,0.1,0,0.2v0c0,0.1-0.1,0.1-0.1,0.2c0,0-0.1,0.1-0.1,0.1s-0.2,0.2-0.1,0.1
			c-0.2,0.1-0.3,0.2-0.5,0.3c-0.4,0.2-0.8,0.4-1.1,0.6c-0.4,0.2-0.8,0.5-1.1,0.9c-0.4,0.5-0.7,1.1-0.7,1.8c0,0.1,0,0.2,0,0.3h-1.6
			c-0.4,0-0.8,0.3-0.9,0.7l-1.1-0.2c0.1-0.2,0.1-0.4,0.1-0.7c-0.1-0.5-0.6-0.7-1.1-0.6l-0.1,0c-0.1,0-0.1,0-0.2,0c0,0-0.1,0-0.1,0
			l0,0c0,0-0.1,0-0.1,0c-0.1,0-0.1,0-0.2-0.1c-0.1,0-0.1,0-0.1,0c-0.1-0.1-0.2-0.1-0.4-0.2c-0.5-0.3-0.9-0.6-1.4-0.9
			c-1-0.7-2.3-0.9-3.4-0.5c-0.4,0.2-0.6,0.8-0.3,1.2c0.3,0.4,0.8,0.5,1.2,0.3c-0.1,0,0,0,0,0c0,0,0.1,0,0.1,0l0.1,0
			c0.1,0,0.1,0,0.2,0c-0.1,0-0.1,0,0,0c0.1,0,0.1,0,0.2,0s0.1,0,0.2,0.1c0.1,0,0.1,0,0.1,0c0.5,0.2,0.9,0.5,1.3,0.8l0.1,0.1
			c-2.9,1.4-4.6,4.4-4.4,7.6c0.1,1,0.3,1.9,0.7,2.8H2c0-0.2-0.1-0.3-0.1-0.5c0-0.1,0-0.2-0.1-0.3c0,0,0,0,0,0l0,0c0,0,0,0,0,0l0,0
			l0,0c0-0.1,0-0.1,0-0.2c-0.1-0.5-0.1-1-0.1-1.4c0-0.5,0-0.9,0.1-1.4c0,0,0,0,0,0l0,0c0,0,0,0,0,0s0,0,0,0c0-0.1,0-0.1,0-0.2
			c0-0.1,0-0.2,0.1-0.3c0-0.2,0.1-0.5,0.2-0.7c0.1-0.5,0.3-0.9,0.4-1.4c0-0.1,0.1-0.2,0.1-0.3l0.1-0.2l0,0l0,0v0l0,0
			c0.1-0.2,0.2-0.5,0.3-0.7c0.2-0.4,0.5-0.8,0.7-1.2c0.2-0.4,0.5-0.7,0.8-1c0.8-0.9,1.7-1.8,2.7-2.6c0.3-0.3,0.3-0.7,0.1-1.1l1.4-1
			c0,0.1,0.1,0.1,0.1,0.2c0.3,0.3,0.9,0.3,1.2,0l8.7-8.7l8.6-8.7c2.6-2.6,5.2-5.2,7.8-7.8c2.4-2.3,5-4.5,7.7-6.4
			c2.7-1.9,5.7-3.4,8.8-4.4c0.4-0.1,0.8-0.2,1.2-0.3c0.4-0.1,0.7-0.5,0.6-1l2.4-0.6c2,1.5,4.3,2.5,6.8,2.9c0.1,0.5,0.3,1.2,0.5,1.8
			c-0.3,0.2-0.5,0.4-0.5,0.8c-0.1,2.7,2.1,4.6,4.5,5.3c2.1,0.6,4.4,0.4,6.4-0.5c1-0.5,1.9-1.4,2.4-2.4c0.1-0.1,0.1-0.3,0.1-0.5
			l0.1,0l0.3,2.4c-0.2,0.1-0.4,0.3-0.5,0.6c-0.4,1.6,0,3.3,1,4.6c0.2,0.3,0.5,0.6,0.7,0.9s0.4,0.5,0.6,0.8c0.3,0.5,0.7,1,0.9,1.6
			l0,0l0,0c0,0,0,0,0,0l0,0c0,0.1,0.1,0.1,0.1,0.2c0.1,0.1,0.1,0.3,0.1,0.4c0.1,0.3,0.2,0.6,0.3,1c0.1,0.3,0.1,0.5,0.2,0.8
			c0,0,0,0.2,0,0.2l0,0c0,0.1,0,0.1,0,0.2c0,0.2,0,0.3,0,0.5c0,0.6,0,1.2,0,1.9c0,0.1,0,0.1,0,0.2l0,0.1c0,0.2-0.1,0.3-0.1,0.5
			c-0.1,0.3-0.1,0.6-0.2,0.9c-0.1,0.3-0.2,0.6-0.3,1c0,0-0.1,0.1-0.1,0.2l0,0c0,0.1-0.1,0.2-0.1,0.3c-0.1,0.2-0.1,0.3-0.2,0.5
			c-0.2,0.3-0.3,0.6-0.5,0.9c-0.2,0.3-0.4,0.5-0.6,0.8c-0.3,0.3-0.3,0.9,0,1.2c0.3,0.3,0.9,0.3,1.2,0c0.4-0.4,0.7-0.9,1-1.4
			c1.4-0.7,2.8-1.4,4.1-2.2c0.1,0.2,0.2,0.3,0.4,0.4c0.4,0.2,1,0.1,1.2-0.3c0.3-0.6,0.6-1.1,0.8-1.7c1.4-1,2.7-2.2,3.8-3.6
			c0,0,0.1,0.1,0.1,0.1c0.4,0.2,1,0.1,1.2-0.3c0.4-0.7,0.6-1.5,0.7-2.3c0.9-0.9,2.1-2,3.3-2l0,0c0,0,0,0.1,0,0.1
			c0.1,0.1,0.1,0.3,0.2,0.4c0.1,0.5,0.6,0.7,1.1,0.6c0.4-0.1,0.7-0.5,0.6-1l0,0c0.1,0.7,0.2,1.3,0.3,2c-0.1,0-0.3,0-0.4,0
			c-0.5,0.1-0.7,0.6-0.6,1.1c0.8,4.3,1.6,8.7,2.2,13c0.6,4.2,1.1,8.6,1.3,12.8 M85.3,96.1c0.5,0,0.9-0.4,0.9-0.9
			c-0.2-4-0.6-8-1.2-12c-0.1-0.5-0.6-0.7-1.1-0.6c-0.5,0.1-0.7,0.6-0.6,1.1c0.5,3.8,0.9,7.7,1.1,11.6C84.5,95.7,84.9,96.1,85.3,96.1
			"/>
		<path id="パス_2277" class="st5" d="M97.8,70.1L97.8,70.1C97.8,70.1,97.8,70,97.8,70.1c-0.4-1.2-1-2.3-1.8-3.2
			c-0.7-0.7-1.4-1.4-2.2-2.1c-0.4-0.3-0.8-0.7-1.1-1.1c-0.2-0.2-0.3-0.4-0.5-0.6l-0.1-0.1l0,0l0-0.1c-0.1-0.1-0.2-0.3-0.3-0.4
			c-0.7-1-1.3-2.1-1.7-3.3c-1-2.5-1.7-5.2-2.2-7.8c-0.1-0.6-0.2-1.2-0.4-1.9l0.6,0.1c0,0.4,0.2,0.8,0.6,0.9c0.3,0.1,0.5,0.2,0.7,0.2
			c0,0,0.1,0,0.1,0.1l0,0c0.1,0.1,0.3,0.1,0.4,0.2c0.2,0.1,0.4,0.2,0.6,0.4c0.1,0.1,0.2,0.1,0.3,0.2l0.1,0.1l0,0l0,0l0,0
			c0.4,0.3,0.8,0.7,1.1,1c0.2,0.2,0.3,0.4,0.5,0.6l0,0v0l0,0l0,0l0,0l0,0l0,0l0,0l0,0l0.1,0.1c0.1,0.1,0.2,0.2,0.3,0.4
			c0.6,0.9,1.1,1.8,1.4,2.8c0.4,1.2,0.7,2.4,0.9,3.7c0.2,1.3,0.3,2.8,0.4,4.2c0,0.5,0.4,0.9,0.9,0.9c0.1,0,0.2,0,0.4-0.1
			C97.3,66.6,97.5,68.3,97.8,70.1"/>
		<path id="パス_2278" class="st5" d="M75.1,26.4L75.1,26.4L75.1,26.4L75.1,26.4C75.1,26.4,75.1,26.4,75.1,26.4
			c-0.2-0.4-0.3-0.8-0.4-1.2c-0.3-0.8-0.5-1.6-0.6-2.5C74,22.3,73.5,22,73,22.2c-0.5,0.1-0.7,0.6-0.6,1.1c0.5,3.2,2,6.3,4.2,8.7
			c-0.2,0.2-0.3,0.4-0.3,0.7c0,0-0.1,0-0.1,0.1c-0.1,0-0.1,0.1-0.2,0.1c0,0-0.1,0-0.1,0.1c-0.1,0-0.2,0.1-0.3,0.1
			c-0.1,0-0.1,0-0.2,0c0,0-0.1,0-0.1,0c-0.1,0-0.1,0-0.2,0c0,0-0.1,0-0.1,0h0c-0.2,0-0.3-0.1-0.5-0.1c-0.1,0-0.2-0.1-0.2-0.1l0,0
			l0,0c0,0-0.1,0-0.1,0c-0.4-0.2-0.7-0.4-1-0.6l-0.1-0.1l0,0l0,0c-0.1-0.1-0.2-0.1-0.2-0.2c-0.2-0.1-0.3-0.3-0.5-0.4
			c-0.3-0.3-0.6-0.6-0.8-0.9s-0.5-0.6-0.8-0.9l0,0l0,0l0,0l0,0l0,0l0,0l0,0v0l0,0l0,0l-0.1-0.2c-0.1-0.1-0.2-0.3-0.3-0.4
			c-0.9-1.3-1.6-2.7-2.4-4c-0.6-0.9-1.3-1.8-2.1-2.5c-0.8-0.7-1.8-1.2-2.8-1.4c-1.1-0.3-2.3-0.4-3.5-0.4c-1.1,0-2.2,0.4-3,1
			c-0.2,0.2-0.3,0.5-0.2,0.7L55,22.8c-0.2-0.2-0.5-0.3-0.8-0.2c-0.3,0.1-0.6,0.2-0.8,0.4c-0.1,0.1-0.3,0.2-0.4,0.3l0,0
			c-0.1,0.1-0.2,0.1-0.3,0.2c-0.4,0.4-0.7,0.9-1,1.3c-0.5,0.8-1,1.6-1.5,2.5c-0.9,1.8-1.5,3.7-1.8,5.6c-0.7,3.9-0.2,8,1.3,11.6
			c0.9,2.1,2.1,4.1,3.7,5.8c0.3,0.3,0.7,0.3,1,0.2c0.4,0.6,0.9,1.1,1.4,1.6c-0.2,0.3-0.2,0.8,0.1,1.1l0.2,0.1L53.7,54
			c0,0,0-0.1,0-0.1c-0.1-0.5-0.6-0.7-1.1-0.6c-3.3,0.9-6.4,2.3-9.3,4.1c-0.3,0.2-0.7,0.4-1,0.6l0.4-2.5c0,0,0.1,0,0.1,0
			c0.5,0.1,0.9-0.2,1.1-0.6c1.3-6.6,0.4-13.3,0.8-19.9c0.2-3.2,0.8-6.4,1.7-9.4c0.8-2.7,2.1-5.3,3.8-7.6l0,0l0,0l0,0l0,0l0,0l0,0
			l0,0l0,0l0,0l0,0l0,0c0.1-0.1,0.1-0.2,0.2-0.3c0.1-0.1,0.2-0.3,0.3-0.4c0.2-0.3,0.5-0.5,0.7-0.8c0.2-0.2,0.5-0.5,0.8-0.7
			c0.1-0.1,0.3-0.2,0.4-0.4l0,0l0,0h0l0,0c0.1-0.1,0.2-0.1,0.3-0.2c0.6-0.4,1.2-0.7,1.8-1l0.2-0.1l0,0c0.1,0,0.1-0.1,0.2-0.1
			c0.2-0.1,0.3-0.1,0.5-0.2c0.4-0.1,0.7-0.2,1.1-0.3c0.5-0.1,0.7-0.6,0.6-1.1l0,0l2.3-0.4c0.2,0.4,0.6,0.6,1,0.5
			c0.3-0.1,0.6-0.1,0.8-0.2c0.1,0,0.3-0.1,0.4-0.1l0.2,0l0.2,0h0l0,0c0.5-0.1,1.1-0.1,1.7-0.1c1.1,0,2.2,0.1,3.2,0.4
			c1.1,0.3,2.1,0.6,3.1,1.1c1,0.5,2,1.1,3,1.7c0.9,0.6,1.7,1.3,2.5,2.1c0.4,0.4,0.8,0.8,1.2,1.2c0.2,0.2,0.4,0.4,0.5,0.6l0.1,0.2
			l0,0l0,0l0,0l0,0l0,0c0.1,0.1,0.1,0.2,0.2,0.3c0.7,1,1.4,2.1,2,3.2c0.6,1.1,1.1,2.2,1.5,3.3c0.9,2.4,1.6,4.9,2,7.4
			c0.5,2.6,0.8,5.1,1.1,7.8c0.7,5.6,1.4,11.2,3.2,16.6c0.7,2.4,2,4.7,3.6,6.7c0.7,0.7,1.5,1.4,2.2,2.1c0.4,0.3,0.7,0.7,1,1
			c0.1,0.1,0.2,0.2,0.3,0.3l0.1,0.1l0,0l0,0l0,0c0.2,0.2,0.3,0.4,0.4,0.6c0.1,0.2,0.3,0.5,0.4,0.7l0,0.1l0,0c-1.2,0.1-2.4,1.1-3.3,2
			c0-0.1,0-0.2,0-0.3c0-0.5-0.4-0.9-0.9-0.9s-0.9,0.4-0.9,0.9c0,0.6-0.1,1.2-0.4,1.7c-0.2,0.4-0.1,0.8,0.2,1.1
			c-1.1,1.3-2.4,2.5-3.8,3.6c1-2.3,1.4-4.9,1.3-7.4c0-0.5-0.4-0.9-0.9-0.9s-0.9,0.4-0.9,0.9c0.1,2.9-0.5,5.7-1.9,8.2
			c-0.1,0.2-0.1,0.5,0,0.8c-1.3,0.8-2.7,1.6-4.1,2.2c2.7-4.2,2.3-9.7-0.9-13.5c-0.5-0.6-1-1.2-1.3-1.9c-0.3-0.7-0.4-1.5-0.2-2.2
			c0.1-0.5-0.2-0.9-0.6-1.1c-0.2,0-0.4,0-0.6,0.1l-0.3-2.4l-0.2-1.6c0.1,0,0.1,0,0.2,0c0.5-0.1,0.7-0.6,0.6-1.1
			c-0.4-2.3-0.8-4.6-1.2-7l-0.2-1c0-0.2-0.1-0.3-0.3-0.4c0.5-1,0.9-2,1.2-3.1c0.1-0.4-0.1-0.8-0.4-1c0.1-0.2,0.2-0.4,0.3-0.6
			c0.3,0.1,0.7,0,0.9-0.2c0.7-0.6,1.3-1.2,1.9-1.9c0.3,3.2,0.4,6.5,0.1,9.7c0,0.5,0.4,0.9,0.9,0.9c0.5,0,0.9-0.4,0.9-0.9
			c0.3-3.8,0.2-7.7-0.3-11.5c0-0.1,0-0.2-0.1-0.3c0.6-1.1,1.1-2.2,1.5-3.4c0.5-1.5,0.5-3.1-0.1-4.5c-0.5-1.2-1.6-2-3-2.1
			c-0.4,0-0.8,0-1.2,0.1c-1-1.1-1.8-2.3-2.5-3.6c-0.1-0.2-0.2-0.4-0.3-0.6c0-0.1-0.1-0.2-0.1-0.3L75.1,26.4"/>
		<path id="パス_2279" class="st5" d="M71,62.7L71,62.7c-0.4,0.1-0.8,0.1-1.2,0.1c-0.4,0-0.9-0.1-1.3-0.1
			c-0.3-0.1-0.5-0.1-0.8-0.2c-0.2-0.1-0.5-0.2-0.6-0.2c-0.5-0.2-0.9-0.5-1.3-0.8c-0.1-0.1-0.2-0.2-0.3-0.3c0,0-0.1-0.1-0.1-0.1
			l-0.1-0.1l0,0l0,0c-0.2-0.2-0.3-0.5-0.4-0.7l0-0.1l0,0c0,0-0.1-0.1-0.1-0.1c0-0.1-0.1-0.3-0.1-0.4c0-0.1,0-0.1,0-0.2c0,0,0,0,0,0
			c0,0,0,0,0,0c0-0.2,0-0.3,0-0.5c0-0.5-0.4-0.9-0.9-0.9c-0.1,0-0.3,0-0.4,0.1c-0.2-0.6-0.3-1.3-0.5-1.8c0.9,0.1,1.8,0.1,2.7,0.1
			c3.4-0.3,6.5-2,8.5-4.7l0.1-0.1c0.3,2,0.7,3.9,1,5.9l0.2,1c0.1,0.3,0.3,0.5,0.6,0.6l-0.2,0.8c-0.4-0.1-0.8,0-1,0.4
			c-0.1,0.2-0.2,0.4-0.3,0.5c0,0-0.1,0.1-0.1,0.1l0,0l0,0c-0.1,0.1-0.1,0.2-0.2,0.2c-0.1,0.1-0.3,0.3-0.4,0.4c0,0-0.1,0.1-0.2,0.1
			c-0.1,0.1-0.2,0.1-0.3,0.2c-0.2,0.1-0.3,0.2-0.5,0.3l-0.1,0l0,0h0l-0.1,0c-0.1,0-0.2,0.1-0.3,0.1c-0.2,0.1-0.4,0.1-0.6,0.2
			c-0.1,0-0.2,0-0.3,0.1l-0.2,0C71.1,62.6,71,62.7,71,62.7"/>
		<path id="パス_2280" class="st5" d="M52.5,99.9l3.6,0.3c-0.6,0.1-1.1,0.3-1.6,0.5c-2.1,0.9-3.7,2.7-4.3,4.9l-0.9,0.1
			c-0.1-0.4-0.4-0.7-0.9-0.7c-0.6,0-1.1,0.1-1.7,0.1l1.2-0.8c0.4-0.3,0.5-0.8,0.3-1.2c-0.2-0.4-0.8-0.5-1.2-0.3l-3.3,2.1
			c-0.1,0.1-0.2,0.2-0.3,0.4c-1.1,0-2.2,0.1-3.2,0.1c1.4-0.9,2.8-1.7,4.3-2.5c0.4-0.2,0.6-0.8,0.3-1.2c-0.2-0.4-0.8-0.6-1.2-0.3
			c0,0,0,0,0,0c-1.9,1-3.8,2.1-5.6,3.3c-0.2,0.2-0.4,0.4-0.4,0.7l-1,0c0-0.1,0-0.2,0-0.3c0-0.1,0-0.1-0.1-0.2c0,0,0-0.1,0-0.1
			c0,0,0.1-0.3,0-0.2c0.1-0.3,0.3-0.6,0.6-0.8c0.6-0.5,1.2-1,1.8-1.4c0.7-0.5,1.4-1,2.1-1.5c0.6-0.4,1.2-0.8,1.8-1.1
			c1.5-0.5,3-0.6,4.6-0.3C49,99.6,50.7,99.8,52.5,99.9"/>
		<path id="パス_2281" class="st5" d="M34.3,99.7C34.3,99.7,34.3,99.7,34.3,99.7C34.3,99.8,34.3,99.8,34.3,99.7
			c-0.4,0.4-0.4,1-0.1,1.3c0,0,0.1,0.1,0.1,0.1c-0.4,0.7-1.2,1-1.9,0.7c0.1-0.3,0-0.6-0.2-0.8c-1.9-1.5-3.6-3.3-5-5.2
			c-0.3-0.4-0.8-0.5-1.2-0.3c-0.4,0.2-0.6,0.8-0.3,1.2c1.5,2.1,3.3,4,5.3,5.6c0.2,0.2,0.6,0.3,0.9,0.2c0.5,1.1,0,2.3-1.1,2.8
			c-5.3,0-10.6-0.2-15.9-0.6c-0.8,0-1.6-0.1-2.3-0.2c-0.4,0-0.8-0.1-1.2-0.1c-0.3,0-0.7,0-1,0.1c-0.5-1.3-0.6-2.7-0.2-4
			c0.2-0.7,0.5-1.4,1-2l0,0l0,0l0.1-0.1c0.1-0.1,0.1-0.1,0.2-0.2c0.1-0.2,0.3-0.3,0.4-0.4s0.3-0.3,0.4-0.4l0,0l0,0l0,0l0.1,0
			c0.1-0.1,0.2-0.1,0.3-0.2c0.2-0.1,0.4-0.2,0.6-0.3c0.2-0.1,0.4-0.2,0.5-0.3s0.4-0.1,0.6-0.2c0.2-0.1,0.4-0.1,0.7-0.2
			c0.1,0,0.1,0,0.2-0.1c0.2,0,0.4,0,0.6-0.1c0.2-0.1,0.4-0.2,0.5-0.4l1.1,0.2c0,0.1,0,0.1,0,0.2c0,0.5,0.4,0.9,0.9,0.9h1.6
			c0,0.5-0.2,0.9-0.4,1.3c-0.3,0.6-0.7,1.1-1,1.7c-0.3,0.6-0.5,1.2-0.5,1.8c-0.2,1.3,0.5,2.5,1.7,3c0.5,0.1,1-0.1,1.1-0.6
			c0.1-0.5-0.1-0.9-0.6-1.1c0.2,0.1-0.1,0-0.1-0.1c0,0-0.1,0-0.1-0.1l0,0c0,0,0,0,0-0.1c0,0,0-0.1-0.1-0.1l0,0l0,0
			c0-0.1-0.1-0.2-0.1-0.3c0-0.1,0-0.2,0-0.2c0-0.2,0-0.4,0-0.5c0,0.1,0-0.1,0-0.2c0-0.1,0-0.2,0.1-0.3c0-0.1,0-0.1,0.1-0.2v0
			c0,0,0-0.1,0-0.1c0-0.1,0.1-0.2,0.1-0.3c0.3-0.5,0.6-0.9,0.8-1.4c0.3-0.5,0.5-1,0.7-1.6c0.1-0.6,0.1-1.2,0.1-1.8
			c0-0.3,0-0.6,0-0.8c0-0.1,0-0.1,0-0.2c0,0,0-0.1,0-0.1c0,0,0,0,0,0l0,0c0-0.1,0-0.2,0.1-0.3c0,0,0.1-0.2,0.1-0.2c0,0,0,0,0,0
			l0.1-0.1c0.1-0.1,0.1-0.1,0.2-0.2l0.1,0l0,0l0,0l0,0l0,0l0,0c0.6-0.4,1.4-0.7,2-1.2c0.4-0.3,0.7-0.6,1-1c0.1-0.2,0.2-0.4,0.3-0.6
			c0-0.1,0.1-0.2,0.1-0.3l0,0c0,0,0.1,0,0.1,0c0,0,0.1,0,0.1,0l0,0c0,0,0.1,0,0.1,0c0.1,0,0.2,0,0.2,0.1c0.1,0.1,0.3,0.1,0.4,0.2
			c0.4,0.3,0.8,0.6,1.2,1c0.5,0.5,1,0.9,1.4,1.4c0.4,0.4,0.8,0.8,1.2,1.2c0.9,1,1.8,2,2.7,3.1c0.4,0.4,0.8,0.9,1.1,1.4
			c0,0,0.1,0.1,0.1,0.1c0,0,0,0.1,0,0.1l0,0l0,0c0,0,0,0.1,0,0.1S34.3,99.7,34.3,99.7C34.3,99.7,34.3,99.7,34.3,99.7L34.3,99.7
			C34.3,99.7,34.3,99.7,34.3,99.7 M28.6,104.8c0.3-0.3,0.3-0.9,0-1.2l-4.2-3.5c-0.3-0.3-0.9-0.3-1.2,0c-0.3,0.3-0.3,0.9,0,1.2
			l4.2,3.5C27.7,105.2,28.3,105.2,28.6,104.8"/>
		<path id="パス_2282" class="st6" d="M77.1,58l-0.1-0.8l-0.3-1.9L76.2,53l-0.3-2c-0.1-0.3-0.1-0.6-0.2-1v0
			c-0.1-0.2-0.2-0.4-0.4-0.5c-0.4-0.2-1-0.1-1.2,0.3L74,50.1c0,0.2,0,0.3,0,0.5l0.1,0.8l0.3,1.9l0.4,2.3l0.3,2
			c0.1,0.3,0.1,0.6,0.2,1v0c0.1,0.2,0.2,0.4,0.4,0.5c0.4,0.2,1,0.1,1.2-0.3l0.1-0.2C77.1,58.3,77.1,58.2,77.1,58"/>
		<path id="パス_2283" class="st6" d="M77.9,33.3c0-0.1,0-0.2,0.1-0.3L77.9,33.3c0-0.2,0.1-0.3,0.2-0.4L78,33.1
			c0.1-0.1,0.2-0.2,0.3-0.3l-0.2,0.1c0.1-0.1,0.3-0.2,0.4-0.2l-0.2,0.1c0.2-0.1,0.4-0.1,0.6-0.2l-0.2,0c0.3,0,0.5,0,0.8,0l-0.2,0
			c0.2,0,0.5,0.1,0.7,0.2l-0.2-0.1c0.2,0.1,0.4,0.2,0.5,0.3l-0.2-0.1c0.1,0.1,0.3,0.2,0.4,0.4L80.3,33c0.2,0.2,0.3,0.5,0.4,0.8
			l-0.1-0.2c0.1,0.3,0.2,0.7,0.3,1l0-0.2c0.1,0.5,0.1,1.1,0,1.7l0-0.2c-0.1,1-0.4,1.9-0.8,2.8l0.1-0.2c-0.5,1.1-1.1,2.1-1.8,3.1
			l0.1-0.2c-0.7,0.9-1.4,1.6-2.3,2.3C76.1,43.8,76,44,76,44.2c0,0.2,0.1,0.5,0.3,0.6c0.2,0.2,0.4,0.3,0.6,0.3l0.2,0
			c0.1,0,0.3-0.1,0.4-0.2c1.1-0.9,2.1-2,2.9-3.2c0.8-1.2,1.4-2.6,1.9-4c0.2-0.7,0.3-1.5,0.4-2.2c0-0.3,0-0.7,0-1
			c0-0.4-0.1-0.8-0.2-1.2c-0.1-0.4-0.3-0.7-0.5-1c-0.1-0.2-0.2-0.3-0.4-0.5c-0.6-0.6-1.3-0.9-2.2-0.9c-0.3,0-0.5,0-0.8,0
			c-0.3,0-0.7,0.1-1,0.3c-0.3,0.1-0.5,0.3-0.7,0.5c-0.1,0.1-0.2,0.3-0.3,0.4c-0.1,0.1-0.1,0.2-0.2,0.3c-0.1,0.2-0.1,0.3-0.2,0.5
			c-0.1,0.2,0,0.5,0.1,0.7c0.2,0.4,0.8,0.6,1.2,0.3C77.7,33.7,77.8,33.5,77.9,33.3"/>
		<path id="パス_2284" class="st6" d="M55.9,53.3c1.3,1.1,2.8,1.9,4.5,2.4c0.9,0.3,1.8,0.5,2.7,0.6c2.6,0.3,5.2-0.2,7.5-1.5
			c1.4-0.8,2.6-1.9,3.6-3.1c0.5-0.7,1-1.4,1.4-2.1c0.4-0.8,0.7-1.6,1-2.4c0.1-0.2,0.1-0.4,0.2-0.6c0.1-0.2,0-0.5-0.1-0.7
			c-0.2-0.4-0.8-0.6-1.2-0.3c-0.2,0.1-0.3,0.3-0.4,0.5c-0.2,0.6-0.4,1.1-0.6,1.7l0.1-0.2c-0.4,1.1-1,2.1-1.7,3l0.1-0.2
			c-0.6,0.8-1.4,1.5-2.2,2.2l0.2-0.1c-0.8,0.6-1.6,1.1-2.5,1.5l0.2-0.1c-0.9,0.4-1.8,0.6-2.8,0.8l0.2,0c-1,0.1-2.1,0.1-3.1,0l0.2,0
			c-1.2-0.2-2.3-0.5-3.4-0.9l0.2,0.1c-1-0.4-2-1-2.9-1.7l0.2,0.1l-0.2-0.1c-0.2-0.2-0.4-0.3-0.6-0.3c-0.2,0-0.5,0.1-0.6,0.3
			c-0.2,0.2-0.3,0.4-0.3,0.6C55.6,52.9,55.7,53.1,55.9,53.3"/>
		<path id="パス_2285" class="st6" d="M56.4,11.9c-2.6,0.6-5,2-6.8,4.1c-1.9,2.2-3.4,4.8-4.4,7.6c-0.6,1.5-1,3-1.3,4.6
			c-0.4,1.7-0.7,3.4-0.8,5.1c-0.3,3.4-0.3,6.7-0.2,10.1c0,1.7,0,3.3,0,5c0,0.8-0.1,1.7-0.1,2.5c0,0.4-0.1,0.8-0.1,1.3
			c0,0.1,0,0.2,0,0.3c0,0,0,0.2,0,0l0,0.1c0,0.2-0.1,0.4-0.1,0.6c-0.1,0.4-0.1,0.8-0.2,1.3c-0.1,0.5,0.1,1,0.6,1.1
			c0.5,0.1,1-0.1,1.1-0.6c0.6-3.3,0.9-6.7,0.7-10.1c0-3.3-0.2-6.7,0-10c0.1-0.8,0.1-1.7,0.2-2.5c0-0.1,0-0.3,0-0.1
			c0-0.1,0-0.2,0-0.3c0-0.2,0.1-0.4,0.1-0.6c0.1-0.4,0.1-0.8,0.2-1.2c0.3-1.6,0.7-3.1,1.2-4.6c0.2-0.7,0.5-1.4,0.8-2.2l0-0.1
			c0,0,0.1-0.2,0-0.1l0,0l0.1-0.1c0.1-0.2,0.2-0.4,0.2-0.5c0.2-0.4,0.3-0.7,0.5-1c0.3-0.6,0.6-1.2,1-1.8c0.2-0.3,0.3-0.5,0.5-0.8
			c0.1-0.1,0.2-0.3,0.3-0.4l0.1-0.2l0.1-0.1c0,0,0.1-0.2,0-0.1s0.1-0.1,0.1-0.1c0.1-0.1,0.1-0.1,0.2-0.2c0.1-0.1,0.2-0.3,0.3-0.4
			c0.2-0.2,0.4-0.5,0.6-0.7c0.2-0.2,0.5-0.4,0.7-0.7c0.1-0.1,0.2-0.2,0.4-0.3l0.2-0.1l0.1-0.1c0.2-0.1-0.1,0.1,0,0
			c0.5-0.4,1-0.7,1.6-1c0.1-0.1,0.3-0.1,0.4-0.2l0.2-0.1l0.1-0.1c0.2-0.1-0.1,0,0,0c0.3-0.1,0.6-0.2,0.9-0.3s0.6-0.2,0.9-0.2
			c0.5-0.1,0.7-0.6,0.6-1.1C57.3,12.1,56.8,11.8,56.4,11.9"/>
		<path id="パス_2286" class="st6" d="M60.8,12.6c0.3-0.1,0.6-0.1,0.8-0.2c0.1,0,0.3-0.1,0.4-0.1l0.2,0c0,0,0.3,0,0.1,0
			c0.6-0.1,1.1-0.1,1.7-0.1c0.6,0,1.1,0,1.7,0.1c-0.1,0,0.2,0,0.1,0l0.2,0c0.1,0,0.3,0,0.4,0.1c0.3,0.1,0.6,0.1,0.9,0.2
			c0.6,0.1,1.1,0.3,1.6,0.5c0.5,0.2,1,0.4,1.5,0.6c1.1,0.5,2.1,1.1,3,1.8c0.5,0.4,0.8,0.6,1.3,1c0.4,0.4,0.9,0.7,1.3,1.1
			c0.4,0.4,0.8,0.8,1.1,1.2c0.2,0.2,0.3,0.4,0.5,0.6l0.1,0.1c0,0,0.2,0.2,0.1,0.1s0.1,0.1,0.1,0.1L78,20c1.4,2,2.6,4.2,3.5,6.5
			c0.9,2.4,1.6,4.9,2,7.4c0.5,2.7,0.8,5.1,1.1,7.8c0.7,5.6,1.4,11.2,3.2,16.6c0.7,2.4,2,4.7,3.6,6.7c0.7,0.7,1.5,1.4,2.2,2.1
			c0.4,0.3,0.7,0.7,1,1c0.1,0.1,0.2,0.2,0.3,0.3c0,0,0.2,0.3,0.1,0.1c0.2,0.2,0.3,0.4,0.5,0.7c0.1,0.2,0.2,0.4,0.4,0.7
			c0,0,0.1,0.3,0.1,0.1c0,0.1,0,0.1,0.1,0.2c0.1,0.1,0.1,0.3,0.2,0.4c0.1,0.5,0.6,0.7,1.1,0.6c0.5-0.1,0.7-0.6,0.6-1.1
			c-0.4-1.1-1-2.2-1.7-3.1c-0.7-0.7-1.4-1.4-2.2-2.1c-0.4-0.3-0.7-0.7-1.1-1.1c-0.2-0.2-0.3-0.4-0.5-0.6c0-0.1-0.1-0.1-0.1-0.2
			c-0.1-0.1,0.1,0.2,0-0.1c-0.1-0.1-0.2-0.3-0.3-0.4c-0.4-0.5-0.7-1.1-1-1.7c-0.3-0.5-0.5-1.1-0.7-1.6c-1-2.5-1.7-5.1-2.2-7.8
			c-0.6-2.8-1-5.7-1.3-8.6c-0.7-5.3-1.2-10.7-3-15.9c-1.5-4.8-4.3-9-8-12.2c-3.8-3-8.6-5-13.4-4.3c-0.6,0.1-1.1,0.2-1.7,0.3
			c-0.5,0.1-0.7,0.6-0.6,1.1C59.8,12.5,60.3,12.8,60.8,12.6"/>
		<path id="パス_2287" class="st6" d="M77,1.1c0,0.1,0.1,0.3,0.1,0.4l0-0.2c0,0.3,0,0.5,0,0.8l0-0.2c0,0.3-0.1,0.5-0.2,0.8
			l0.1-0.2c-0.1,0.2-0.2,0.5-0.4,0.7l0.1-0.2c0,0.1-0.1,0.1-0.1,0.2c-0.2,0.2-0.3,0.4-0.3,0.6c0,0.2,0.1,0.5,0.3,0.6
			c0.3,0.3,0.9,0.3,1.2,0c0.9-1,1.2-2.4,0.9-3.7c-0.1-0.2-0.2-0.4-0.4-0.5C78.1,0,77.8,0,77.6,0c-0.2,0.1-0.4,0.2-0.5,0.4
			C77,0.6,76.9,0.9,77,1.1"/>
		<path id="パス_2288" class="st6" d="M81.2,7.4l1.4-0.7c0.4-0.2,0.6-0.8,0.3-1.2c-0.1-0.2-0.3-0.3-0.5-0.4l-0.2,0
			c-0.2,0-0.3,0-0.4,0.1l-1.4,0.7C79.9,6.1,79.7,6.6,80,7c0.1,0.2,0.3,0.3,0.5,0.4l0.2,0C80.9,7.5,81,7.4,81.2,7.4"/>
		<path id="パス_2289" class="st7" d="M84.8,11.7l1.4-0.7c0.4-0.2,0.6-0.8,0.3-1.2c-0.1-0.2-0.3-0.3-0.5-0.4l-0.2,0
			c-0.2,0-0.3,0-0.4,0.1l-1.4,0.7c-0.4,0.2-0.6,0.8-0.3,1.2c0.1,0.2,0.3,0.3,0.5,0.4l0.2,0C84.5,11.8,84.7,11.8,84.8,11.7"/>
		<path id="パス_2290" class="st6" d="M57.5,22.9C57.6,22.9,57.6,22.9,57.5,22.9L57.5,22.9c0.1-0.1,0.3-0.2,0.5-0.3l-0.2,0.1
			c0.4-0.2,0.8-0.3,1.2-0.3l-0.2,0c0.8-0.1,1.6-0.1,2.4,0l-0.2,0c0.8,0.1,1.6,0.3,2.3,0.6L63.1,23c0.5,0.2,0.9,0.5,1.3,0.8l-0.2-0.1
			c0.5,0.4,1,0.9,1.4,1.4l-0.1-0.2c0.8,1.1,1.4,2.2,2,3.4c0.4,0.7,0.8,1.4,1.3,2c0.6,0.9,1.3,1.7,2.1,2.4c0.8,0.8,1.8,1.5,2.9,1.9
			c1.1,0.4,2.3,0.3,3.3-0.3c0.2-0.1,0.3-0.2,0.5-0.4c0.2-0.2,0.3-0.4,0.3-0.6c0-0.2-0.1-0.5-0.3-0.6c-0.2-0.2-0.4-0.3-0.6-0.3
			l-0.2,0c-0.1,0-0.3,0.1-0.4,0.2l-0.1,0.1l0.2-0.1c-0.2,0.2-0.4,0.3-0.7,0.4l0.2-0.1c-0.2,0.1-0.4,0.2-0.7,0.2l0.2,0
			c-0.2,0-0.5,0-0.8,0l0.2,0c-0.3,0-0.6-0.1-0.9-0.3l0.2,0.1c-0.5-0.2-1-0.5-1.4-0.9l0.2,0.1c-0.7-0.6-1.4-1.3-2-2
			c-0.2-0.2-0.3-0.4-0.5-0.6l0.1,0.2c-0.4-0.6-0.9-1.2-1.2-1.8c-0.7-1.1-1.2-2.2-1.9-3.3c-0.8-1.2-1.8-2.3-3.1-3
			c-1.2-0.6-2.6-0.9-4-1c-0.7,0-1.4,0-2,0.1c-0.6,0.1-1.1,0.3-1.6,0.6c-0.1,0.1-0.3,0.2-0.4,0.3c-0.3,0.3-0.3,0.9,0,1.2
			c0.2,0.2,0.4,0.3,0.6,0.3C57.2,23.2,57.4,23.1,57.5,22.9"/>
		<path id="パス_2291" class="st6" d="M54.1,22.6c-0.2,0.1-0.5,0.1-0.7,0.3c-0.1,0-0.1,0.1-0.2,0.1l-0.1,0.1
			c-0.1,0.1-0.3,0.2-0.4,0.4l0.1-0.2c0,0-0.1,0.1-0.1,0.1l0.2-0.1c-0.2,0.1-0.3,0.2-0.4,0.4c-0.1,0.1-0.2,0.2-0.2,0.3
			c-0.2,0.2-0.4,0.5-0.5,0.7c-0.3,0.4-0.5,0.8-0.8,1.2c-0.5,0.8-0.9,1.6-1.3,2.5c-0.4,0.9-0.7,1.8-1,2.8c-0.3,1-0.4,1.9-0.6,2.9
			c-0.2,1.9-0.2,3.8,0,5.7c0.3,1.9,0.8,3.7,1.6,5.5c0.8,1.8,1.8,3.4,3,4.9c0.2,0.2,0.3,0.4,0.5,0.5c0.3,0.3,0.9,0.3,1.2,0
			c0.3-0.3,0.3-0.9,0-1.2c-0.3-0.4-0.6-0.7-0.9-1.1l0.1,0.2c-0.8-1-1.5-2.1-2.1-3.3c-0.2-0.3-0.3-0.7-0.5-1l0.1,0.2
			c-0.5-1.3-0.9-2.6-1.2-4C50,39.8,50,39.4,49.9,39l0,0.2c-0.2-1.4-0.2-2.8-0.1-4.3c0-0.4,0.1-0.8,0.1-1.2c0,0.1,0,0.2,0,0.2
			c0.2-1.3,0.5-2.7,1-4c0.1-0.4,0.3-0.7,0.4-1.1l-0.1,0.2c0.5-1.2,1.1-2.3,1.8-3.4c0.2-0.3,0.4-0.6,0.6-0.9l-0.1,0.2
			c0.1-0.1,0.2-0.3,0.3-0.4l-0.2,0.1c0.1-0.1,0.2-0.1,0.3-0.2c0.1-0.1,0.2-0.2,0.3-0.4L54,24.6c0.2-0.1,0.4-0.2,0.5-0.3l-0.2,0.1
			c0.1,0,0.2-0.1,0.3-0.1c0.5-0.1,0.7-0.6,0.6-1.1C55.1,22.8,54.6,22.5,54.1,22.6"/>
		<path id="パス_2292" class="st6" d="M79.2,41.2c0.2,1.5,0.3,3,0.4,4.5c0.1,1.5,0.1,3,0,4.5c0,0.8-0.1,1.7-0.1,2.5
			c0,0.5,0.4,0.9,0.9,0.9c0.2,0,0.5-0.1,0.6-0.3c0.2-0.2,0.2-0.4,0.3-0.6c0.1-1.5,0.2-3,0.2-4.5s-0.1-3-0.2-4.5
			c-0.1-0.8-0.2-1.7-0.3-2.5c0-0.2-0.1-0.5-0.3-0.6c-0.3-0.3-0.9-0.3-1.2,0C79.3,40.7,79.2,40.9,79.2,41.2"/>
		<path id="パス_2293" class="st6" d="M72.4,23.2c0.2,1.4,0.6,2.7,1.2,4c0.5,1.2,1.2,2.4,2,3.5c0.5,0.7,1,1.3,1.6,1.9
			c0.2,0.2,0.4,0.3,0.6,0.3c0.2,0,0.5-0.1,0.6-0.3c0.2-0.2,0.3-0.4,0.3-0.6c0-0.2-0.1-0.5-0.3-0.6c-0.5-0.5-0.9-1-1.4-1.5l0.1,0.2
			c-0.7-0.9-1.3-1.8-1.7-2.8c-0.1-0.3-0.3-0.6-0.4-0.9l0.1,0.2c-0.5-1.2-0.9-2.5-1.1-3.8c-0.1-0.2-0.2-0.4-0.4-0.5
			c-0.4-0.2-1-0.1-1.2,0.3l-0.1,0.2C72.4,22.9,72.4,23.1,72.4,23.2"/>
		<path id="パス_2294" class="st6" d="M62.9,58.8c0,1.3,0.5,2.5,1.3,3.5c0.9,0.9,2,1.6,3.2,1.9c0.6,0.2,1.2,0.3,1.8,0.3
			c0.5,0,0.9,0,1.4,0c1.1-0.1,2.1-0.4,3.1-0.9c0.9-0.5,1.7-1.2,2.2-2.1c0.1-0.1,0.1-0.2,0.2-0.3c0.1-0.2,0.1-0.4,0.1-0.7
			c-0.1-0.2-0.2-0.4-0.4-0.5c-0.2-0.1-0.4-0.2-0.7-0.1c-0.2,0.1-0.4,0.2-0.5,0.4c-0.1,0.3-0.3,0.5-0.5,0.7l0.1-0.2
			c-0.2,0.3-0.5,0.6-0.8,0.8l0.2-0.1c-0.4,0.3-0.8,0.5-1.2,0.7l0.2-0.1c-0.6,0.2-1.2,0.4-1.9,0.5l0.2,0c-0.8,0.1-1.5,0.1-2.3,0
			l0.2,0c-0.7-0.1-1.4-0.3-2.1-0.5l0.2,0.1c-0.5-0.2-0.9-0.4-1.3-0.7l0.2,0.1c-0.3-0.2-0.6-0.5-0.8-0.8l0.1,0.2
			c-0.2-0.3-0.4-0.6-0.6-1l0.1,0.2c-0.1-0.3-0.2-0.6-0.3-1l0,0.2c0-0.2,0-0.4,0-0.6c0-0.5-0.4-0.9-0.9-0.9c-0.2,0-0.5,0.1-0.6,0.3
			C63,58.4,62.9,58.6,62.9,58.8"/>
		<path id="パス_2295" class="st6" d="M10.2,91.2l8.7-8.7l8.7-8.7c2.6-2.6,5.1-5.2,7.8-7.7c1.2-1.2,2.5-2.3,3.8-3.4
			c0.3-0.3,0.7-0.5,1-0.8c0.2-0.1,0.3-0.3,0.5-0.4l0.3-0.2c0,0-0.1,0.1,0,0l0.1-0.1c0.7-0.5,1.3-1,2-1.5c1.4-0.9,2.8-1.8,4.3-2.6
			c0.4-0.2,0.8-0.4,1.1-0.5c0.2-0.1,0.4-0.2,0.5-0.2l0.2-0.1c0,0,0.2-0.1,0,0c0.1,0,0.2-0.1,0.3-0.1c0.8-0.3,1.6-0.6,2.3-0.8
			c0.4-0.1,0.8-0.2,1.2-0.3c0.5-0.1,0.7-0.6,0.6-1.1c-0.1-0.5-0.6-0.7-1.1-0.6c-3.3,0.9-6.4,2.3-9.3,4.2c-2.9,1.9-5.6,4-8.1,6.4
			c-2.6,2.4-5.2,5-7.7,7.5l-8.7,8.7L10,88.8l-1.1,1.1c-0.3,0.4-0.3,0.9,0,1.2C9.3,91.5,9.8,91.5,10.2,91.2"/>
		<path id="パス_2296" class="st6" d="M76.3,63.7c-0.2,0.9-0.2,1.9,0.1,2.8c0.3,0.8,0.7,1.5,1.2,2.2c0.3,0.4,0.6,0.8,0.9,1.2
			l-0.1-0.2c0.5,0.7,1,1.5,1.3,2.3l-0.1-0.2c0.4,0.9,0.6,1.8,0.7,2.7l0-0.2c0.1,1,0.1,2,0,3l0-0.2c-0.1,1-0.4,1.9-0.8,2.8l0.1-0.2
			c-0.3,0.8-0.8,1.5-1.3,2.2l0.1-0.2c-0.1,0.1-0.2,0.3-0.3,0.4c-0.2,0.2-0.3,0.4-0.3,0.6c0,0.2,0.1,0.5,0.3,0.6
			c0.2,0.2,0.4,0.3,0.6,0.3c0.2,0,0.5-0.1,0.6-0.3c0.7-0.8,1.3-1.7,1.7-2.7c0.2-0.5,0.4-1.1,0.6-1.6c0.1-0.6,0.3-1.1,0.3-1.7
			c0.1-1.1,0.1-2.2,0-3.3c-0.2-1.1-0.5-2.1-0.9-3.1c-0.2-0.5-0.5-0.9-0.7-1.3c-0.3-0.5-0.8-1-1.1-1.5c-0.1-0.1-0.2-0.2-0.3-0.3
			l0.1,0.2c-0.4-0.5-0.7-1-0.9-1.5l0.1,0.2c-0.2-0.4-0.3-0.7-0.3-1.1l0,0.2c-0.1-0.4-0.1-0.8,0-1.2l0,0.2c0-0.2,0.1-0.3,0.1-0.5
			c0.1-0.2,0-0.5-0.1-0.7c-0.2-0.4-0.8-0.6-1.2-0.3C76.5,63.3,76.4,63.5,76.3,63.7"/>
		<path id="パス_2297" class="st6" d="M86,79.7c1.2-2.2,1.9-4.6,2.1-7.1c0.1-0.7,0.1-1.3,0-2c0-0.2-0.1-0.5-0.3-0.6
			c-0.3-0.3-0.9-0.3-1.2,0c-0.2,0.2-0.3,0.4-0.3,0.6c0,1,0,1.9-0.1,2.9l0-0.2c-0.2,1.2-0.4,2.3-0.8,3.4c-0.1,0.3-0.2,0.6-0.4,0.9
			l0.1-0.2c-0.2,0.5-0.4,1-0.7,1.5c-0.1,0.2-0.1,0.4-0.1,0.7c0.1,0.5,0.6,0.7,1.1,0.6C85.7,80.1,85.9,79.9,86,79.7"/>
		<path id="パス_2298" class="st6" d="M91.9,74.2c0.4-0.8,0.7-1.7,0.7-2.6c0-0.2-0.1-0.5-0.3-0.6c-0.3-0.3-0.9-0.3-1.2,0
			c-0.2,0.2-0.3,0.4-0.3,0.6c0,0.2,0,0.4,0,0.6l0-0.2c-0.1,0.4-0.1,0.7-0.3,1.1l0.1-0.2c-0.1,0.1-0.1,0.3-0.2,0.4
			c-0.1,0.2-0.1,0.4-0.1,0.7c0.1,0.5,0.6,0.7,1.1,0.6C91.6,74.6,91.8,74.4,91.9,74.2"/>
		<path id="パス_2299" class="st6" d="M88.6,50.6c0.3,0.1,0.6,0.2,0.9,0.3l-0.2-0.1c0.6,0.3,1.3,0.6,1.8,1.1L91,51.8
			c0.7,0.5,1.3,1.2,1.8,1.8l-0.1-0.2c0.6,0.8,1.2,1.8,1.6,2.7L94.2,56c0.5,1.3,0.9,2.7,1.2,4.1c0.1,0.4,0.1,0.8,0.2,1.2l0-0.2
			c0.2,1.2,0.3,2.4,0.4,3.6c0,0.2,0.1,0.5,0.3,0.6c0.3,0.3,0.9,0.3,1.2,0c0.2-0.2,0.3-0.4,0.3-0.6c-0.1-1.4-0.2-2.8-0.4-4.2
			c-0.2-1.3-0.5-2.6-0.9-3.9c-0.4-1.2-0.9-2.3-1.5-3.3c-0.6-1-1.4-1.8-2.2-2.6c-0.9-0.8-2-1.4-3.1-1.8c-0.1,0-0.3-0.1-0.4-0.1
			c-0.2-0.1-0.5,0-0.7,0.1c-0.4,0.2-0.6,0.8-0.3,1.2C88.2,50.4,88.4,50.5,88.6,50.6"/>
		<path id="パス_2300" class="st7" d="M97.1,73.1c0.4,2.2,0.8,4.4,1.2,6.6c0.2,1.1,0.4,2.2,0.5,3.3c0.1,0.5,0.2,1.1,0.2,1.6
			c0,0.3,0.1,0.5,0.1,0.8c0,0.1,0,0.3,0.1,0.4l0,0.2l0,0.1c0,0.1,0-0.2,0,0c0.3,2.2,0.6,4.4,0.8,6.6c0.2,2.2,0.5,4.3,0.6,6.5
			c0,0.5,0,1,0,1.5c0,0.2,0,0.5,0,0.7c0,0.1,0,0.2,0,0.4c0,0,0,0.1,0,0.1c0,0,0-0.2,0-0.1c0,0.1,0,0.1,0,0.2
			c-0.1,0.5-0.2,0.9-0.4,1.4c0,0.1-0.1,0.1-0.1,0.2c0,0,0.1-0.2,0-0.1c0,0,0,0.1,0,0.1c0,0.1-0.1,0.2-0.2,0.3s-0.1,0.2-0.2,0.3
			c-0.1,0.1,0.1-0.1,0,0c0,0-0.1,0.1-0.1,0.1c-0.1,0.1,0.2-0.1,0,0c0,0-0.1,0.1-0.1,0.1s0.2-0.1,0.1,0c0,0-0.1,0,0,0
			c0.2,0,0,0-0.1,0c-0.5,0-0.9,0.4-0.9,0.9c0,0.5,0.4,0.9,0.9,0.9c0.7,0,1.3-0.4,1.6-0.9c0.3-0.4,0.5-0.9,0.7-1.5
			c0.3-1,0.5-2.1,0.5-3.1c0-1-0.1-2.1-0.2-3.1c-0.1-1.1-0.2-2.3-0.3-3.4c-0.2-2.3-0.5-4.5-0.8-6.8c-0.3-2.3-0.6-4.6-1-6.9
			c-0.4-2.3-0.8-4.5-1.2-6.8c-0.1-0.3-0.1-0.6-0.2-0.8c-0.1-0.5-0.6-0.7-1.1-0.6C97.2,72.2,96.9,72.6,97.1,73.1"/>
		<path id="パス_2301" class="st6" d="M86.2,95.2c-0.1-1.5-0.2-3.1-0.3-4.6s-0.3-3.1-0.5-4.6c-0.1-0.9-0.2-1.9-0.4-2.8
			c-0.1-0.2-0.2-0.4-0.4-0.5c-0.4-0.2-1-0.1-1.2,0.3l-0.1,0.2c0,0.2,0,0.3,0,0.5c0,0.2,0,0.3,0.1,0.5c0-0.1,0-0.2,0-0.2
			c0.2,1.5,0.4,2.9,0.5,4.4s0.3,2.9,0.4,4.4c0.1,0.8,0.1,1.7,0.2,2.5c0,0.2,0.1,0.5,0.3,0.6c0.3,0.3,0.9,0.3,1.2,0
			C86.2,95.7,86.3,95.5,86.2,95.2"/>
		<path id="パス_2302" class="st6" d="M34.5,88.2c2.1-0.8,4-1.9,5.9-3.2c0.5-0.4,1-0.7,1.5-0.9l-0.2,0.1c0.2-0.1,0.5-0.2,0.7-0.2
			l-0.2,0c0.2,0,0.5,0,0.7,0l-0.2,0c0.3,0,0.6,0.1,0.8,0.2l-0.2-0.1c0.3,0.1,0.6,0.3,0.9,0.5l-0.2-0.1c0.3,0.2,0.6,0.5,0.8,0.8
			l-0.1-0.2c0.3,0.4,0.5,0.8,0.7,1.2l-0.1-0.2c0.4,1,0.6,2.1,0.7,3.2l0-0.2c0.3,2.1,0.6,4.3,0.8,6.4l0.2,1.8c0,0.2,0.1,0.5,0.3,0.6
			c0.3,0.3,0.9,0.3,1.2,0c0.2-0.2,0.3-0.4,0.3-0.6L48,91.6c-0.1-1-0.3-2-0.4-2.9c-0.1-0.8-0.3-1.6-0.5-2.4c-0.3-0.9-0.7-1.7-1.3-2.4
			c-0.3-0.3-0.6-0.6-0.9-0.9c-0.3-0.2-0.7-0.4-1.1-0.6c-0.4-0.2-0.8-0.2-1.2-0.3c-0.4,0-0.8,0-1.2,0.1c-0.8,0.3-1.6,0.8-2.3,1.4
			c-1.4,1-2.9,1.8-4.5,2.6c-0.2,0.1-0.4,0.2-0.6,0.3l0.2-0.1L34,86.5c-0.2,0.1-0.4,0.2-0.5,0.4c-0.2,0.4-0.1,1,0.3,1.2
			C34,88.3,34.3,88.3,34.5,88.2"/>
		<path id="パス_2303" class="st6" d="M2.1,105.8c-0.1-0.4-0.2-0.8-0.2-1.2l0,0.2c-0.1-1.1-0.1-2.2,0-3.3l0,0.2
			c0.2-1.1,0.5-2.2,0.9-3.3l-0.1,0.2c0.4-1,0.9-1.9,1.6-2.7l-0.1,0.2c0.9-1.1,2-2.2,3.1-3.1c0.3-0.3,0.3-0.9,0-1.2
			c-0.2-0.2-0.4-0.3-0.6-0.3c-0.2,0-0.5,0.1-0.6,0.3c-0.9,0.7-1.7,1.5-2.5,2.3c-0.7,0.8-1.3,1.7-1.9,2.6c-1,1.9-1.6,3.9-1.6,6
			c0,1.2,0.1,2.4,0.4,3.5c0.1,0.2,0.2,0.4,0.4,0.5c0.2,0.1,0.4,0.1,0.7,0.1C1.9,106.7,2.2,106.2,2.1,105.8"/>
		<path id="パス_2304" class="st6" d="M10.3,94.2c0,0,0.1,0,0.1-0.1L10.3,94.2c0,0,0.2-0.1,0.3-0.1L10.3,94.2
			c0.2-0.1,0.4-0.1,0.6,0l-0.2,0c0.3,0,0.5,0.1,0.7,0.2l-0.2-0.1c0.5,0.3,1,0.6,1.5,0.9c0.2,0.2,0.5,0.3,0.8,0.5
			c0.3,0.2,0.6,0.3,1,0.4c0.4,0.1,0.9,0.1,1.3,0c0.5-0.1,0.7-0.6,0.6-1.1c-0.1-0.5-0.6-0.7-1.1-0.6c-0.1,0-0.1,0-0.2,0l0.2,0
			c-0.2,0-0.3,0-0.5,0l0.2,0c-0.2,0-0.5-0.1-0.7-0.2l0.2,0.1c-0.6-0.3-1.1-0.6-1.7-1c-0.3-0.2-0.5-0.3-0.8-0.5
			c-0.2-0.1-0.4-0.2-0.6-0.2c-0.2-0.1-0.4-0.1-0.6-0.1c-0.5,0-1,0.1-1.4,0.3c-0.4,0.2-0.6,0.8-0.3,1.2C9.4,94.3,9.9,94.4,10.3,94.2"
			/>
		<path id="パス_2305" class="st6" d="M10.6,105.2c-0.1-0.2-0.2-0.4-0.3-0.6l0.1,0.2c-0.2-0.6-0.4-1.2-0.5-1.8l0,0.2
			c-0.1-0.6-0.1-1.3,0-2l0,0.2c0.1-0.6,0.2-1.2,0.5-1.8l-0.1,0.2c0.2-0.6,0.5-1.1,0.9-1.5l-0.1,0.2c0.4-0.5,0.8-0.9,1.3-1.3
			l-0.2,0.1c0.5-0.4,1-0.7,1.6-0.9l-0.2,0.1c0.4-0.2,0.9-0.3,1.3-0.4c0.2-0.1,0.4-0.2,0.5-0.4c0.2-0.4,0.1-1-0.3-1.2
			c-0.2-0.1-0.4-0.1-0.7-0.1c-0.9,0.2-1.7,0.5-2.5,1c-0.8,0.5-1.5,1.1-2,1.8c-0.3,0.4-0.6,0.8-0.8,1.2c-0.2,0.4-0.5,0.9-0.6,1.4
			c-0.2,0.5-0.3,1-0.3,1.5c-0.1,0.5-0.1,0.9,0,1.4c0.1,1.2,0.4,2.3,0.9,3.4c0.2,0.4,0.8,0.6,1.2,0.3
			C10.7,106.2,10.9,105.7,10.6,105.2C10.6,105.2,10.6,105.2,10.6,105.2"/>
		<path id="パス_2306" class="st6" d="M18.3,96.8h1.8c0.2,0,0.5-0.1,0.6-0.3c0.3-0.3,0.3-0.9,0-1.2c-0.2-0.2-0.4-0.3-0.6-0.3h-1.8
			c-0.2,0-0.5,0.1-0.6,0.3c-0.3,0.3-0.3,0.9,0,1.2C17.8,96.7,18.1,96.8,18.3,96.8"/>
		<path id="パス_2307" class="st6" d="M20.2,103L20.2,103l0.1,0.1c-0.1,0-0.2-0.1-0.3-0.2L20.2,103c-0.1-0.1-0.2-0.2-0.3-0.3
			l0.1,0.2c-0.1-0.1-0.2-0.2-0.2-0.4l0.1,0.2c-0.1-0.2-0.1-0.4-0.2-0.6l0,0.2c0-0.3,0-0.6,0-0.8l0,0.2c0-0.3,0.1-0.6,0.2-0.9
			l-0.1,0.2c0.3-0.8,0.8-1.4,1.2-2.1c0.2-0.4,0.4-0.8,0.5-1.3c0.1-0.5,0.1-1,0.1-1.5c0-0.5,0-1,0-1.5l0,0.2c0-0.2,0.1-0.4,0.2-0.6
			l-0.1,0.2c0.1-0.2,0.2-0.3,0.3-0.4l-0.1,0.2c0.1-0.2,0.3-0.3,0.5-0.5L22.1,94c0.5-0.3,1-0.6,1.5-0.9c0.3-0.1,0.5-0.3,0.7-0.4
			c0.2-0.1,0.3-0.2,0.5-0.4c0.1-0.1,0.3-0.3,0.4-0.5c0.1-0.2,0.2-0.4,0.3-0.6c0.1-0.2,0.1-0.4,0.2-0.6l-0.1,0.2
			c0-0.1,0.1-0.1,0.1-0.2l-0.1,0.2c0,0,0.1-0.1,0.1-0.1l-0.2,0.1c0.1,0,0.1-0.1,0.2-0.1l-0.2,0.1c0.1,0,0.2-0.1,0.3-0.1l-0.2,0
			c0.2,0,0.3,0,0.5,0l-0.2,0c0.2,0,0.4,0.1,0.6,0.2l-0.2-0.1c0.3,0.1,0.6,0.3,0.8,0.5l-0.2-0.1c0.5,0.4,1,0.9,1.5,1.3
			c0.5,0.5,1,1,1.5,1.5c1,1,1.9,2,2.8,3.1c0.5,0.6,1,1.2,1.5,1.8l-0.1-0.2c0.2,0.2,0.3,0.5,0.4,0.7l-0.1-0.2
			c0.1,0.2,0.1,0.3,0.2,0.5l0-0.2c0,0.1,0,0.2,0,0.3l0-0.2c0,0.1,0,0.1-0.1,0.2l0.1-0.2c0,0.1-0.1,0.1-0.1,0.2l0.1-0.2
			c0,0.1-0.1,0.1-0.2,0.2l0.2-0.1l0,0c-0.2,0.1-0.3,0.3-0.4,0.5c-0.1,0.2,0,0.5,0.1,0.7c0.1,0.2,0.3,0.3,0.5,0.4
			c0.2,0.1,0.5,0,0.7-0.1c0.2-0.1,0.4-0.3,0.5-0.5c0.1-0.1,0.2-0.3,0.2-0.4c0.1-0.3,0.1-0.7,0-1c-0.2-0.6-0.4-1.1-0.8-1.6
			c-0.8-1-1.5-1.9-2.4-2.8s-1.7-1.8-2.5-2.7c-0.4-0.4-0.9-0.9-1.3-1.3c-0.5-0.4-0.9-0.9-1.5-1.2c-0.3-0.2-0.6-0.3-0.9-0.4
			c-0.1,0-0.3-0.1-0.4-0.1c-0.2,0-0.4-0.1-0.6-0.1c-0.4,0-0.8,0.1-1.2,0.4c-0.2,0.1-0.3,0.3-0.4,0.5c-0.1,0.2-0.2,0.4-0.2,0.6
			c0,0.1-0.1,0.2-0.1,0.3l0.1-0.2c-0.1,0.1-0.1,0.3-0.2,0.4l0.1-0.2c-0.1,0.2-0.3,0.3-0.5,0.4l0.2-0.1c-0.6,0.5-1.4,0.7-2,1.2
			c-0.4,0.3-0.8,0.6-1.1,1.1c-0.3,0.6-0.5,1.2-0.5,1.9c0,0.6,0.1,1.3,0,1.9l0-0.2c0,0.3-0.1,0.6-0.3,0.9l0.1-0.2
			c-0.4,1-1.2,1.9-1.5,2.9c-0.2,0.5-0.2,0.9-0.2,1.4c0,0.5,0.1,1.1,0.3,1.5c0.1,0.2,0.3,0.5,0.5,0.7c0.3,0.2,0.6,0.4,0.9,0.5
			c0.5,0.1,1-0.1,1.1-0.6c0.1-0.2,0-0.5-0.1-0.7C20.6,103.2,20.4,103.1,20.2,103"/>
		<path id="パス_2308" class="st6" d="M25.7,96.7c1.2,1.6,2.5,3.2,4,4.5c0.4,0.4,0.8,0.7,1.3,1.1c0.2,0.2,0.4,0.3,0.6,0.3
			c0.2,0,0.5-0.1,0.6-0.3c0.2-0.2,0.3-0.4,0.3-0.6c0-0.2-0.1-0.5-0.3-0.6c-1.3-1-2.5-2.2-3.6-3.5c-0.3-0.4-0.6-0.7-0.9-1.1l0.1,0.2
			c-0.2-0.3-0.4-0.6-0.6-0.9c-0.1-0.2-0.3-0.3-0.5-0.4c-0.2-0.1-0.5,0-0.7,0.1c-0.2,0.1-0.3,0.3-0.4,0.5
			C25.6,96.3,25.6,96.5,25.7,96.7"/>
		<path id="パス_2309" class="st6" d="M23.2,101.3l3.3,2.7l0.9,0.8c0.2,0.2,0.4,0.3,0.6,0.3c0.2,0,0.5-0.1,0.6-0.3
			c0.2-0.2,0.3-0.4,0.3-0.6c0-0.2-0.1-0.5-0.3-0.6l-3.3-2.7l-0.9-0.8c-0.2-0.2-0.4-0.3-0.6-0.3c-0.5,0-0.9,0.4-0.9,0.9l0,0
			C22.9,100.9,23,101.1,23.2,101.3"/>
		<path id="パス_2310" class="st6" d="M30.8,92.5l-1.4-4.2l-1.4-4.2l-0.4-1.2c-0.2-0.4-0.3-0.8-0.3-1.2l0,0.2c0-0.1,0-0.3,0-0.4
			l0,0.2c0-0.1,0-0.2,0.1-0.3l-0.1,0.2c0-0.1,0.1-0.2,0.1-0.2l-0.1,0.2c0-0.1,0.1-0.1,0.2-0.2l-0.2,0.1c0,0,0.1-0.1,0.2-0.1
			l-0.2,0.1c0.1,0,0.1,0,0.2-0.1l-0.2,0c0.1,0,0.1,0,0.2,0l-0.2,0c0.1,0,0.1,0,0.2,0.1L27,81.6c0.1,0,0.2,0.1,0.3,0.2L27,81.6
			c0.1,0.1,0.3,0.2,0.4,0.4l-0.1-0.2c0.3,0.4,0.5,0.8,0.7,1.2c0.2,0.5,0.4,1,0.6,1.5l1.3,3l2.6,6c0.5,1.1,1,2.2,1.4,3.4l-0.1-0.2
			c0.3,0.6,0.5,1.2,0.6,1.9l0-0.2c0,0.3,0,0.6,0,0.9l0-0.2c0,0.1,0,0.2-0.1,0.3c-0.1,0.2,0,0.5,0.1,0.7c0.2,0.4,0.8,0.6,1.2,0.3
			c0.2-0.1,0.3-0.3,0.4-0.5c0.1-0.7,0.1-1.3,0-2c-0.1-0.6-0.3-1.1-0.6-1.6C35,95,34.5,93.9,34,92.8l-2.7-6.4l-1.4-3.2
			c-0.2-0.5-0.4-1-0.7-1.5c-0.1-0.2-0.2-0.4-0.4-0.7c-0.2-0.3-0.4-0.5-0.6-0.7c-0.3-0.3-0.7-0.5-1.2-0.5c-0.4,0-0.8,0.1-1.1,0.4
			c-0.3,0.2-0.4,0.5-0.5,0.9c-0.1,0.4-0.1,0.8,0,1.1c0.1,0.3,0.1,0.6,0.2,0.8l0.3,0.8l0.6,1.7l2.2,6.6l0.3,0.8
			c0.1,0.2,0.2,0.4,0.4,0.5c0.4,0.2,1,0.1,1.2-0.3C30.8,93,30.9,92.8,30.8,92.5"/>
		<path id="パス_2311" class="st6" d="M36.4,104.8L36.4,104.8l0.1,0.2c0-0.1-0.1-0.2-0.1-0.3L36.4,104.8c0,0,0-0.1,0-0.2
			L36.4,104.8c0-0.1,0-0.3,0.1-0.4l-0.1,0.2c0.1-0.2,0.2-0.4,0.3-0.5l-0.1,0.2c0.3-0.3,0.6-0.6,0.9-0.9l-0.2,0.1
			c0.7-0.5,1.4-1.1,2.2-1.6c0.7-0.5,1.4-1,2.1-1.5c0.4-0.2,0.8-0.5,1.2-0.6l-0.2,0.1c0.5-0.2,1.1-0.4,1.7-0.5l-0.2,0
			c0.9-0.1,1.8-0.1,2.6,0c0.9,0.1,1.9,0.1,2.8,0.2l5.8,0.4l3.2,0.2c0.5,0,0.9-0.4,0.9-0.9c0-0.2-0.1-0.5-0.3-0.6
			c-0.2-0.2-0.4-0.2-0.6-0.3L53,98.2l-5.5-0.4c-1.7-0.2-3.5-0.1-5.2,0.4c-0.8,0.3-1.6,0.7-2.3,1.3c-0.7,0.5-1.4,1-2.1,1.5l-1.1,0.8
			c-0.4,0.3-0.7,0.5-1.1,0.8c-0.3,0.3-0.6,0.6-0.8,1c-0.4,0.7-0.5,1.5-0.1,2.2c0.1,0.2,0.3,0.3,0.5,0.4c0.2,0.1,0.5,0,0.7-0.1
			c0.2-0.1,0.3-0.3,0.4-0.5l0-0.2C36.5,105.1,36.4,104.9,36.4,104.8"/>
		<path id="パス_2312" class="st6" d="M38.8,106.1c1.4-0.9,2.9-1.8,4.4-2.6c0.4-0.2,0.8-0.5,1.3-0.7c0.4-0.2,0.6-0.8,0.3-1.2
			c-0.2-0.4-0.8-0.6-1.2-0.3c0,0,0,0,0,0c-1.5,0.8-3,1.7-4.4,2.6c-0.4,0.3-0.8,0.5-1.2,0.8c-0.2,0.1-0.3,0.3-0.4,0.5
			c-0.1,0.2,0,0.5,0.1,0.7C37.9,106.2,38.4,106.3,38.8,106.1"/>
		<path id="パス_2313" class="st6" d="M44.7,106.3l3.3-2.1c0.2-0.1,0.3-0.3,0.4-0.5c0.1-0.2,0-0.5-0.1-0.7
			c-0.2-0.4-0.8-0.6-1.2-0.3l-3.3,2.1c-0.2,0.1-0.3,0.3-0.4,0.5c-0.1,0.2,0,0.5,0.1,0.7C43.7,106.4,44.2,106.5,44.7,106.3"/>
		<path id="パス_2314" class="st6" d="M12.7,110.5c5,0.2,9.9,0.3,14.9,0.4c5,0,9.9,0,14.9-0.2c2.8-0.1,5.6-0.2,8.4-0.3
			c0.5,0,0.9-0.4,0.9-0.9s-0.4-0.9-0.9-0.9c-5,0.2-9.9,0.4-14.9,0.5s-9.9,0-14.9-0.1c-2.8-0.1-5.6-0.1-8.4-0.3
			c-0.5,0-0.9,0.4-0.9,0.9C11.9,110.1,12.3,110.5,12.7,110.5"/>
		<path id="パス_2315" class="st6" d="M54.4,109.4c0-0.1,0.1-0.2,0.1-0.3c0.1-0.1-0.1,0.2,0,0c0-0.1,0.1-0.1,0.1-0.2
			c0.1-0.1,0.1-0.2,0.2-0.3c0,0,0.1-0.1,0.1-0.1l0-0.1c0.1-0.1-0.1,0.2,0,0c0.2-0.2,0.3-0.4,0.5-0.5c0,0,0.1-0.1,0.1-0.1
			c0.2-0.1-0.1,0.1,0,0c0.1-0.1,0.2-0.2,0.3-0.2c0.2-0.1,0.4-0.3,0.7-0.4l0.1,0c0.1,0-0.1,0-0.1,0c0.1,0,0.1,0,0.2-0.1
			c0.1,0,0.2-0.1,0.4-0.1c0.2-0.1,0.5-0.1,0.7-0.2l0.2,0c0.2,0-0.2,0,0,0c0.1,0,0.3,0,0.4,0c0.3,0,0.6,0,0.9,0c0.2,0,0.3,0,0.5,0
			c0,0,0.1,0,0.1,0c0,0-0.2,0-0.1,0s0.2,0,0.3,0c0.7,0.1,1.3,0.3,1.9,0.5c1.3,0.4,2.6,0.9,3.8,1.2c2.6,0.8,5.2,1.4,7.8,1.9
			c2.7,0.5,5.5,0.8,8.2,0.9c2.7,0.1,5.4,0.1,8.1-0.1c0.3,0,0.7-0.1,1-0.1c0.5,0,0.9-0.4,0.9-0.9c0-0.5-0.4-0.9-0.9-0.9
			c-2.7,0.3-5.5,0.4-8.2,0.3c-1.4,0-2.7-0.1-4.1-0.3c-0.7-0.1-1.4-0.1-2-0.2c-0.1,0-0.2,0-0.3,0l0.1,0l-0.1,0l-0.6-0.1
			c-0.3,0-0.7-0.1-1-0.2c-2.7-0.4-5.4-1-8-1.8c-1.3-0.4-2.6-0.9-3.9-1.3c-1.3-0.5-2.7-0.7-4.2-0.8c-2.2,0-4.7,1-5.7,3.1
			c-0.1,0.3-0.3,0.6-0.3,0.9c-0.1,0.5,0.1,1,0.6,1.1C53.8,110.1,54.3,109.9,54.4,109.4"/>
		<path id="パス_2316" class="st6" d="M10.9,109.2l0.1-2c0-0.3,0-0.7,0.1-1c0,0,0-0.1,0-0.1c0,0,0,0.2,0,0.1c0-0.1,0-0.1,0-0.2
			c0-0.1-0.1,0.2,0,0.1c0,0,0,0,0-0.1c0,0.1-0.1,0.1-0.1,0.1c0,0-0.1,0-0.1,0.1c-0.1,0-0.1,0,0,0c0.2,0-0.2,0,0,0c0.1,0,0.1,0,0.2,0
			c0.2,0,0.3,0,0.5,0l1,0.1c0.7,0,1.4,0.1,2.1,0.1c2.7,0.2,5.4,0.3,8.1,0.4c2.7,0.1,5.5,0.2,8.2,0.2c2.7,0,5.5,0,8.2-0.1
			c2.7-0.1,5.4-0.1,8.1-0.3l1-0.1c0.5,0,0.9-0.4,0.9-0.9s-0.4-0.9-0.9-0.9l0,0c-2.8,0.1-5.6,0.2-8.3,0.3c-2.8,0.1-5.6,0.1-8.4,0.1
			c-2.8,0-5.6-0.1-8.3-0.2s-5.6-0.2-8.3-0.4c-0.7,0-1.4-0.1-2.1-0.1l-1.1-0.1c-0.3,0-0.6-0.1-0.9-0.1c-0.5,0-0.9,0.2-1.2,0.6
			c-0.2,0.3-0.3,0.7-0.3,1.1c-0.1,0.7-0.1,1.4-0.1,2l-0.1,1c0,0.5,0.4,0.9,0.9,0.9C10.5,110.1,10.9,109.7,10.9,109.2"/>
		<path id="パス_2317" class="st6" d="M51.8,106.4c0-0.1,0-0.1,0-0.2c0-0.2,0,0.2,0,0c0-0.1,0-0.2,0.1-0.4c0-0.1,0.1-0.2,0.1-0.4
			c0-0.1,0-0.1,0.1-0.2c0,0,0.1-0.3,0-0.1s0,0,0-0.1c0-0.1,0-0.1,0.1-0.2c0.1-0.1,0.1-0.2,0.2-0.3c0.1-0.1,0.1-0.2,0.2-0.3
			c0,0,0.1-0.1,0.1-0.1l0-0.1c0.1-0.1-0.1,0.1,0,0c0.3-0.4,0.7-0.8,1.1-1.1c0.1-0.1-0.2,0.1,0,0l0.1-0.1c0.1-0.1,0.2-0.2,0.3-0.2
			c0.2-0.1,0.4-0.3,0.7-0.4c0.1-0.1,0.2-0.1,0.3-0.2c0.2-0.1-0.1,0.1,0,0c0.1,0,0.1-0.1,0.2-0.1c0.2-0.1,0.5-0.2,0.7-0.2
			c0.3-0.1,0.7-0.1,1-0.2c0,0,0.1,0,0,0s0,0,0,0c0.1,0,0.2,0,0.2,0c0.2,0,0.3,0,0.5,0c0.7,0,1.3,0,2,0.1c0.2,0,0.3,0,0.5,0.1
			c0,0,0.1,0,0.1,0c-0.2,0-0.1,0,0,0l0.3,0c0.3,0.1,0.7,0.1,1,0.2c2.6,0.5,5.1,1.3,7.7,2.1s5.1,1.6,7.6,2.2c2.6,0.7,5.2,1.2,7.9,1.5
			c0.3,0,0.7,0.1,1,0.1c0.5,0,0.9-0.4,0.9-0.9c0-0.5-0.4-0.9-0.9-0.9c-0.3,0-0.7-0.1-1-0.1c-0.2,0-0.3,0-0.5-0.1l-0.2,0l-0.1,0
			c-0.1,0-0.1,0,0,0c-0.7-0.1-1.3-0.2-2-0.3c-1.3-0.2-2.6-0.5-3.9-0.9c-2.6-0.7-5.2-1.5-7.8-2.3s-5.2-1.6-7.8-2.2
			c-2.7-0.6-5.6-0.8-8.2,0.3c-2.1,0.8-3.7,2.6-4.3,4.8c-0.1,0.3-0.1,0.6-0.1,0.9c0,0.5,0.4,0.9,0.9,0.9
			C51.4,107.3,51.8,106.9,51.8,106.4"/>
		<path id="パス_2318" class="st6" d="M58,101.2c5,0.4,10,0.8,15.1,1.2c2.5,0.2,5,0.4,7.5,0.7c0.6,0.1,1.2,0.2,1.8,0.2l0.2,0
			l0.1,0l0.4,0.1l0.9,0.1c1.2,0.2,2.5,0.4,3.7,0.6c2.7,0.5,5.5,1,8.2,1.6c0.5,0.1,1-0.1,1.1-0.6s-0.1-1-0.6-1.1
			c-4.9-1.1-9.8-2-14.8-2.6c-5-0.6-10-1-15-1.4L58,99.5c-0.5,0-0.9,0.4-0.9,0.9C57.2,100.8,57.5,101.2,58,101.2"/>
		<path id="パス_2319" class="st7" d="M94.4,110.4c0.3,0,0.6-0.1,0.9-0.1l-0.2,0c2.2-0.3,4.3-0.4,6.5-0.5l1.8-0.1
			c0.2,0,0.5-0.1,0.6-0.3c0.3-0.3,0.3-0.9,0-1.2c-0.2-0.2-0.4-0.3-0.6-0.3l-3.6,0.2c-1.2,0.1-2.4,0.2-3.6,0.3
			c-0.7,0.1-1.5,0.2-2.2,0.3c-0.2,0.1-0.4,0.2-0.5,0.4c-0.2,0.4-0.1,1,0.3,1.2l0.2,0.1C94.1,110.4,94.2,110.4,94.4,110.4"/>
		<path id="パス_2320" class="st7" d="M145.8,113.1H56.1c-0.2,0-0.4-0.2-0.5-0.6c0-0.4,0.2-0.8,0.4-0.8h89.7
			c0.2,0,0.4,0.2,0.5,0.6C146.2,112.7,146,113.1,145.8,113.1L145.8,113.1L145.8,113.1z"/>
		<path id="パス_2321" class="st8" d="M145.6,71.8l-49.5-0.1c-0.8,0.1-1.5,0.7-1.8,1.4l-8.6,35.3H72.3c-0.8,0-1.5,0.7-1.5,1.5v1.9
			h68.8v-3.5l7.2-35.2C147.1,72.1,146.6,71.8,145.6,71.8L145.6,71.8z"/>
		<path id="パス_2322" class="st7" d="M71.5,111.7l67.5-0.5v-2.8c0,0,0-0.1,0-0.1l7.5-34.1c0-0.5-0.1-1-0.4-1.5
			c-0.4-0.3-0.8-0.5-1.2-0.7l-47.4,0.1c-1.2,0-2.3,0.8-2.8,1.9l-8.3,34.6c-0.1,0.3-0.3,0.5-0.7,0.5H72.3c-0.5,0-0.8,0.4-0.8,0.8v1.3
			L71.5,111.7z M139.6,112.4H70.8c-0.4,0-0.7-0.3-0.7-0.7l0,0v-1.9c0-1.2,1-2.2,2.2-2.2l0,0h12.9l8.2-34.1c0.5-1.7,2.2-3.2,3.7-3
			l47.7,0c0.8,0.2,1.6,0.5,2.2,1.1c0.6,0.8,0.9,1.7,0.8,2.7l-7.5,34v3.4C140.3,112.1,140,112.4,139.6,112.4L139.6,112.4z"/>
		<path id="パス_2323" class="st7" d="M139.6,109H90.2c-0.3,0-0.6-0.2-0.7-0.6c-0.1-0.4,0.2-0.7,0.6-0.8c0,0,0.1,0,0.1,0h49.4
			c0.3,0,0.6,0.2,0.7,0.6C140.3,108.6,140.1,108.9,139.6,109C139.7,109,139.7,109,139.6,109L139.6,109z"/>
		<g id="グループ_2919" transform="translate(109.555 40.775)">
			<path id="多角形_57" class="st2" d="M12,27.5l1.4-8.9l6.9,5.6L12,27.5z"/>
			<path id="パス_2273" class="st2" d="M14.7,0C4.2,0,0,5.6,0,12.5S5.3,25,14.7,25s14.7-5.6,14.7-12.5S25.2,0,14.7,0z"/>
		</g>
		<g id="グループ_2920" transform="translate(117.11 46.243)">
			<g id="多角形_54" transform="translate(10.728 4.47) rotate(90)">
				<path class="st3" d="M5.4,4.9H0.9L3.1,1L5.4,4.9z"/>
				<path class="st3" d="M3.1,2L1.7,4.4h2.8L3.1,2 M3.1,0.4c0.1,0,0.3,0.1,0.3,0.2l2.4,4.2c0.2,0.3,0,0.6-0.3,0.6H0.7
					C0.4,5.4,0.2,5,0.4,4.8l2.4-4.2C2.9,0.5,3,0.4,3.1,0.4z"/>
			</g>
			<g id="楕円形_149" transform="translate(0 0)">
				<circle class="st5" cx="7.6" cy="7.6" r="7.6"/>
				<circle class="st9" cx="7.6" cy="7.6" r="6.8"/>
			</g>
		</g>
	</g>
</g>
</svg>
