<svg id="コンポーネント_32_63" data-name="コンポーネント 32 – 63" xmlns="http://www.w3.org/2000/svg" width="36" height="36" viewBox="0 0 36 36">
  <circle id="楕円形_134" data-name="楕円形 134" cx="18" cy="18" r="18" fill="#ef9cbf"/>
  <g id="多角形_54" data-name="多角形 54" transform="translate(27 10) rotate(90)" fill="none">
    <path d="M6.611,2.431a1.6,1.6,0,0,1,2.778,0l5.243,9.175A1.6,1.6,0,0,1,13.243,14H2.757a1.6,1.6,0,0,1-1.389-2.394Z" stroke="none"/>
    <path d="M 7.999999523162842 2.624898910522461 C 7.895309448242188 2.624898910522461 7.634969711303711 2.654358863830566 7.479049682617188 2.927218437194824 L 2.236139297485352 12.10231876373291 C 2.081419944763184 12.37307834625244 2.185999870300293 12.61129856109619 2.238139152526855 12.70114898681641 C 2.290279388427734 12.79100894927979 2.445229530334473 12.99999809265137 2.757089614868164 12.99999809265137 L 13.24290943145752 12.99999809265137 C 13.55476951599121 12.99999809265137 13.70971965789795 12.79100894927979 13.76185989379883 12.70114898681641 C 13.81399917602539 12.61129856109619 13.9185791015625 12.37307834625244 13.76385974884033 12.10231876373291 L 8.520949363708496 2.927228927612305 C 8.365018844604492 2.654358863830566 8.104689598083496 2.624898910522461 7.999999523162842 2.624898910522461 M 7.999999523162842 1.624903678894043 C 8.541036605834961 1.624903678894043 9.082075119018555 1.89362907409668 9.389189720153809 2.431078910827637 L 14.63209915161133 11.60617828369141 C 15.24161911010742 12.67282867431641 14.4714298248291 13.99999904632568 13.24290943145752 13.99999904632568 L 2.757089614868164 13.99999904632568 C 1.528569221496582 13.99999904632568 0.7583799362182617 12.67282867431641 1.367899894714355 11.60617828369141 L 6.610809326171875 2.431078910827637 C 6.917924880981445 1.89362907409668 7.458962440490723 1.624903678894043 7.999999523162842 1.624903678894043 Z" stroke="none" fill="#fff"/>
  </g>
</svg>
