<?xml version="1.0" encoding="utf-8"?>
<!-- Generator: Adobe Illustrator 28.1.0, SVG Export Plug-In . SVG Version: 6.00 Build 0)  -->
<svg version="1.1" id="レイヤー_1" xmlns="http://www.w3.org/2000/svg" xmlns:xlink="http://www.w3.org/1999/xlink" x="0px"
	 y="0px" viewBox="0 0 226.2 221.7" style="enable-background:new 0 0 226.2 221.7;" xml:space="preserve">
<style type="text/css">
	.st0{fill:url(#長方形_481_00000122713983798971318420000005776797712293855626_);}
	.st1{enable-background:new    ;}
	.st2{fill:#EF9CBF;}
	.st3{fill:#FFFFFF;}
	.st4{clip-path:url(#SVGID_00000067205780128395833320000006712393479902705829_);}
	.st5{fill:#EF9CBF;stroke:#EF9CBF;stroke-width:0.5;}
</style>
<g id="グループ_3309" transform="translate(-1039.012 -2424.498)">
	<g id="グループ_567" transform="translate(1039.012 2424.498)">
		
			<linearGradient id="長方形_481_00000111149837680300161120000014198889903542412685_" gradientUnits="userSpaceOnUse" x1="-364.9623" y1="3.4111" x2="-366.2203" y2="3.4739" gradientTransform="matrix(210.989 0 0 210.095 77291.1484 -608.3792)">
			<stop  offset="0" style="stop-color:#FDFCDC"/>
			<stop  offset="1" style="stop-color:#FDC0DA"/>
		</linearGradient>
		<path id="長方形_481" style="fill:url(#長方形_481_00000111149837680300161120000014198889903542412685_);" d="M120.2,11.6
			h0.9c58,0,105,47,105,105l0,0c0,58-47,105-105,105h-0.9c-58,0-105-47-105-105l0,0C15.2,58.7,62.2,11.6,120.2,11.6z"/>
		<g class="st1">
			<path class="st2" d="M2.7,34.3c0-10.7,4.6-17.1,12.5-17.1s12.5,6.4,12.5,17.1s-4.6,17.1-12.5,17.1S2.7,45.1,2.7,34.3z M19.9,34.3
				c0-6.4-1.7-10-4.7-10s-4.7,3.6-4.7,10c0,6.5,1.7,10,4.7,10S19.9,40.8,19.9,34.3z"/>
			<path class="st2" d="M31.9,45.9l3.1-3.1c0.3-0.3,0.8-0.4,1.2-0.1c0,0,3,2.3,5.4,2.3c2.1,0,4.3-1.8,4.3-3.9c0-2.2-2.2-4-5.8-4
				h-2.7c-0.5,0-0.9-0.4-0.9-0.9v-4.1c0-0.5,0.4-0.9,0.9-0.9h2.7c3.4,0,5.2-1.7,5.2-3.8s-1.8-3.7-3.9-3.7c-2.2,0-3.5,1.1-4.3,2
				c-0.3,0.4-0.9,0.4-1.3,0l-3-2.9c-0.4-0.3-0.3-0.9,0-1.3c0,0,4-4.3,9.4-4.3c5.7,0,10.6,3.5,10.6,9c0,3.8-2.8,6.6-5,7.6v0.1
				c2.3,1,5.9,4,5.9,8.2c0,5.3-4.7,9.4-11.4,9.4c-6.2,0-9.3-3-10.3-4.4C31.6,46.8,31.7,46.2,31.9,45.9z"/>
		</g>
		<path id="長方形_543" class="st3" d="M120.2,18.8L120.2,18.8c54.1,0,97.9,43.8,97.9,97.9l0,0c0,54.1-43.8,97.9-97.9,97.9l0,0
			c-54.1,0-97.9-43.8-97.9-97.9l0,0C22.4,62.6,66.2,18.8,120.2,18.8z"/>
	</g>
	<g>
		<g>
			<defs>
				<rect id="SVGID_1_" x="2001.9" y="5033.4" width="116.4" height="88.8"/>
			</defs>
			<clipPath id="SVGID_00000040556877975527236660000013523543590681226889_">
				<use xlink:href="#SVGID_1_"  style="overflow:visible;"/>
			</clipPath>
			
				<g id="グループ_637" transform="translate(903.008 2531.739)" style="clip-path:url(#SVGID_00000040556877975527236660000013523543590681226889_);">
				<path id="パス_1011" class="st2" d="M303.8,40.6c-0.8,0-0.6-0.7-0.6-1.5v-60c0-3.3-2.7-6.9-6-6.9h-86.1c-3.3,0-6,3.6-6,6.9v60
					c0,0.8-0.7,1.5-1.5,1.5s-0.6-0.7-0.6-1.5v-60c0-5,4.1-9.1,9.1-9.1h84.3c5,0,9.1,4.1,9.1,9.1v60c0,0.8,0.2,1.5-0.6,1.5"/>
				<path id="パス_1012" class="st2" d="M304,58.8h-99.8c-4.6,0-8.3-3.7-8.3-8.3v-4.3c0-0.8,0.7-1.5,1.5-1.5h44.3
					c0.5,0,1,0.2,1.2,0.6l1.6,2.3h19.2l1.6-2.3c0.3-0.4,0.7-0.6,1.2-0.6h44.3c0.8,0,1.5,0.7,1.5,1.5v4.3
					C312.3,55.1,308.6,58.8,304,58.8 M198,46.8v3.7c0,2.9,2.4,6.2,5.3,6.2h101.6c2.9,0,5.3-3.3,5.3-6.2v-3.7h-43.7l-1.6,2.3
					c-0.3,0.4-0.7,0.6-1.2,0.6h-19c-0.5,0-1-0.2-1.2-0.6l-1.6-2.3C241.9,46.8,198,46.8,198,46.8z"/>
			</g>
		</g>
	</g>
	<g id="グループ_636" transform="translate(917.77 2510.135)">
		<path id="パス_952" class="st3" d="M284.4,74.6l-64.7,0.1c-1.9,3.9-6.5,5.5-10.4,3.7c-1.7-0.8-3-2.2-3.8-3.9c-1-2-1.1-6.5-1-7.4
			c-0.3-8.4-0.4-14.2-0.7-22.7l2.2,0.2c-0.1-1.2-0.5-2.4-1.3-3.4c-1.1-1.5-2.3-1.7-4.5-3c-2.4-1.4-1.5-1.5-6.1-4.9
			c-1.9-1.4-2.6-2.9-4.5-4.2c-0.5-0.4-0.9-1-0.9-1.7c-0.1-0.6,0.1-1,0.7-1.1l-2.6-3.2c-0.4-0.7-0.3-1.5,0.2-2.1
			c0.3-0.3,0.6-0.4,1-0.5c-0.8-0.6-1-1.7-0.5-2.5c0.9-0.5,2-0.3,2.5,0.6l0,0c0.2-0.5,0.6-0.9,1.1-1.1c1.1-0.4,2,0.5,3.6,2.1
			c2.1,2.2,2.7,3,3.4,3.8c1.6,1.6,3.5,2.8,5.6,3.4l-1.1-6c0.6-1.4,1.2-1.5,1.4-1.5c0.5,0,0.9,0.7,1.8,2.9c1,2.1,1,2.6,1.5,3.7
			c1.2,2.6,2.1,2.6,3.1,4.7c0.8,1.8,0.2,3,0.9,5c0.6,1.8,1.3,4.7,2.5,8.4l2.9-0.5c0.1-1.4,0.7-2.7,1.7-3.7c0.4-0.3,0.8-0.6,1.3-0.8
			c2-0.9,4.1-1.6,6.3-2.1c1.1-6.4,1.7-12.8,1.8-19.2c-1.5-1.1-2.5-2.8-2.5-4.7c0.1-1.5,0.7-2.9,1.8-3.9c-0.9-2.5-1.2-5.2-1-7.9
			c0.7-8,6-14.9,13.6-17.6c8.4-2.8,15.7,1.4,17.1,2.3c0.8,0.5,8.5,5.4,10,14.9c0.4,3,0.2,6.1-0.7,9c2.1,1.9,2.2,5.1,0.2,7.2
			c-0.2,0.3-0.5,0.5-0.8,0.7c0.8,6.9,1.8,13.6,3.1,20.1l5,1.7c1.6,0.7,3,1.9,4,3.4C280.9,53.3,283.1,63.8,284.4,74.6"/>
		<path id="パス_954" class="st5" d="M217.8,41.7c0,0.4-0.1,0.8-0.3,1.1c-0.2,0.4-0.4,0.7-0.7,1c-0.2,0.2-0.6,0.2-0.8-0.1l0,0
			c-0.2-0.3-0.2-0.7-0.1-1c0.2-0.6,0.6-1.2,1.2-1.6c0.2-0.1,0.5-0.1,0.7,0.2c0,0.1,0.1,0.2,0.1,0.2L217.8,41.7"/>
		<path id="パス_955" class="st5" d="M203.8,44c1.9-0.1,4.7-0.3,6.6-0.5c1.6-0.1,4.3-0.3,5.8-0.5c0.2,0,0.5-0.1,0.7-0.1h0.1
			c0.3,0,0.5,0.1,0.6,0.4c0,0.2-0.1,0.4-0.3,0.5c-0.3,0.1-0.6,0.2-0.9,0.3c-3,0.7-6.2,1-9.3,1c-1.1,0-2.3,0-3.4-0.2
			c-0.3,0-0.4-0.3-0.4-0.6C203.4,44.2,203.6,44,203.8,44"/>
		<path id="パス_956" class="st5" d="M204.3,44.3c0.5,5.4,0.7,11,0.8,16.3c0.1,3.3,0.1,6.5,0.1,9.8c0,0.3-0.2,0.5-0.5,0.5
			c-0.3,0-0.5-0.2-0.5-0.4c-0.5-5.4-0.7-11-0.8-16.3c-0.1-3.3-0.1-6.5-0.1-9.8c0-0.3,0.2-0.5,0.5-0.5
			C204,43.9,204.2,44.1,204.3,44.3"/>
		<path id="パス_957" class="st5" d="M205.3,71.9c0.6,4.2,4.5,7.1,8.7,6.5c3.7-0.7,6.3-4,6.1-7.7c-1.1-8.3-2.3-17.1-3.2-25.4
			l-0.2-1.6c0-0.3,0.2-0.5,0.4-0.5c0.3,0,0.5,0.1,0.5,0.4c0.6,3.6,1.4,9.2,2,12.9c0.6,4.1,1.4,9.7,2,13.9c0.3,4.6-2.9,8.6-7.4,9.4
			c-4.2,0.6-8.2-2-9.5-6c-0.2-0.6-0.3-1.1-0.3-1.7c0-0.3,0.2-0.5,0.4-0.5C205,71.5,205.3,71.6,205.3,71.9"/>
		<path id="パス_958" class="st5" d="M205.3,34.6c-1-1.5-2.6-2.5-4.3-2.9c-1.3-0.3-2.9-0.2-4.3-0.6c-0.8-0.2-1.6-0.5-2.2-1
			c-1.1-0.8-2.1-1.8-3-2.8c-0.4-0.5-1-0.8-1.6-0.9h-0.1l0,0c-0.1,0.2-0.2,0.3-0.2,0.5l0,0l0,0l0,0l0,0l0,0c0.1,1.3,1.4,2.2,2.4,3.2
			c1.4,1.4,3.2,3.1,4.6,4.5c1,1,2,1.9,3.2,2.6c1.2,0.7,2.6,1.3,3.8,2.1c1.8,1.1,2.9,3.1,2.9,5.3c0,0.3-0.2,0.5-0.5,0.5
			c-0.2,0-0.4-0.2-0.5-0.5c0-1.8-1-3.4-2.5-4.3c-1.2-0.7-2.7-1.2-3.9-1.9c-1.3-0.8-2.4-1.7-3.5-2.7c-1.2-1.2-3-2.8-4.1-4
			c-1.3-1.3-3.2-2.4-3.4-4.4c0-0.1,0-0.3,0-0.4c0.1-0.3,0.2-0.6,0.3-0.8c0.1-0.2,0.2-0.3,0.3-0.5c0.8-0.8,2.1-0.4,2.9,0.1
			c0.8,0.6,1.5,1.3,2.1,2.1c0.5,0.4,0.9,0.9,1.4,1.3c0.5,0.4,1.1,0.7,1.8,0.9c1.4,0.3,2.8,0.3,4.3,0.7c2,0.6,3.7,1.8,4.8,3.6
			c0.1,0.2,0,0.5-0.2,0.6C205.7,34.8,205.5,34.8,205.3,34.6"/>
		<path id="パス_959" class="st5" d="M188.9,26.2c-0.9-1.1-2.2-2.1-2.7-3.5c-0.5-1.6,0.7-3.4,2.5-2.6c0.8,0.4,1.5,1,2.1,1.8
			c0.5,0.6,1,1.2,1.5,1.8c1.6,1.7,3.4,3.3,5.2,4.8c0.2,0.2,0.3,0.5,0.2,0.7l0,0c-0.2,0.2-0.5,0.3-0.7,0.1l-0.6-0.4
			c-0.2-0.1-0.3-0.4-0.1-0.7c0.1-0.2,0.4-0.3,0.6-0.2l0.6,0.3l-0.6,0.9c-2.1-1.3-4-2.8-5.7-4.6c-0.6-0.6-1.1-1.2-1.6-1.9
			c-0.2-0.3-0.5-0.6-0.7-0.8c-0.2-0.2-0.5-0.4-0.8-0.6c-0.1-0.1-0.2-0.1-0.3-0.1s-0.1,0.1-0.2,0.3c-0.3,0.7,0.3,1.5,0.7,2.1
			c0.5,0.6,1,1.3,1.4,2c0.1,0.2,0.1,0.5-0.2,0.7C189.3,26.5,189,26.4,188.9,26.2"/>
		<path id="パス_960" class="st5" d="M187.8,20.6c-0.5-0.5-0.7-1.2-0.8-1.8c0.1-0.9,0.8-1.7,1.7-1.7h0.1c0.7,0.2,1.3,0.6,1.8,1.1
			c2.8,3.1,5.9,6,9.2,8.6c0.3,0.1,0.3,0.4,0.2,0.7c0,0.1-0.1,0.2-0.2,0.2c-0.3,0.1-0.6,0-0.8-0.2s-0.1-0.5,0.1-0.7
			c0.1,0,0.1-0.1,0.2-0.1c0.3,0,0.5,0.1,0.5,0.4c0-0.1-0.1-0.2-0.1-0.3c-0.1-0.1-0.2-0.1-0.3-0.1c-0.2,0.2-0.3,0.4-0.3,0.6
			s0.1,0.3,0.2,0.4l0,0l0,0l-0.3-0.1c-1.5-0.9-2.9-1.9-4.2-3c-1.9-1.6-3.6-3.4-5.2-5.3c-0.3-0.3-0.7-0.9-1.1-0.8
			c-0.6,0.4-0.1,1.2,0.1,1.7c0.1,0.2,0,0.5-0.2,0.6C188.2,20.9,187.9,20.8,187.8,20.6"/>
		<path id="パス_961" class="st5" d="M190.5,19.9c-0.4-0.5-0.7-1.1-0.6-1.7c0.1-0.7,0.7-1.3,1.4-1.5c0.8-0.1,1.6,0.1,2.2,0.6
			c0.3,0.2,0.6,0.5,0.9,0.8c0.3,0.2,0.6,0.6,0.8,0.8c0.6,0.7,1.2,1.3,1.7,2.1c0.2,0.2,0.3,0.4,0.5,0.6c0.8,0.8,1.6,1.5,2.5,2.2
			c1.2,0.9,2.6,1.7,3.8,2.6c0.2,0.2,0.3,0.5,0.1,0.7c-0.1,0.2-0.4,0.3-0.6,0.1c-1.4-0.7-2.8-1.4-4.1-2.3c-1.2-0.7-2.3-1.7-3.2-2.8
			c-0.6-0.7-1.2-1.5-1.8-2.2c-0.2-0.2-0.6-0.6-0.8-0.8c-0.4-0.5-0.9-0.9-1.5-1.2c-0.4-0.1-0.8,0.1-0.9,0.5v0.1
			c0,0.3,0.1,0.6,0.3,0.8c0.1,0.2,0.1,0.5-0.2,0.7C190.9,20.1,190.6,20.1,190.5,19.9"/>
		<path id="パス_962" class="st5" d="M203.2,27.5c-0.1-1.4-0.3-2.9-0.7-4.2c-0.3-0.8-0.4-1.6-0.4-2.4c0.1-1.1,1.1-2,2.2-1.9h0.1
			c1,0.2,1.5,1.3,1.8,2.1c0.5,1.4,0.9,2.8,1.5,4.1c0.7,1.7,2.1,3,2.9,4.6c0.4,0.7,0.6,1.5,0.8,2.2c0.2,0.9,0.2,1.8,0.4,2.7
			c0.6,2.7,1.3,5.4,1.9,8l0.1,0.5l0.1,0.3v0.1l0,0l0,0c0.1,0.2,0.1,0.5-0.1,0.7s-0.6,0.1-0.7-0.2c0-0.1-0.1-0.1-0.1-0.2
			c-0.1-0.3-0.2-0.6-0.3-1c-0.7-2.5-1.4-5-2.1-7.5l-0.1-0.5c-0.2-0.9-0.3-1.8-0.5-2.7c-0.3-1-0.7-1.9-1.3-2.8
			c-0.7-0.9-1.3-1.8-1.9-2.8c-0.8-1.7-1.5-3.4-2.1-5.2c-0.2-0.4-0.4-1.4-0.9-1.3c-0.9,0.4-0.4,1.8-0.3,2.6c0.3,1.5,0.5,3,0.5,4.5
			c0,0.3-0.2,0.5-0.5,0.5C203.4,27.9,203.2,27.7,203.2,27.5"/>
		<path id="パス_969" class="st5" d="M268.7,75.3c-0.5-5.2-0.6-10.4-0.4-15.5c0-0.3,0.2-0.5,0.5-0.5c0.2,0,0.4,0.2,0.5,0.4
			c0.5,5.2,0.6,10.4,0.4,15.5c0,0.3-0.3,0.5-0.5,0.4C268.9,75.7,268.7,75.5,268.7,75.3"/>
		<path id="パス_970" class="st5" d="M263.9,35.7c2.6,0.4,5.2,1.1,7.7,2.2c0.9,0.3,1.7,0.8,2.4,1.3c0.2,0.2,0.2,0.5,0.1,0.7
			s-0.4,0.2-0.6,0.1c-0.4-0.2-0.8-0.3-1.2-0.4c-1.9-0.6-4.3-1.4-6.2-2c-0.8-0.3-1.6-0.6-2.5-0.9c-0.2-0.1-0.4-0.4-0.3-0.6
			C263.5,35.8,263.7,35.6,263.9,35.7"/>
		<path id="パス_971" class="st5" d="M277.2,41.8c0.5,0.6,0.9,1.2,1.2,1.9c0.9,2,1.6,4,2.2,6.2c2.1,8.3,3.6,16.8,4.5,25.4
			c0,0.3-0.2,0.5-0.4,0.5c-0.2,0-0.5-0.1-0.5-0.4c-1.6-8.4-2.9-16.9-4.9-25.2c-0.3-1.4-0.7-2.7-1.1-4.1c-0.4-1.3-0.9-2.6-1.6-3.7
			c-0.2-0.2-0.1-0.5,0.1-0.7C276.7,41.5,277,41.6,277.2,41.8"/>
		<path id="パス_972" class="st5" d="M253.5,75.2c0.3-13.6,0.9-27.4,2-41c0-0.3,0.3-0.5,0.5-0.4c0.2,0,0.4,0.2,0.4,0.5
			c-0.1,5.1-0.3,10.3-0.5,15.4c-0.2,4.8-0.5,10.6-0.8,15.4c-0.2,3.4-0.4,6.8-0.7,10.2c0,0.3-0.3,0.5-0.5,0.4
			C253.7,75.7,253.5,75.5,253.5,75.2"/>
		<path id="パス_973" class="st5" d="M257.6,33.2c-0.8-0.4-1.5-0.8-2.2-1.4l-0.3-0.2c-0.1-0.1-0.3-0.2-0.4-0.4
			c-0.2-0.2-0.2-0.5,0-0.7c0.1-0.1,0.2-0.1,0.3-0.2c1.3-0.2,2.8,1,3.3,2.1c0.1,0.3,0,0.6-0.2,0.7S257.7,33.2,257.6,33.2"/>
		<path id="パス_974" class="st5" d="M263.7,38.8c1.3,1.4,2.3,3.1,3.1,4.9c0,0.1,0.1,0.2,0.1,0.3c0.1,0.3,0,0.6-0.2,0.8
			c-0.1,0.1-0.2,0.2-0.3,0.2c-0.9,0.7-1.9,1.3-2.9,2c-0.9,0.6-1.8,1.1-2.8,1.6c-0.3,0.1-0.6,0-0.7-0.2s-0.1-0.5,0.1-0.6
			c0.8-0.7,1.7-1.3,2.5-2c0.9-0.7,1.8-1.3,2.7-2h0.1l0,0l0,0c-0.2,0.2-0.2,0.5-0.1,0.7c-0.3-0.8-0.6-1.6-1-2.4
			c-0.5-0.9-1-1.8-1.5-2.8c-0.1-0.2,0-0.6,0.2-0.7C263.3,38.5,263.6,38.6,263.7,38.8"/>
		<path id="パス_975" class="st5" d="M260.1,47.3c1.5,1.1,3.1,2.2,4.5,3.4c0.5,0.4,1,0.8,1.5,1.2c0.2,0.1,0.3,0.4,0.3,0.6
			c-0.1,0.5-0.2,1.8-0.3,2.3c-0.5,3.2-1.3,6.4-2.2,9.5c-0.9,2.8-1.9,5.7-2.9,8.4c-0.4,0.9-0.7,1.8-1.1,2.8c-0.1,0.3-0.4,0.4-0.7,0.3
			c-0.3-0.1-0.4-0.4-0.3-0.7c1.2-3.7,2.5-7.5,3.5-11.3c0.9-3,1.7-6.1,2.2-9.3c0.1-0.5,0.2-1.6,0.3-2.2l0.3,0.6
			c-1.3-1.1-3-2.5-4.3-3.7l-1.4-1.1c-0.2-0.2-0.2-0.5,0-0.7C259.6,47.2,259.9,47.2,260.1,47.3"/>
		<path id="パス_976" class="st5" d="M224.2,59.8c0.2,5.2,0.1,10.4-0.4,15.5c0,0.3-0.3,0.5-0.5,0.4c-0.2,0-0.4-0.2-0.4-0.4
			c-0.2-3.9-0.2-7.8,0.1-11.7c0.1-1.3,0.2-2.6,0.3-3.9c0-0.3,0.3-0.5,0.5-0.4C224,59.3,224.2,59.5,224.2,59.8"/>
		<path id="パス_977" class="st5" d="M218.5,39.1c1-0.6,2-1.1,3.1-1.5c3.1-1.3,6.4-2.1,9.7-2.6c0.3,0,0.5,0.1,0.5,0.4
			c0,0.2-0.1,0.4-0.3,0.5c-1,0.4-2.1,0.7-3.2,1c-2.5,0.7-5.4,1.7-7.8,2.5c-0.5,0.1-1,0.3-1.5,0.5c-0.2,0.1-0.5,0-0.6-0.2
			C218.3,39.5,218.4,39.3,218.5,39.1"/>
		<path id="パス_978" class="st5" d="M238.2,75.3c-1-13.6-1.7-27.4-2-41c0-0.3,0.2-0.5,0.5-0.5c0.2,0,0.5,0.2,0.5,0.4
			c0.4,5.1,0.7,10.2,1,15.4c0.2,4.8,0.5,10.6,0.7,15.4c0.1,3.4,0.2,6.8,0.3,10.3c0,0.3-0.2,0.5-0.5,0.5
			C238.4,75.7,238.2,75.5,238.2,75.3"/>
		<path id="パス_979" class="st5" d="M231.8,48.6c-0.9-0.5-1.8-1-2.7-1.5c-0.9-0.6-1.7-1.2-2.6-1.8c-0.2-0.2-0.4-0.3-0.6-0.5
			c-0.1-0.1-0.1-0.1-0.1-0.2c0-0.1-0.1-0.2-0.1-0.3c0-0.3,0-0.2,0-0.2l0,0V44c0.3-0.8,0.6-1.5,1-2.3c1.6-2.7,3.5-5.3,5.7-7.5
			c1.2-1.2,3.6-3.7,5.2-3.8c0.3,0,0.5,0.2,0.5,0.5s-0.2,0.5-0.4,0.5c-0.4,0.1-0.8,0.3-1.2,0.6c-1.2,0.9-2.3,1.9-3.3,3.1
			c-2.1,2.2-3.8,4.7-5.3,7.4c-0.4,0.7-0.7,1.4-0.9,2.1l0,0c0,0,0,0,0-0.2c0-0.1,0-0.2-0.1-0.3c0-0.1-0.1-0.1-0.1-0.2l0,0
			c0.7,0.5,1.6,1.1,2.3,1.6c1.1,0.7,2.1,1.5,3,2.4c0.2,0.2,0.2,0.5,0,0.7C232.3,48.7,232,48.7,231.8,48.6"/>
		<path id="パス_980" class="st5" d="M232.8,75.4c-2.3-5.5-4.2-11.2-5.6-17c-0.5-2-0.8-3.9-1-5.9c0-0.3,0.1-0.5,0.3-0.7
			c1.7-1.4,3.5-2.8,5.3-4.1c0.6-0.4,1.2-0.9,1.9-1.3c0.2-0.2,0.6-0.1,0.7,0.2c0.1,0.2,0.1,0.5-0.1,0.6c-0.6,0.5-1.1,1-1.7,1.5
			c-1.6,1.4-3.5,2.9-5.1,4.3l0.3-0.7c0.6,5.8,2.4,11.5,4.2,17.1c0.6,1.9,1.2,3.8,1.9,5.6c0.1,0.3,0,0.6-0.3,0.7
			C233.2,75.8,232.9,75.7,232.8,75.4"/>
		<path id="パス_981" class="st5" d="M236.7,35.4c0.7-1.1,1.1-2.3,1.3-3.6c0.2-1.4,0.2-2.7,0.4-4.1c0-0.3,0.3-0.5,0.5-0.4
			c0.2,0,0.4,0.2,0.4,0.4c0.1,0.7,0.2,1.4,0.3,2.1c0.1,1.5-0.1,3-0.8,4.4c-0.3,0.7-0.8,1.3-1.4,1.8c-0.2,0.2-0.5,0.1-0.7-0.1
			C236.6,35.8,236.6,35.6,236.7,35.4"/>
		<path id="パス_982" class="st5" d="M254.3,27.3c0,2.1,0.1,4.2,0.5,6.2c0.1,0.6,0.4,1.1,0.8,1.5c0.2,0.2,0.3,0.5,0.1,0.7
			c-0.1,0.2-0.4,0.2-0.6,0.2c-0.4-0.2-0.8-0.5-1.1-0.8c-0.7-1-1.1-2.2-1.2-3.4c-0.1-1.5,0-3,0.3-4.5c0.1-0.3,0.3-0.4,0.6-0.3
			C254.2,26.9,254.3,27.1,254.3,27.3"/>
		<path id="パス_983" class="st5" d="M237.7,44.9c0.7,0.8,3,0.9,4,1c3.1,0.2,6.2,0.1,9.3-0.2c0.8-0.1,1.5-0.2,2.3-0.3
			c0.5-0.1,1-0.3,1.5-0.5c0.1-0.1,0.3-0.2,0.4-0.3c0.2-0.2,0.5-0.2,0.7,0l0,0c0.5,0.6-0.7,1.3-1.1,1.5c-3.5,1.5-9.4,1.6-13.2,1.2
			c-1.4-0.2-4.1-0.6-4.7-2c-0.1-0.2,0-0.5,0.3-0.6C237.3,44.6,237.6,44.7,237.7,44.9"/>
		<path id="パス_984" class="st5" d="M261.9,9.5c0.2,5-0.4,10.2-3.2,14.4c-5.5,8-18.6,8.7-24.5,0.7c-1.2-1.7-2.1-3.6-2.6-5.6
			c-0.8-2.9-1.3-6-1.3-9c0-0.3,0.2-0.5,0.5-0.5c0.2,0,0.5,0.2,0.5,0.4c0.1,4.4,1.2,8.7,3.3,12.6c3.6,6.1,12.1,7.7,18.2,4.5
			c1.9-1,3.6-2.4,4.8-4.1c0.5-0.8,1-1.6,1.4-2.5c0.4-0.9,0.7-1.8,1-2.7v0.2v-0.1v-0.1c0.5-2,0.8-4.1,0.9-6.2c0-0.7,0-1.4,0-2.1
			c0-0.3,0.2-0.5,0.5-0.5C261.7,9,261.9,9.2,261.9,9.5"/>
		<path id="パス_985" class="st5" d="M230.6,10c-1.7-0.6-3.1,0.1-3.4,1.9c-0.3,1.6,0.8,3.1,1.9,4.2c0.2,0.2,0.2,0.5,0,0.7l0,0
			c-0.3,0.3-0.6,0-0.9-0.2c-0.5-0.4-1-0.8-1.4-1.3c-0.7-0.9-1.1-1.9-1.1-3c0-0.9,0.3-1.7,0.7-2.4c0.5-0.8,1.3-1.3,2.2-1.4
			c0.8-0.1,1.7,0.1,2.4,0.6c0.2,0.1,0.3,0.4,0.1,0.7C231.1,10,230.9,10.1,230.6,10"/>
		<path id="パス_986" class="st5" d="M231.1,17.3c0.4-0.2,1-0.1,1.2,0.4c0.2,0.3,0.1,0.7-0.2,0.9c-0.2,0.1-0.5,0.2-0.8,0.1
			c-0.3-0.1-0.5-0.2-0.6-0.5C230.6,17.9,230.8,17.5,231.1,17.3L231.1,17.3"/>
		<path id="パス_987" class="st5" d="M261.4,9.1c0.8-0.6,1.8-0.7,2.8-0.5H264l0,0h0.1c0.5,0.1,1,0.3,1.4,0.7
			c1,0.9,1.5,2.3,1.3,3.7c-0.2,1.2-0.9,2.4-1.8,3.2c-0.3,0.3-0.6,0.5-0.9,0.7c-0.2,0.2-0.5,0.1-0.7-0.1l0,0
			c-0.1-0.2-0.1-0.5,0.1-0.6c0.2-0.3,0.5-0.5,0.7-0.8c0.8-0.9,1.3-2.1,1.2-3.4c-0.1-0.5-0.3-1.1-0.6-1.5c-0.2-0.3-0.5-0.5-0.8-0.6
			h0.2l0,0h-0.1c-0.5-0.2-1-0.2-1.5-0.1c-0.2,0-0.4,0.1-0.5,0.1c-0.3,0.1-0.5-0.1-0.6-0.3C261.1,9.5,261.2,9.3,261.4,9.1"/>
		<path id="パス_988" class="st5" d="M261.7,18.2c-0.3,0.5-0.9,0.6-1.3,0.4l0,0c-0.3-0.2-0.4-0.6-0.2-0.9c0.1-0.2,0.3-0.4,0.6-0.4
			C261.3,17,262,17.5,261.7,18.2"/>
		<path id="パス_989" class="st5" d="M249.4-3.8c3.6,1.1,5.3,4.8,7.1,7.8c1.4,2.3,3.6,3.9,6.1,4.5c0.8,0.2,1.7,0.2,2.5,0.2
			c0.3,0,0.5,0.2,0.5,0.4c0,0.2-0.1,0.5-0.4,0.5c-1.9,0.3-3.9,0.1-5.6-0.8c-2.7-1.4-4.2-3.5-5.6-6.1c-1.3-2.2-2.6-4.5-5-5.6
			c-0.2-0.1-0.3-0.4-0.2-0.6C248.9-3.7,249.1-3.8,249.4-3.8"/>
		<path id="パス_990" class="st5" d="M239.9-4c-0.4,0.3-0.8,0.6-1.1,1c-0.2,0.2-0.4,0.5-0.6,0.7c-1,1.6-0.6,3.3-1.3,5.3
			c-1,2.9-3.5,5-6.4,5.7c-0.3,0.1-0.5-0.1-0.6-0.4c0-0.2,0.1-0.5,0.3-0.5c2.5-0.8,4.4-2.7,5.3-5.2c0.2-0.6,0.3-1.3,0.4-1.9
			c0.1-1.3,0.5-2.6,1.3-3.7c0.3-0.3,0.5-0.5,0.8-0.8c0.4-0.3,0.9-0.7,1.3-0.9c0.2-0.1,0.5-0.1,0.7,0.2C240.2-4.4,240.1-4.1,239.9-4"
			/>
		<path id="パス_991" class="st5" d="M245-16.9c-3,0.2-6,1.2-8.6,2.9c-5.7,3.6-9.9,10.1-9.9,17c0,2.3,0.6,4.5,1.6,6.5
			c0.1,0.2,0,0.5-0.2,0.6c-0.2,0.1-0.5,0-0.6-0.2c-0.8-1.4-1.4-2.9-1.8-4.5c-1.3-6.5,1.7-13.2,6.3-17.6c3.6-3.6,8.3-5.6,13.2-5.7
			c0.3,0,0.5,0.2,0.5,0.5C245.5-17.2,245.3-17,245-16.9"/>
		<path id="パス_992" class="st5" d="M247.1-17.9c11.4,0,22.3,11.9,19.9,23.4c-0.4,1.6-1,3.2-1.9,4.6c-0.1,0.2-0.4,0.3-0.7,0.2
			c-0.2-0.1-0.3-0.4-0.2-0.6c0.7-1.4,1.2-2.8,1.5-4.3c1.3-7.8-3.6-15.4-10.1-19.3c-2.4-1.8-5.4-2.8-8.5-3c-0.3,0-0.5-0.3-0.4-0.5
			C246.7-17.7,246.9-17.9,247.1-17.9"/>
		<path id="パス_993" class="st5" d="M267.8,36.5c-0.7-2.2-1.2-4.5-1.6-6.8c-0.5-3.2-1-6.5-1.2-9.7c-0.2-1.9-0.2-3.7-0.2-5.6
			c0-0.3,0.2-0.5,0.5-0.5c0.2,0,0.4,0.2,0.5,0.4c0,0.4,0.1,1,0.1,1.4c0.4,4.1,1,8.3,1.5,12.3c0.3,2,0.6,4.1,0.9,6.1
			c0.1,0.7,0.3,1.4,0.4,2c0,0.3-0.1,0.5-0.4,0.6C268.1,36.9,267.9,36.7,267.8,36.5"/>
		<path id="パス_994" class="st5" d="M228,14.6c0.1,1.3,0.2,2.7,0.2,4.1c0,2.2-0.1,4.5-0.2,6.7c-0.2,3.1-0.5,6.3-1.1,9.3
			c-0.1,0.4-0.2,0.9-0.3,1.3c-0.1,0.3-0.3,0.4-0.6,0.3c-0.2-0.1-0.4-0.3-0.4-0.5c0.1-0.4,0.1-0.9,0.2-1.3c0.5-4.8,0.7-9.7,1.1-14.5
			c0.1-1.7,0.2-3.6,0.2-5.3c0-0.3,0.2-0.5,0.5-0.5C227.7,14.2,227.9,14.3,228,14.6"/>
		<path id="パス_995" class="st5" d="M258.3,31.9c0.5,2.8,0.7,5.6,0.8,8.4c0.1,1.9,0.1,3.8-0.2,5.7c-0.3,3-1.9,5.7-4.3,7.5
			c-0.2,0.1-0.5,0.1-0.7-0.1c-0.1-0.2-0.1-0.4,0.1-0.6c1-0.9,1.8-2,2.4-3.2c1-2.5,1.4-5.2,1.2-7.9c0-1.4,0-2.9-0.1-4.2
			c0-1.9-0.2-3.7-0.2-5.6c0-0.3,0.2-0.5,0.5-0.5C258.1,31.5,258.3,31.7,258.3,31.9"/>
		<path id="パス_996" class="st5" d="M264.3,25.4c-0.1,2.8,0.6,5.8,0.4,8.8c0,0.3,0,0.7-0.1,1c-0.4,6-2.6,12-7,16.2
			c-1,0.9-2.1,1.7-3.2,2.4c-0.2,0.1-0.5,0.1-0.7-0.2c-0.1-0.2-0.1-0.5,0.1-0.6c1.5-1.1,2.9-2.4,4.1-3.9c3.1-4.1,4.9-8.9,5.2-14
			c0.1-0.6,0.1-1.3,0.1-1.9c0.1-1.3,0-2.6-0.1-3.8c-0.1-1.3-0.1-2.7,0.1-4c0-0.3,0.3-0.4,0.5-0.4C264.1,25,264.3,25.2,264.3,25.4"/>
		<path id="パス_997" class="st5" d="M240.8-4.5c2.1,1.8,2.3,5,4.1,7c0.5,0.6,1.2,1,1.9,1.2c0.3,0.1,0.4,0.3,0.4,0.6
			c0,0.2-0.2,0.4-0.5,0.4c-0.5,0-1.1-0.1-1.5-0.3c-1.3-0.7-2.4-1.9-3-3.3c-0.4-0.9-0.7-1.7-1-2.6c-0.3-0.8-0.7-1.6-1.1-2.3
			c-0.2-0.2-0.1-0.5,0.1-0.7C240.4-4.7,240.6-4.7,240.8-4.5"/>
		<path id="パス_998" class="st5" d="M243.1-4.8c1.6,0.5,2.9,1.7,3.6,3.2c0.6,1.3,1.4,2.5,2.3,3.6c0.6,0.6,1.4,1.1,2.2,1.2
			c0.3,0,0.5,0.3,0.4,0.5c0,0.2-0.2,0.4-0.4,0.4c-0.3,0-0.6,0-0.9,0c-0.6-0.1-1.1-0.3-1.6-0.6c-2-1.2-2.8-3.7-4-5.6
			c-0.5-0.7-1.1-1.4-1.9-1.8c-0.2-0.1-0.3-0.4-0.2-0.6C242.7-4.8,242.9-4.9,243.1-4.8"/>
		<path id="パス_999" class="st5" d="M226.3,11c-1.7-10.9,4.9-22.8,15.8-25.9c9.6-2.8,19.3,3.8,23,12.5c0.6,1.4,1.1,2.9,1.5,4.5
			c0.7,3.1,0.8,6.2,0.3,9.3c0,0.3-0.3,0.4-0.6,0.4c-0.2,0-0.4-0.3-0.4-0.5c0-0.4,0.1-1.3,0.1-1.7c0-0.2,0-0.7,0-0.8
			c0-0.2,0-0.7,0-0.8c0-9.2-6-18.6-15-21.3c-7.3-2.2-15,1.5-19.3,7.4c-2.9,3.9-4.6,8.6-4.7,13.5c0,0.3,0,0.8,0,1.1s0,0.8,0,1.1
			l0.1,1.1l0,0c0,0.3-0.2,0.5-0.5,0.5C226.5,11.4,226.3,11.3,226.3,11"/>
		<path id="パス_1000" class="st5" d="M264.1,8.6l-1.5,9.9c2.2,0.2,4.4-1.7,4.8-4.3C267.8,11.5,266.3,9.1,264.1,8.6"/>
		<path id="パス_1001" class="st5" d="M262.6,18c3.3-0.1,5-4.3,3.6-7c-0.4-0.9-1.2-1.6-2.2-2c-0.3-0.1-0.4-0.3-0.3-0.6
			c0.1-0.2,0.3-0.4,0.5-0.3c0.7,0.1,1.3,0.3,1.9,0.7c2.8,2.1,2.8,6.6,0.2,8.9c-0.5,0.5-1.1,0.8-1.7,1s-1.3,0.3-2,0.2
			c-0.3,0-0.4-0.3-0.4-0.5C262.2,18.2,262.4,18,262.6,18"/>
		<path id="パス_1002" class="st5" d="M262.1,19.3l0.4,0.1c0.3,0,0.5-0.1,0.5-0.4l1.7-10.7c0-0.2-0.1-0.5-0.4-0.5l-0.4-0.1
			c-0.3,0-0.5,0.1-0.5,0.4l-1.7,10.7C261.7,19,261.8,19.2,262.1,19.3L262.1,19.3"/>
		<path id="パス_1003" class="st5" d="M262.2,18.8l0.4,0.1l0,0l0,0l0,0l0,0l0,0l0.1-0.4c0.5-3.4,0.9-6.8,1.4-10.2l0,0l0,0
			c0,0.2,0.1,0.3,0.2,0.3l-0.4-0.1l0,0c0.1,0,0.2,0,0.2-0.1c0.1,0,0.1-0.1,0.1-0.2l0,0c-0.6,3.2-1.3,6.5-1.8,9.8L262.2,18.8
			L262.2,18.8L262.2,18.8L262.2,18.8L262.2,18.8 M262,19.7c-0.5-0.1-0.8-0.5-0.8-1c0-0.1,0.1-0.8,0.1-0.9l0.2-1.6
			c0.4-2.7,0.7-5.5,1.1-8.2c0-0.1,0.1-0.3,0.1-0.4c0.2-0.5,0.8-0.7,1.3-0.7l0.4,0.1c0.6,0.1,1.1,0.7,1,1.3c-0.1,0.6-0.3,1.9-0.4,2.5
			c-0.5,2.7-1.1,5.4-1.6,8.2c-0.1,0.5-0.5,0.9-1,0.8C262.4,19.8,262.1,19.8,262,19.7"/>
		<path id="パス_1004" class="st5" d="M225.4,14.2c0.4,2.6,2.5,4.5,4.8,4.3l-1.5-9.9C226.4,9,225,11.5,225.4,14.2"/>
		<path id="パス_1005" class="st5" d="M230.2,19c-1.4,0.2-2.7-0.3-3.7-1.2c-2.5-2.3-2.6-6.8,0.2-8.9c0.6-0.4,1.2-0.7,1.9-0.7
			c0.3,0,0.5,0.2,0.5,0.4c0,0.2-0.1,0.4-0.3,0.5c-3.2,1-3.5,5.5-1.3,7.7c0.7,0.8,1.7,1.2,2.7,1.2c0.3,0,0.5,0.2,0.5,0.5
			C230.6,18.7,230.5,18.9,230.2,19"/>
		<path id="パス_1006" class="st5" d="M230.7,19.3l-0.4,0.1c-0.3,0-0.5-0.1-0.5-0.4l-1.7-10.7c0-0.2,0.1-0.5,0.4-0.5l0.4-0.1
			c0.2,0,0.5,0.1,0.5,0.4l1.7,10.7C231.1,19,230.9,19.2,230.7,19.3L230.7,19.3"/>
		<path id="パス_1007" class="st5" d="M230.7,19.8c-0.1,0-0.4,0.1-0.5,0.1c-0.5,0-1-0.3-1-0.8c-0.5-2.7-1-5.5-1.6-8.2
			c-0.1-0.6-0.4-1.9-0.4-2.5c-0.1-0.6,0.4-1.2,1-1.3l0.4-0.1c0.5-0.1,1,0.2,1.3,0.7C230,7.8,230,8,230,8.1c0.4,2.7,0.7,5.5,1.1,8.2
			l0.2,1.6l0.1,0.8v0.1C231.6,19.2,231.2,19.7,230.7,19.8 M230.6,18.8L230.6,18.8L230.6,18.8L230.6,18.8L230.6,18.8l-0.2-0.8
			c-0.6-3.2-1.3-6.5-1.8-9.8l0,0l0,0c0,0,0,0,0,0.1c0.1,0.1,0.2,0.2,0.3,0.2l0,0l-0.4,0.1c0.1,0,0.3-0.2,0.2-0.3l0,0l0,0
			c0.5,3.4,0.9,6.8,1.4,10.2l0.1,0.4l0,0l0,0l0,0l0,0L230.6,18.8z"/>
		<path id="パス_1008" class="st5" d="M267.7,13.5c0.4,0,0.8,0,1.2,0c0.3,0,0.5,0.2,0.5,0.5l0,0c-1,7.4-7.8,12.5-15.1,11.5
			c-0.6-0.1-1.1-0.2-1.6-0.3s-1-0.3-1.4-0.4c-0.2-0.1-0.4-0.4-0.3-0.6c0.1-0.2,0.3-0.4,0.6-0.3c1.8,0.4,3.7,0.6,5.5,0.4
			c5.1-0.5,9.5-4.1,11-9c0.1-0.4,0.3-0.9,0.4-1.3l0.5,0.6c-0.4,0-0.8-0.1-1.1-0.1s-0.4-0.3-0.4-0.5
			C267.3,13.7,267.5,13.5,267.7,13.5"/>
		<path id="パス_1009" class="st5" d="M253.9,23.1l-2.8-0.3l-1.2,0.7c-0.1,0.2-0.2,0.4-0.2,0.6c-0.2,0.8,0.3,1.7,1.2,1.9l2.5,0.4
			c0.9,0,1.7-0.7,1.7-1.6C255.1,24.1,254.6,23.4,253.9,23.1"/>
		<path id="パス_1010" class="st5" d="M251.2,22.4c0.9,0,1.8,0.1,2.7,0.1c0.1,0,0.2,0,0.3,0c1.2,0.4,1.9,1.7,1.5,3
			c0,0.1-0.1,0.3-0.2,0.4c-0.4,0.9-1.5,1.5-2.5,1.2c-0.7-0.1-1.4-0.2-2.1-0.4c-1.2-0.2-2-1.3-1.9-2.5c0.1-0.3,0.2-0.7,0.4-1
			c0.2-0.2,0.5-0.3,0.7-0.1c0.2,0.1,0.2,0.4,0.2,0.6c-0.2,0.4-0.1,0.8,0,1.2c0.1,0.2,0.3,0.4,0.6,0.5h0.2c0.3,0,0.6,0.1,0.8,0.1
			c0.5,0.1,1,0.1,1.5,0.2c0.5,0.1,0.9-0.4,0.9-1c0.1-0.4-0.2-0.8-0.5-1c-0.1,0-0.2,0-0.3-0.1c-0.8-0.1-1.6-0.3-2.5-0.4
			c-0.3,0-0.4-0.3-0.4-0.6C250.7,22.5,250.9,22.4,251.2,22.4"/>
	</g>
</g>
</svg>
