<svg id="グループ_2827" data-name="グループ 2827" xmlns="http://www.w3.org/2000/svg" width="36" height="36" viewBox="0 0 36 36">
  <circle id="楕円形_134" data-name="楕円形 134" cx="18" cy="18" r="18" fill="#ef9cbf"/>
  <g id="アイコン" transform="translate(13 13)">
    <g id="グループ_535" data-name="グループ 535">
      <path id="パス_916" data-name="パス 916" d="M215.5,0H212.26a.525.525,0,1,0,0,1.051h1.6l-2.61,2.61a.788.788,0,0,0,1.115,1.115l2.609-2.609v1.6a.525.525,0,1,0,1.051,0V.525A.526.526,0,0,0,215.5,0Z" transform="translate(-205.143)" fill="#fff"/>
      <path id="パス_917" data-name="パス 917" d="M9.241,39.567a.557.557,0,0,0-.557.557v2.9a.552.552,0,0,1-.551.551H1.666a.552.552,0,0,1-.551-.551V36.556A.552.552,0,0,1,1.666,36H4.34a.557.557,0,0,0,0-1.115H1.666A1.668,1.668,0,0,0,0,36.556v6.467a1.668,1.668,0,0,0,1.666,1.666H8.132A1.668,1.668,0,0,0,9.8,43.022v-2.9A.557.557,0,0,0,9.241,39.567Z" transform="translate(0 -33.918)" fill="#fff"/>
    </g>
  </g>
</svg>
