<svg xmlns="http://www.w3.org/2000/svg" width="11.5" height="11.5" viewBox="0 0 11.5 11.5">
  <g id="レイヤー_1" transform="translate(-0.5 -0.503)">
    <path id="パス_920" data-name="パス 920" d="M12,5.308v5.867a.887.887,0,0,1-.937.828H7.846a.222.222,0,0,1-.234-.207V9.341A1.056,1.056,0,0,0,6.5,8.359H6a1.056,1.056,0,0,0-1.112.983V11.8A.222.222,0,0,1,4.654,12H1.437A.887.887,0,0,1,.5,11.175V5.308a.786.786,0,0,1,.3-.6L5.61.726a1.029,1.029,0,0,1,1.28,0L11.7,4.7A.786.786,0,0,1,12,5.308Z" transform="translate(0)" fill="#919191"/>
  </g>
</svg>
