<svg id="Free_Clock_icon_part_2無料の時計のアイコン_2" data-name="Free Clock icon part 2無料の時計のアイコン 2" xmlns="http://www.w3.org/2000/svg" width="23" height="23" viewBox="0 0 23 23">
  <path id="パス_2046" data-name="パス 2046" d="M11.5,0A11.5,11.5,0,1,0,23,11.5,11.513,11.513,0,0,0,11.5,0Zm0,20.262A8.762,8.762,0,1,1,20.262,11.5,8.772,8.772,0,0,1,11.5,20.262Z" fill="#919191"/>
  <path id="パス_2047" data-name="パス 2047" d="M159.082,115.758a1.045,1.045,0,0,0-1.045,1.045v4.729l-3.335,3.335a1.045,1.045,0,1,0,1.477,1.477l3.947-3.947v-5.6A1.045,1.045,0,0,0,159.082,115.758Z" transform="translate(-147.466 -110.57)" fill="#919191"/>
</svg>
