<?xml version="1.0" encoding="utf-8"?>
<!-- Generator: Adobe Illustrator 28.1.0, SVG Export Plug-In . SVG Version: 6.00 Build 0)  -->
<svg version="1.1" id="aicon_line" xmlns="http://www.w3.org/2000/svg" xmlns:xlink="http://www.w3.org/1999/xlink" x="0px"
	 y="0px" viewBox="0 0 38.5 32.7" style="enable-background:new 0 0 38.5 32.7;" xml:space="preserve">
<style type="text/css">
	.st0{enable-background:new    ;}
	.st1{fill:#FFFFFF;}
</style>
    <g id="st0">
        <path class="st1" d="M8.9,10.7c0-0.1,0.1-0.2,0.2-0.2h1c0.1,0,0.2,0.1,0.2,0.2V15h1.9c0.1,0,0.2,0.1,0.2,0.2V16
            c0,0.1-0.1,0.2-0.2,0.2h-3c-0.1,0-0.2-0.1-0.2-0.2V10.7z" />
        <path class="st1" d="M14.5,10.7c0-0.1,0.1-0.2,0.2-0.2h1c0.1,0,0.2,0.1,0.2,0.2V16c0,0.1-0.1,0.2-0.2,0.2h-1
            c-0.1,0-0.2-0.1-0.2-0.2V10.7z"/>
        <path class="st1" d="M18.5,10.6c0-0.1,0.1-0.1,0.2-0.1h0.2l3.2,3.1h0v-2.8c0-0.1,0.1-0.2,0.2-0.2h1c0.1,0,0.2,0.1,0.2,0.2v5.4
            c0,0.1-0.1,0.1-0.2,0.1h-0.1c0,0-0.1,0-0.1,0L19.8,13h0v3c0,0.1-0.1,0.2-0.2,0.2h-1c-0.1,0-0.2-0.1-0.2-0.2L18.5,10.6z"/>
        <path class="st1" d="M26.2,10.7c0-0.1,0.1-0.2,0.2-0.2h3.3c0.1,0,0.2,0.1,0.2,0.2v0.9c0,0.1-0.1,0.2-0.2,0.2h-2.2v1h1.8
            c0.1,0,0.2,0.1,0.2,0.2v0.9c0,0.1-0.1,0.2-0.2,0.2h-1.8V15h2.2c0.1,0,0.2,0.1,0.2,0.2V16c0,0.1-0.1,0.2-0.2,0.2h-3.3
            c-0.1,0-0.2-0.1-0.2-0.2V10.7z"/>
    </g>
   <path class="st1" d="M13.7,0H14h11.4c7.4,0.1,13.2,6.2,13.1,13.6c0,1.1-0.2,2.3-0.5,3.4l0,0c-1.8,5.8-7.2,9.8-13.2,9.8h-0.3h-3.2
        c-0.3,0-0.6,0.2-0.8,0.4l0,0l-4.2,4.8l0,0c-0.8,0.9-2.2,1-3.1,0.2c-0.5-0.4-0.7-1-0.7-1.6c0,0,0,0,0,0v-3.8
        C5.1,26.2-0.5,19.8,0,12.5c0.1-0.9,0.2-1.8,0.5-2.7v0C2.3,4,7.7,0,13.7,0z M25.4,2H14C8.7,1.9,4,5.3,2.4,10.3
        c-1.7,6,1.8,12.3,7.9,14c0.9,0.2,1.8,0.4,2.7,0.4h0.5c0.6,0,1,0.4,1,1v4.7c0,0.1,0,0.1,0.1,0.2c0.1,0,0.1,0,0.2,0l4.2-4.7
        c0.6-0.7,1.4-1.1,2.4-1.1h3.2c5.3,0.1,10-3.3,11.6-8.3c1.7-6-1.8-12.3-7.9-14C27.3,2.2,26.3,2,25.4,2L25.4,2z"/>
</svg>
