<svg xmlns="http://www.w3.org/2000/svg" xmlns:xlink="http://www.w3.org/1999/xlink" width="34" height="34" viewBox="0 0 34 34">
  <defs>
    <linearGradient id="linear-gradient" x1="0.173" y1="0.247" x2="1" y2="1" gradientUnits="objectBoundingBox">
      <stop offset="0" stop-color="#fdf5e0"/>
      <stop offset="0.644" stop-color="#ef9cbf"/>
      <stop offset="1" stop-color="#eb8bb4"/>
    </linearGradient>
  </defs>
  <g id="グループ_3290" data-name="グループ 3290" transform="translate(-1605 -4917.604)">
    <circle id="楕円形_132" data-name="楕円形 132" cx="17" cy="17" r="17" transform="translate(1605 4917.604)" opacity="0.502" fill="url(#linear-gradient)"/>
    <g id="グループ_2893" data-name="グループ 2893" transform="translate(1613 4925.605)">
      <g id="グループ_2891" data-name="グループ 2891" transform="translate(0.301 0.303)">
        <path id="パス_2096" data-name="パス 2096" d="M87.725,157.029a.368.368,0,0,1-.359.449h-3.95a.368.368,0,0,1-.359-.449l.226-.993a.369.369,0,0,1,.359-.286h3.5a.369.369,0,0,1,.359.286Z" transform="translate(-76.693 -143.376)" fill="#fff"/>
        <path id="パス_2098" data-name="パス 2098" d="M32.457,4.794v9.174a1.734,1.734,0,0,1-1.116,1.767H19.226a1.734,1.734,0,0,1-1.116-1.767V4.794A1.624,1.624,0,0,1,19.471,3H31.1A1.624,1.624,0,0,1,32.457,4.794Zm-1.22,7.721v-6.3a1.573,1.573,0,0,0-1.321-1.738H20.65a1.573,1.573,0,0,0-1.32,1.738v6.3a1.573,1.573,0,0,0,1.32,1.738h9.267A1.573,1.573,0,0,0,31.238,12.516Z" transform="translate(-16.585 -3)" fill="#fff"/>
        <path id="パス_2099" data-name="パス 2099" d="M20.315,133.407c.237.649-.107,1.416-.636,1.416H3.707c-.53,0-.873-.768-.635-1.416l1-3.607a.726.726,0,0,1,.635-.54H18.681a.727.727,0,0,1,.635.54Zm-6.973.253a.356.356,0,0,0,.3-.449l-.189-.993a.326.326,0,0,0-.3-.286h-2.92a.326.326,0,0,0-.3.286l-.189.993a.356.356,0,0,0,.3.449Z" transform="translate(-2.995 -119.558)" fill="#fff"/>
      </g>
      <g id="グループ_2892" data-name="グループ 2892">
        <path id="パス_2100" data-name="パス 2100" d="M28.691,13.341a.266.266,0,0,1-.241-.245.306.306,0,0,1,.2-.355,1.44,1.44,0,0,0,.926-1.47V2.1c0-.823-.505-1.492-1.126-1.492H16.728c-.621,0-1.126.669-1.126,1.492v9.174a1.438,1.438,0,0,0,.926,1.47.306.306,0,0,1,.2.355.254.254,0,0,1-.289.24,2.026,2.026,0,0,1-1.324-2.065V2.1A1.907,1.907,0,0,1,16.728,0H28.445a1.907,1.907,0,0,1,1.618,2.1v9.174a2.027,2.027,0,0,1-1.324,2.065.186.186,0,0,1-.047.006Z" transform="translate(-13.587)" fill="#fff"/>
        <path id="パス_2101" data-name="パス 2101" d="M40.522,25.058H31.605c-.83,0-1.505-.916-1.505-2.041v-6.3c0-1.126.676-2.041,1.505-2.041h8.917c.831,0,1.506.916,1.506,2.041v6.3c0,1.125-.676,2.041-1.506,2.041Zm-8.917-9.773c-.571,0-1.036.644-1.036,1.435v6.3c0,.792.465,1.435,1.036,1.435h8.917c.571,0,1.037-.644,1.037-1.435v-6.3c0-.792-.465-1.435-1.037-1.435Z" transform="translate(-27.065 -13.199)" fill="#fff"/>
        <path id="パス_2102" data-name="パス 2102" d="M17.037,132.437H.976a.91.91,0,0,1-.784-.528,1.63,1.63,0,0,1-.091-1.3l1-3.594a.21.21,0,0,1,.008-.025.99.99,0,0,1,.871-.721H16.034a.981.981,0,0,1,.871.72c0,.009.006.017.008.026l1,3.595a1.632,1.632,0,0,1-.094,1.3.91.91,0,0,1-.783.527ZM1.579,127.22l-1,3.593a.229.229,0,0,1-.008.026.917.917,0,0,0,.047.738.433.433,0,0,0,.359.253H17.037a.434.434,0,0,0,.358-.252.918.918,0,0,0,.048-.74.226.226,0,0,1-.008-.026l-1-3.593a.471.471,0,0,0-.4-.347H1.981a.468.468,0,0,0-.4.347Z" transform="translate(-0.007 -116.567)" fill="#fff"/>
        <path id="パス_2103" data-name="パス 2103" d="M84.672,155.092h-3.95a.669.669,0,0,1-.654-.818l.226-.993a.667.667,0,0,1,.655-.521h3.5a.667.667,0,0,1,.654.521l.226.993a.669.669,0,0,1-.654.818Zm-3.724-1.728a.067.067,0,0,0-.065.051l-.226.993a.064.064,0,0,0,.012.054.065.065,0,0,0,.051.025h3.95a.062.062,0,0,0,.051-.025.06.06,0,0,0,.012-.054l-.226-.993a.067.067,0,0,0-.064-.051h-3.5Z" transform="translate(-73.698 -140.385)" fill="#fff"/>
      </g>
    </g>
  </g>
</svg>
