<?xml version="1.0" encoding="utf-8"?>
<!-- Generator: Adobe Illustrator 28.1.0, SVG Export Plug-In . SVG Version: 6.00 Build 0)  -->
<svg version="1.1" id="レイヤー_1" xmlns="http://www.w3.org/2000/svg" xmlns:xlink="http://www.w3.org/1999/xlink" x="0px"
	 y="0px" viewBox="0 0 674.6 662.6" style="enable-background:new 0 0 674.6 662.6;" xml:space="preserve">
<style type="text/css">
	.st0{enable-background:new    ;}
	.st1{fill:#FEC0DA;}
</style>
<g id="グループ_519">
	<g class="st0">
		<path class="st1" d="M432.2,6.4c0.3-0.6,1.4-0.2,1.4,0.5l-3.1,73l44.7-57.7c0.4-0.6,1.4-0.2,1.4,0.5L466,96.2
			c-0.1,0.5-0.2,0.7-0.6,0.7l-0.8-0.1c-0.3,0-0.4-0.3-0.4-0.8l9.7-69.1l-44.4,57.6c-0.4,0.6-1.4,0.2-1.4-0.5l3.2-72.8l-37,59
			c-0.3,0.4-0.5,0.6-0.8,0.4l-0.7-0.5c-0.4-0.2-0.3-0.4,0-0.9L432.2,6.4z"/>
	</g>
</g>
<g class="st0">
	<path class="st1" d="M494.7,117.7c5.2,3.8,11,4.8,13.9,4.7c0.5,0,0.6,0.3,0.6,0.6l0,0.7c0,0.4-0.3,0.4-0.6,0.5
		c-3.2,0.1-9.4-0.9-15-4.9c-10.2-7.4-10.7-19.8-3.5-29.6c7-9.7,18.9-12.8,29-5.4c8.8,6.4,10.6,17.3,4.1,26.3c-0.4,0.6-1.6,2-2.2,2.3
		c-0.2,0.1-0.6,0.1-0.7,0l-29.1-21.2C485,100.3,485.6,111.1,494.7,117.7z M520.5,110.8c0.4-0.4,0.9-1,1.1-1.4
		c5.9-8.2,4.2-18-3.7-23.7c-9.1-6.6-19.3-3.9-25.9,4.4L520.5,110.8z"/>
</g>
<g class="st0">
	<path class="st1" d="M552,114.4c0.3-0.3,0.7-0.3,1,0l0.3,0.3c0.3,0.3,0.3,0.7,0,1l-3.9,3.8c3.5-0.5,9.8-0.3,14.5,4.6
		c3.5,3.6,4,6.8,4,6.8c0.1,0.4-0.2,0.7-0.5,0.8l-0.6,0.1c-0.2,0.1-0.7-0.1-0.8-0.5c0,0-0.5-2.8-3.4-5.9c-5.7-5.9-14-4.1-15.4-3.8
		l-22.5,21.7c-0.3,0.3-0.7,0.3-1,0l-0.3-0.3c-0.3-0.3-0.3-0.7,0-1L552,114.4z"/>
</g>
<g class="st0">
	<path class="st1" d="M581.1,147.5c0.3-0.2,0.8-0.2,1,0.2l0.2,0.3c0.2,0.3,0.2,0.8-0.2,1l-4.4,3.2c3.5,0,9.7,1.1,13.7,6.7
		c2.9,4.1,2.9,7.3,2.9,7.3c0,0.4-0.3,0.7-0.6,0.7l-0.6,0.1c-0.2,0-0.6-0.2-0.7-0.6c0,0,0-2.9-2.5-6.3c-4.8-6.7-13.2-6.1-14.7-5.9
		l-25.3,18.2c-0.3,0.2-0.8,0.2-1-0.2l-0.2-0.3c-0.2-0.3-0.2-0.8,0.2-1L581.1,147.5z"/>
</g>
<g class="st0">
	<path class="st1" d="M602.7,178.4c0.3-0.4,0.6-0.5,0.8-0.3l0.6,0.5c0.4,0.3,0.2,0.6,0,0.8L578,214l42.7-0.9c0.2,0,0.6,0,0.6,0.5
		l0,0.8c0,0.3-0.2,0.5-0.7,0.5l-79.1,1.7c-0.5,0-0.6-0.1-0.6-0.6l0-0.6c0-0.4,0.1-0.5,0.6-0.6l34.2-0.7L602.7,178.4z"/>
</g>
<g id="グループ_521">
	<g class="st0">
		<path class="st1" d="M665.1,243.4c0.7,0,0.9,1.1,0.3,1.4l-64,35.3l72.6,8.2c0.7,0.1,0.9,1.1,0.3,1.4L606.1,319
			c-0.5,0.2-0.7,0.2-0.9-0.1l-0.4-0.8c-0.2-0.3,0-0.5,0.5-0.7l64-27.7l-72.3-7.9c-0.7-0.1-0.9-1.1-0.3-1.4l63.8-35.1l-69.7-0.9
			c-0.5,0-0.8-0.2-0.7-0.5l0-0.8c0-0.4,0.2-0.5,0.7-0.5L665.1,243.4z"/>
	</g>
	<g class="st0">
		<path class="st1" d="M602.7,354.5c-0.5,6.5,1.7,11.9,3.4,14.3c0.3,0.4,0.1,0.7-0.2,0.8l-0.6,0.4c-0.3,0.2-0.5,0-0.7-0.3
			c-1.8-2.7-4.2-8.5-3.8-15.3c0.9-12.5,11.1-19.6,23.2-18.7c11.9,0.8,20.8,9.2,19.9,21.8c-0.8,10.9-9,18.1-20.1,17.4
			c-0.7-0.1-2.6-0.3-3.1-0.6c-0.2-0.1-0.4-0.4-0.4-0.6l2.6-36C612.3,337.1,603.5,343.3,602.7,354.5z M622.2,372.7
			c0.6,0.1,1.3,0.2,1.7,0.2c10.1,0.7,17.5-6,18.2-15.6c0.8-11.2-6.9-18.5-17.4-19.6L622.2,372.7z"/>
	</g>
	<g class="st0">
		<path class="st1" d="M637.7,398.4c0.4,0,0.7,0,0.7,0.5l0,0.7c0,0.4-0.2,0.6-0.5,0.6l-40.8,0.6l34.4,23.7c0.6,0.4,0.3,1.4-0.4,1.4
			l-41.8-0.4l33,23.9c0.3,0.2,0.3,0.4,0.1,0.8l-0.4,0.5c-0.4,0.4-0.5,0.3-0.9,0L585.2,425c-0.6-0.4-0.3-1.4,0.4-1.4l41.7,0.3
			L593,400.2c-0.6-0.4-0.3-1.4,0.4-1.4L637.7,398.4z"/>
	</g>
</g>
<g class="st0">
	<path class="st1" d="M560.5,588.3c0.4,0.6-0.6,1.3-1.2,0.9L499.6,547l24.3,68.8c0.3,0.7-0.6,1.3-1.2,0.9l-56-48.5
		c-0.4-0.3-0.5-0.5-0.2-0.8l0.5-0.7c0.2-0.3,0.5-0.2,0.9,0.1l52.9,45.5l-24.4-68.5c-0.3-0.7,0.6-1.3,1.2-0.9l59.4,42.1l-29.6-63
		c-0.2-0.5-0.2-0.8,0.1-0.9l0.8-0.3c0.4-0.2,0.5,0,0.7,0.5L560.5,588.3z"/>
</g>
<g class="st0">
	<path class="st1" d="M433.1,580.7c-6,2.4-10,6.7-11.4,9.2c-0.3,0.4-0.6,0.4-0.8,0.2l-0.6-0.4c-0.3-0.2-0.2-0.5-0.1-0.7
		c1.7-2.8,5.8-7.5,12.3-10c11.7-4.6,22.4,1.7,26.8,13c4.3,11.1,0.6,22.8-11.1,27.3c-10.2,4-20.3-0.4-24.3-10.8
		c-0.3-0.7-0.8-2.4-0.7-3c0-0.2,0.2-0.5,0.4-0.6l33.6-13.1C452.9,581.9,443.5,576.6,433.1,580.7z M425,606.2
		c0.1,0.6,0.4,1.3,0.5,1.7c3.7,9.4,12.9,13.2,21.9,9.7c10.5-4.1,13.7-14.2,10.3-24.1L425,606.2z"/>
</g>
<g id="グループ_523">
	<g class="st0">
		<path class="st1" d="M404.9,630.7c0.1,0.4-0.2,0.8-0.6,0.8l-0.4,0.1c-0.4,0.1-0.8-0.2-0.8-0.6l-1.1-5.4c-1.5,3.2-5.1,8.4-11.7,9.7
			c-4.9,1-7.8-0.3-7.8-0.3c-0.3-0.1-0.5-0.5-0.4-0.9l0.2-0.6c0.1-0.2,0.4-0.5,0.9-0.4c0,0,2.6,1.2,6.8,0.3c8.1-1.6,11-9.5,11.5-10.9
			l-6.1-30.6c-0.1-0.4,0.2-0.8,0.6-0.8l0.4-0.1c0.4-0.1,0.8,0.2,0.8,0.6L404.9,630.7z"/>
	</g>
	<g class="st0">
		<path class="st1" d="M361.3,637.2c0,0.4-0.3,0.7-0.7,0.8l-0.4,0c-0.4,0-0.7-0.3-0.8-0.7l-0.3-5.5c-1.9,3-6.2,7.5-13,7.9
			c-5,0.3-7.7-1.5-7.7-1.5c-0.3-0.2-0.4-0.6-0.3-0.9l0.3-0.5c0.1-0.2,0.5-0.4,0.9-0.3c0,0,2.4,1.5,6.7,1.3
			c8.2-0.4,12.3-7.8,12.9-9.1l-1.6-31.2c0-0.4,0.3-0.7,0.7-0.8l0.4,0c0.4,0,0.7,0.3,0.8,0.7L361.3,637.2z"/>
	</g>
	<g class="st0">
		<path class="st1" d="M323.7,638.6c0.2,0.4,0.1,0.7-0.2,0.8l-0.8,0.2c-0.4,0.2-0.6-0.2-0.7-0.4l-14.9-40.6L284.8,635
			c-0.1,0.2-0.4,0.5-0.8,0.2l-0.7-0.4c-0.3-0.1-0.3-0.4,0-0.8l41.4-67.5c0.3-0.4,0.5-0.5,0.9-0.2l0.5,0.4c0.3,0.2,0.4,0.4,0.1,0.8
			l-17.9,29.2L323.7,638.6z"/>
	</g>
	<g class="st0">
		<path class="st1" d="M235.2,656c-0.4,0.6-1.4,0.2-1.3-0.5l4.9-73l-46.1,56.6c-0.5,0.6-1.4,0.2-1.3-0.5l12.2-73.1
			c0.1-0.5,0.2-0.7,0.6-0.7l0.8,0.1c0.3,0,0.4,0.3,0.3,0.8L194,634.5l45.8-56.5c0.5-0.6,1.4-0.2,1.3,0.5l-5,72.7l38.4-58.1
			c0.3-0.4,0.6-0.6,0.8-0.3l0.7,0.5c0.3,0.2,0.3,0.4,0,0.9L235.2,656z"/>
	</g>
</g>
<g class="st0">
	<path class="st1" d="M175.4,543.2c-5.2-3.9-10.9-5.1-13.8-5c-0.5,0-0.6-0.4-0.6-0.6l0-0.7c0-0.4,0.3-0.4,0.6-0.4
		c3.2,0,9.4,1.1,14.9,5.3c10,7.6,10.2,20,2.9,29.7c-7.3,9.5-19.1,12.3-29.1,4.7c-8.7-6.6-10.2-17.5-3.4-26.4c0.4-0.6,1.6-2,2.2-2.2
		c0.2-0.1,0.6-0.1,0.7,0l28.6,21.9C184.7,560.8,184.3,550.1,175.4,543.2z M149.4,549.6c-0.5,0.4-0.9,1-1.1,1.3
		c-6.1,8-4.6,17.9,3.1,23.8c8.9,6.8,19.2,4.3,25.9-3.8L149.4,549.6z"/>
</g>
<g class="st0">
	<path class="st1" d="M119.7,549c-0.3,0.3-0.3,0.6-0.8,0.3l-0.6-0.3c-0.3-0.3-0.4-0.5-0.2-0.8l21.6-34.6l-38.6,16.1
		c-0.7,0.3-1.3-0.5-0.9-1.1l23-35l-38.1,14.8c-0.3,0.1-0.5,0-0.7-0.4l-0.2-0.6c-0.2-0.5,0.1-0.6,0.4-0.8l41.2-16.2
		c0.7-0.3,1.3,0.5,0.9,1.1l-22.9,34.9l38.5-16c0.7-0.3,1.3,0.5,0.9,1.1L119.7,549z"/>
</g>
<g class="st0">
	<path class="st1" d="M8.9,416.9c-0.7,0-0.9-1.1-0.3-1.4L73.1,381l-72.4-9.2c-0.7-0.1-0.9-1.1-0.3-1.4L69,342.1
		c0.5-0.2,0.7-0.2,0.9,0.2l0.4,0.8c0.2,0.3,0,0.5-0.5,0.7L5.3,370.6l72.2,8.9c0.7,0.1,0.9,1.1,0.3,1.4l-64.3,34.2L83,417
		c0.5,0,0.8,0.2,0.7,0.5l-0.1,0.8c0,0.4-0.2,0.5-0.8,0.5L8.9,416.9z"/>
</g>
<g class="st0">
	<path class="st1" d="M72.9,306.7c0.7-6.5-1.3-11.9-3-14.4c-0.3-0.4,0-0.7,0.2-0.8l0.7-0.3c0.3-0.2,0.5,0.1,0.7,0.3
		c1.7,2.8,4,8.6,3.3,15.5c-1.3,12.5-11.7,19.2-23.8,17.9c-11.9-1.2-20.5-9.9-19.2-22.4c1.1-10.9,9.6-17.8,20.7-16.7
		c0.7,0.1,2.6,0.4,3,0.7c0.2,0.1,0.4,0.5,0.3,0.7L52,323C62.7,323.7,71.7,317.8,72.9,306.7z M53.9,287.8c-0.6-0.2-1.3-0.2-1.7-0.3
		c-10-1-17.6,5.4-18.6,15c-1.2,11.2,6.3,18.7,16.8,20.2L53.9,287.8z"/>
</g>
<g class="st0">
	<path class="st1" d="M40.8,258.9c-0.4-0.1-0.6-0.5-0.5-0.9l0.1-0.4c0.1-0.4,0.5-0.6,0.9-0.5l5.3,1.4c-2.2-2.8-5.2-8.3-3.4-14.8
		c1.3-4.9,3.8-6.9,3.8-6.9c0.3-0.2,0.7-0.2,0.9,0l0.4,0.4c0.2,0.2,0.3,0.6,0,0.9c0,0-2.2,1.8-3.3,5.9c-2.2,7.9,3.6,14.1,4.6,15.2
		l30.1,8.3c0.4,0.1,0.6,0.5,0.5,0.9l-0.1,0.4c-0.1,0.4-0.5,0.6-0.9,0.5L40.8,258.9z"/>
</g>
<g class="st0">
	<path class="st1" d="M54.4,217c-0.4-0.2-0.5-0.6-0.4-1l0.2-0.4c0.2-0.4,0.6-0.5,0.9-0.4l5,2.2c-1.8-3-4-8.9-1.2-15.2
		c2-4.6,4.8-6.2,4.8-6.2c0.3-0.2,0.7-0.1,0.9,0.2l0.3,0.5c0.1,0.2,0.2,0.6-0.2,0.9c0,0-2.5,1.5-4.2,5.4c-3.3,7.5,1.5,14.5,2.4,15.7
		l28.6,12.5c0.4,0.2,0.5,0.6,0.4,1l-0.2,0.4c-0.2,0.4-0.6,0.5-0.9,0.4L54.4,217z"/>
</g>
<g class="st0">
	<path class="st1" d="M70.1,182.6c-0.5-0.1-0.7-0.2-0.6-0.5l0.1-0.8c0.1-0.5,0.4-0.5,0.7-0.4l43,5l-22.5-36.4
		c-0.1-0.2-0.3-0.5,0.1-0.8l0.7-0.4c0.3-0.2,0.5,0,0.7,0.4l41.7,67.3c0.2,0.4,0.2,0.6-0.2,0.9l-0.5,0.3c-0.3,0.1-0.5,0.2-0.8-0.3
		l-18-29.1L70.1,182.6z"/>
</g>
<g class="st0">
	<path class="st1" d="M94.2,95.9c-0.4-0.6,0.4-1.4,1.1-1l63,37.1l-29.9-66.6c-0.3-0.7,0.4-1.4,1.1-1l59.9,43.8
		c0.4,0.3,0.6,0.5,0.3,0.8l-0.5,0.7c-0.2,0.3-0.5,0.3-0.9,0l-56.4-41l30,66.3c0.3,0.7-0.4,1.4-1.1,1L98.1,98.8l34.7,60.4
		c0.3,0.5,0.2,0.7,0,0.9l-0.8,0.4c-0.4,0.2-0.5,0-0.8-0.4L94.2,95.9z"/>
</g>
<g class="st0">
	<path class="st1" d="M221.8,92.9c5.8-2.8,9.4-7.5,10.6-10.1c0.2-0.5,0.6-0.4,0.8-0.3l0.6,0.4c0.3,0.2,0.2,0.5,0.1,0.7
		c-1.5,2.9-5.2,7.9-11.4,11c-11.3,5.5-22.5,0.2-27.8-10.7c-5.2-10.7-2.5-22.6,8.8-28.2c9.8-4.8,20.2-1.3,25.1,8.7c0.3,0.6,1,2.4,1,3
		c0,0.2-0.2,0.6-0.4,0.6L197,83.8C202,93.3,211.7,97.8,221.8,92.9z M227.8,66.8c-0.2-0.6-0.5-1.2-0.7-1.6
		c-4.4-9.1-13.9-12.1-22.6-7.9c-10.1,4.9-12.5,15.3-8.2,24.9L227.8,66.8z"/>
</g>
</svg>
